<?xml version="1.0" encoding="UTF-8" standalone="no"?>
<!-- Created with Inkscape (http://www.inkscape.org/) -->

<svg
   width="150mm"
   height="133mm"
   viewBox="0 0 566.92907 502.67648"
   version="1.1"
   id="svg1"
   inkscape:version="1.2.2 (b0a8486541, 2022-12-01)"
   sodipodi:docname="m07bweb.svg"
   xml:space="preserve"
   xmlns:inkscape="http://www.inkscape.org/namespaces/inkscape"
   xmlns:sodipodi="http://sodipodi.sourceforge.net/DTD/sodipodi-0.dtd"
   xmlns:xlink="http://www.w3.org/1999/xlink"
   xmlns="http://www.w3.org/2000/svg"
   xmlns:svg="http://www.w3.org/2000/svg"
   xmlns:rdf="http://www.w3.org/1999/02/22-rdf-syntax-ns#"
   xmlns:cc="http://creativecommons.org/ns#"><sodipodi:namedview
     id="namedview1"
     pagecolor="#ffffff"
     bordercolor="#eeeeee"
     borderopacity="1"
     inkscape:showpageshadow="0"
     inkscape:pageopacity="0"
     inkscape:pagecheckerboard="false"
     inkscape:deskcolor="#505050"
     inkscape:document-units="mm"
     inkscape:zoom="3.3647918"
     inkscape:cx="277.13453"
     inkscape:cy="320.97082"
     inkscape:window-width="1920"
     inkscape:window-height="1008"
     inkscape:window-x="0"
     inkscape:window-y="0"
     inkscape:window-maximized="1"
     inkscape:current-layer="layer1"
     showgrid="false"
     showguides="false" /><defs
     id="defs1"><inkscape:path-effect
       effect="spiro"
       id="path-effect5329"
       is_visible="true"
       lpeversion="1" /><linearGradient
       id="swatch158"
       inkscape:swatch="solid"><stop
         style="stop-color:#000000;stop-opacity:1;"
         offset="0"
         id="stop158" /></linearGradient><rect
       x="83.932243"
       y="108.46537"
       width="318.79349"
       height="87.755157"
       id="rect2" /><rect
       id="SVGID_1_"
       width="283.5"
       height="283.5"
       x="0"
       y="0" /><rect
       id="SVGID_1_-1"
       width="283.5"
       height="283.5"
       x="0"
       y="0" /><rect
       id="SVGID_1_-9"
       width="283.5"
       height="283.5"
       x="0"
       y="0" /><rect
       id="SVGID_1_-15"
       width="283.5"
       height="283.5"
       x="0"
       y="0" /><rect
       id="SVGID_1_-5"
       width="283.5"
       height="283.5"
       x="0"
       y="0" /><rect
       id="SVGID_1_-4"
       width="283.5"
       height="283.5"
       x="0"
       y="0" /><rect
       id="SVGID_1_-49"
       width="283.5"
       height="283.5"
       x="0"
       y="0" /><rect
       id="SVGID_1_-51"
       width="283.5"
       height="283.5"
       x="0"
       y="0" /><rect
       id="SVGID_1_-6"
       width="283.5"
       height="283.5"
       x="0"
       y="0" /><rect
       id="SVGID_1_-8"
       width="283.5"
       height="283.5"
       x="0"
       y="0" /><rect
       id="SVGID_1_-7"
       width="283.5"
       height="283.5"
       x="0"
       y="0" /><rect
       id="SVGID_1_-0"
       width="283.5"
       height="283.5"
       x="0"
       y="0" /><rect
       id="SVGID_1_-3"
       width="283.5"
       height="283.5"
       x="0"
       y="0" /><rect
       id="SVGID_1_-490"
       width="283.5"
       height="283.5"
       x="0"
       y="0" /><rect
       id="SVGID_1_-62"
       width="283.5"
       height="283.5"
       x="0"
       y="0" /><rect
       id="SVGID_1_-80"
       width="283.5"
       height="283.5"
       x="0"
       y="0" /><clipPath
       id="SVGID_00000088825643609802426310000009268447189076183692_-8">
		<use
   xlink:href="#SVGID_1_-53"
   style="overflow:visible"
   id="use1-59" />
	</clipPath><clipPath
       id="clipPath2">
		<use
   xlink:href="#SVGID_1_-53"
   style="overflow:visible"
   id="use2" />
	</clipPath><rect
       id="SVGID_1_-53"
       width="283.5"
       height="283.5"
       x="0"
       y="0" /><clipPath
       id="SVGID_00000008107930259922024670000008725292157661145523_">
		<use
   xlink:href="#SVGID_1_-33"
   style="overflow:visible"
   id="use1-1" />
	</clipPath><clipPath
       id="clipPath2-8">
		<use
   xlink:href="#SVGID_1_-33"
   style="overflow:visible"
   id="use2-9" />
	</clipPath><rect
       id="SVGID_1_-33"
       width="283.5"
       height="283.5"
       x="0"
       y="0" /><clipPath
       id="SVGID_00000124840597065488903460000005481875429875956626_">
		<use
   xlink:href="#SVGID_1_-85"
   style="overflow:visible"
   id="use1-680" />
	</clipPath><clipPath
       id="clipPath2-2">
		<use
   xlink:href="#SVGID_1_-85"
   style="overflow:visible"
   id="use2-1" />
	</clipPath><rect
       id="SVGID_1_-85"
       x="0"
       y="0"
       width="283.5"
       height="283.5" /><clipPath
       id="SVGID_00000131350927939289745970000003203673322947402127_">
		<use
   xlink:href="#SVGID_1_"
   style="overflow:visible"
   id="use49095" />
	</clipPath><clipPath
       id="clipPath52336">
		<use
   xlink:href="#SVGID_1_"
   style="overflow:visible"
   id="use52334" />
	</clipPath><clipPath
       id="SVGID_00000135691296135118220300000007282337375253646227_">
		<use
   xlink:href="#SVGID_1_-86"
   style="overflow:visible"
   id="use1" />
	</clipPath><clipPath
       id="clipPath2-25">
		<use
   xlink:href="#SVGID_1_-86"
   style="overflow:visible"
   id="use2-4" />
	</clipPath><rect
       id="SVGID_1_-86"
       width="283.5"
       height="283.5"
       x="0"
       y="0" /><clipPath
       id="SVGID_00000107573272734804361250000013699652756899299742_">
		<use
   xlink:href="#SVGID_1_-159"
   style="overflow:visible"
   id="use1-17" />
	</clipPath><clipPath
       id="clipPath2-27">
		<use
   xlink:href="#SVGID_1_-159"
   style="overflow:visible"
   id="use2-2" />
	</clipPath><rect
       id="SVGID_1_-159"
       width="283.5"
       height="283.5"
       x="0"
       y="0" /><clipPath
       id="SVGID_00000107573272734804361250000013699652756899299742_-3">
		<use
   xlink:href="#SVGID_1_-75"
   style="overflow:visible"
   id="use6251" />
	</clipPath><clipPath
       id="clipPath26292">
		<use
   xlink:href="#SVGID_1_-75"
   style="overflow:visible"
   id="use26290" />
	</clipPath><rect
       id="rect6455"
       width="283.5"
       height="283.5"
       x="0"
       y="0" /><clipPath
       id="SVGID_00000107573272734804361250000013699652756899299742_-6">
		<use
   xlink:href="#SVGID_1_-75"
   style="overflow:visible"
   id="use26444" />
	</clipPath><clipPath
       id="clipPath26585">
		<use
   xlink:href="#SVGID_1_-75"
   style="overflow:visible"
   id="use26583" />
	</clipPath><rect
       id="SVGID_1_-75"
       width="283.5"
       height="283.5"
       x="0"
       y="0" /></defs><g
     inkscape:label="Calque 1"
     inkscape:groupmode="layer"
     id="layer1"
     style="display:inline"><path
       style="display:inline;fill:none;fill-opacity:1;stroke:#82dc73;stroke-width:9.44882;stroke-dasharray:none;stroke-dashoffset:0;stroke-opacity:1"
       d="m 283.46557,472.39501 c 0,0 0.15065,-39.35207 -5.8179,-50.96174 -16.88116,-32.83629 -94.79636,-15.92376 -95.11052,-57.0865 L 182.4074,347.3598"
       id="path133"
       sodipodi:nodetypes="cssc" /><path
       style="display:inline;fill:none;fill-opacity:1;stroke:#82dc73;stroke-width:9.44882;stroke-dasharray:none;stroke-dashoffset:0;stroke-opacity:1"
       d="m 283.46489,472.39501 c 0,0 -0.15065,-39.35207 5.8179,-50.96174 16.88116,-32.83629 94.79636,-15.92376 95.11052,-57.0865 l 0.12975,-16.98697"
       id="path134"
       sodipodi:nodetypes="cssc" /><path
       style="fill:none;fill-opacity:1;stroke:#82dc73;stroke-width:9.44882;stroke-dasharray:none;stroke-opacity:1"
       d="M 283.46415,39.025526 V 243.47959"
       id="path5" /><rect
       style="fill:#25303b;fill-opacity:1;stroke-width:0.1573"
       id="rect221"
       width="122.66191"
       height="30.236217"
       x="305.59012"
       y="22.676687" /><a
       id="a60"
       xlink:href="/lines/m07"
       target="_parent"
       transform="translate(34.015991,-458.26815)"><g
         id="g59"
         transform="matrix(0.07332416,0,0,0.07335,204.09446,485.66923)">
	<defs
   id="defs56">
		<rect
   id="rect56"
   width="283.5"
   height="283.5"
   x="0"
   y="0" />
	</defs>
	<clipPath
   id="clipPath56">
		<use
   xlink:href="#SVGID_1_-6"
   style="overflow:visible"
   id="use56" />
	</clipPath>
	<path
   style="fill:#ff82b4"
   d="M 0,141.7 C 0,63.5 63.5,0 141.7,0 220,0 283.5,63.5 283.5,141.7 283.5,220 220.1,283.4 141.8,283.4 63.5,283.5 0,220 0,141.7"
   clip-path="url(#SVGID_00000068661809906068489540000009586368646322554296_)"
   id="path58" />
	<path
   d="M 196.2,91.2 V 66.8 H 91 v 25.1 h 73 L 127.4,160 c -13.2,24.5 -18.5,37.2 -18.5,57 h 34.3 c 0,-23.6 20,-68.5 53,-125.8"
   clip-path="url(#SVGID_00000068661809906068489540000009586368646322554296_)"
   id="path59" />
</g></a><g
       id="g61"
       transform="matrix(0.07333451,0,0,0.07333451,213.54353,27.401084)"><path
         d="M 141.73,0 C 63.45,0 0,63.46 0,141.73 0,220 63.45,283.46 141.73,283.46 220.01,283.46 283.46,220 283.46,141.73 283.46,63.46 220.01,0 141.73,0 m 0,265.04 c -68.1,0 -123.31,-55.21 -123.31,-123.31 0,-68.1 55.21,-123.3 123.31,-123.3 68.1,0 123.3,55.2 123.3,123.3 0,68.1 -55.2,123.31 -123.3,123.31 m 70.51,-59.89 c 0,6.74 -5.32,10.63 -11.69,10.63 -5.68,0 -12.05,-3.89 -12.05,-10.63 v -92.12 h -0.35 l -35.08,71.57 c -2.48,4.96 -5.66,7.79 -11.34,7.79 -5.68,0 -8.86,-2.84 -11.34,-7.79 L 95.31,113.03 h -0.35 v 92.13 c 0,6.74 -6.38,10.63 -12.05,10.63 -6.38,0 -11.69,-3.89 -11.69,-10.63 V 81.5 c 0,-7.09 3.9,-14.53 15.59,-14.53 8.86,0 12.4,3.9 16.3,11.69 l 38.62,79.72 h 0.35 l 38.27,-79.72 c 3.89,-7.79 7.44,-11.69 16.29,-11.69 11.69,0 15.59,7.44 15.59,14.53 v 123.66"
         id="path60" /><path
         d="M 141.73,0 C 63.45,0 0,63.46 0,141.73 0,220 63.45,283.46 141.73,283.46 220.01,283.46 283.46,220 283.46,141.73 283.46,63.46 220.01,0 141.73,0 m 0,265.04 c -68.1,0 -123.31,-55.21 -123.31,-123.31 0,-68.1 55.21,-123.3 123.31,-123.3 68.1,0 123.3,55.2 123.3,123.3 0,68.1 -55.2,123.31 -123.3,123.31 m 70.51,-59.89 c 0,6.74 -5.32,10.63 -11.69,10.63 -5.68,0 -12.05,-3.89 -12.05,-10.63 v -92.12 h -0.35 l -35.08,71.57 c -2.48,4.96 -5.66,7.79 -11.34,7.79 -5.68,0 -8.86,-2.84 -11.34,-7.79 L 95.31,113.03 h -0.35 v 92.13 c 0,6.74 -6.38,10.63 -12.05,10.63 -6.38,0 -11.69,-3.89 -11.69,-10.63 V 81.5 c 0,-7.09 3.9,-14.53 15.59,-14.53 8.86,0 12.4,3.9 16.3,11.69 l 38.62,79.72 h 0.35 l 38.27,-79.72 c 3.89,-7.79 7.44,-11.69 16.29,-11.69 11.69,0 15.59,7.44 15.59,14.53 v 123.66"
         id="path61" /></g><g
       aria-label="Jaurès"
       id="text61"
       style="font-weight:bold;font-size:16px;font-family:'Parisine Std';-inkscape-font-specification:'Parisine Std Bold';text-align:end;text-anchor:end;fill:#25303b;stroke-width:9.44882;stroke-linecap:square"
       transform="translate(0,-56.000475)"><path
         d="m 310.5018,143.75269 v -7.28 h -2.496 v 7.072 c 0,1.728 -0.768,2.496 -2.096,2.496 -0.08,0 -0.176,-0.016 -0.256,-0.016 l -0.064,1.856 c 0.192,0.016 0.384,0.016 0.576,0.016 3.232,0 4.336,-2.08 4.336,-4.144 z"
         id="path9608" /><path
         d="m 319.94181,147.72069 -0.128,-1.456 c -0.096,0.032 -0.272,0.08 -0.368,0.08 -0.272,0 -0.304,-0.256 -0.304,-0.56 v -3.936 c 0,-2.464 -1.936,-2.896 -3.136,-2.896 -1.472,0 -2.512,0.272 -3.456,0.88 l 0.784,1.6 c 0.368,-0.32 1.12,-0.784 2.112,-0.784 1.184,0 1.568,0.576 1.568,1.184 v 0.56 c 0,0.288 -0.208,0.304 -0.56,0.304 -1.888,0 -4.32,0.448 -4.32,2.768 0,1.456 1.024,2.544 2.528,2.544 1.168,0 1.824,-0.416 2.528,-1.248 0.128,0.672 0.528,1.168 1.328,1.168 0.528,0 1.088,-0.128 1.424,-0.208 z m -2.944,-2.832 c 0,0.416 -0.112,0.736 -0.368,1.008 -0.288,0.304 -0.704,0.464 -1.2,0.464 -0.624,0 -1.072,-0.448 -1.072,-1.072 0,-1.024 1.184,-1.216 1.968,-1.216 0.192,0 0.432,0 0.672,0.016 z"
         id="path9610" /><path
         d="m 328.46981,147.76869 v -8.544 h -2.24 v 5.264 c 0,0.576 -0.032,0.8 -0.416,1.216 -0.208,0.224 -0.56,0.4 -0.976,0.4 -0.848,0 -1.184,-0.608 -1.184,-1.472 v -5.408 h -2.24 v 5.872 c 0,1.664 0.768,2.944 2.608,2.944 1.072,0 1.792,-0.512 2.368,-1.328 v 1.056 z"
         id="path9612" /><path
         d="m 335.7338,139.17669 c -0.176,-0.064 -0.496,-0.16 -0.816,-0.16 -1.056,0 -1.616,0.672 -2.128,1.488 v -1.28 h -2.016 c 0.016,0.4 0.08,1.424 0.08,2.16 v 6.384 h 2.24 v -5.152 c 0,-0.464 0.016,-0.816 0.32,-1.088 0.208,-0.192 0.464,-0.336 0.944,-0.336 0.304,0 0.624,0.144 0.784,0.224 z"
         id="path9614" /><path
         d="m 343.63779,142.95269 c 0,-1.968 -0.976,-4 -3.616,-4 -2.736,0 -3.952,2.352 -3.952,4.608 0,2.656 1.68,4.48 4.352,4.48 1.248,0 2.384,-0.368 3.04,-0.672 l -0.592,-1.664 c -0.448,0.24 -1.264,0.56 -2.032,0.56 -1.44,0 -2.544,-0.816 -2.544,-2.336 0,-0.016 0,-0.032 0,-0.048 h 5.296 c 0.032,-0.288 0.048,-0.656 0.048,-0.928 z m -2.112,-0.592 h -3.28 c 0,-0.752 0.4,-1.84 1.68,-1.84 1.136,0 1.68,0.944 1.6,1.84 z m -0.624,-3.952 -1.792,-2.48 h -2.56 l 2.624,2.48 z"
         id="path9616" /><path
         d="m 351.07779,145.20869 c 0,-1.424 -0.864,-2.08 -2.08,-2.528 l -0.752,-0.272 c -0.592,-0.208 -1.008,-0.464 -1.008,-0.912 0,-0.384 0.272,-0.848 1.184,-0.848 0.544,0 1.232,0.192 1.728,0.512 l 0.688,-1.648 c -0.448,-0.224 -1.232,-0.56 -2.304,-0.56 -2,0 -3.36,1.28 -3.36,2.896 0,1.248 0.736,1.904 1.84,2.336 l 0.704,0.272 c 0.8,0.304 1.264,0.48 1.264,1.04 0,0.672 -0.72,0.88 -1.312,0.88 -0.672,0 -1.456,-0.256 -2,-0.64 l -0.688,1.648 c 0.48,0.288 1.44,0.656 2.512,0.656 2.24,0 3.584,-1.168 3.584,-2.832 z"
         id="path9618" /></g><a
       id="a66"
       xlink:href="/lines/m02"
       target="_parent"
       transform="translate(34.015985,-183.30707)"><g
         id="g66"
         transform="matrix(0.07332416,0,0,0.07332416,179.52754,258.8976)">
	<path
   class="st0"
   d="M 0,141.7 C 0,63.5 63.5,0 141.7,0 220,0 283.5,63.5 283.5,141.7 283.5,219.9 220,283.5 141.7,283.5 63.5,283.5 0,220 0,141.7"
   id="path65"
   clip-path="url(#SVGID_00000145737393370230384210000000292656057530498699_)"
   style="fill:#0055c8;fill-opacity:1" />
	<path
   class="st1"
   d="M 193.9,216.8 V 191.7 H 132 c 1.9,-8.7 17,-21.9 24.7,-28.9 18.1,-16.4 34.5,-28.5 34.5,-54.3 0,-30.6 -24.9,-46 -51.3,-46 -20.2,0 -33.6,6 -48.1,18.5 l 15.7,20.8 c 3.6,-4 12.8,-13.6 26,-13.6 16.4,0 24.9,10.9 24.9,23.8 0,14.5 -10.8,25.3 -20.8,34.1 -20,17.4 -37.2,33.4 -41.1,50.8 v 19.8 h 97.4 z"
   id="path66"
   clip-path="url(#SVGID_00000145737393370230384210000000292656057530498699_)"
   style="fill:#ffffff;fill-opacity:1" />
</g></a><g
       id="g68"
       transform="matrix(0.07333451,0,0,0.07333451,188.9766,75.590515)"><path
         d="M 141.73,0 C 63.45,0 0,63.46 0,141.73 0,220 63.45,283.46 141.73,283.46 220.01,283.46 283.46,220 283.46,141.73 283.46,63.46 220.01,0 141.73,0 m 0,265.04 c -68.1,0 -123.31,-55.21 -123.31,-123.31 0,-68.1 55.21,-123.3 123.31,-123.3 68.1,0 123.3,55.2 123.3,123.3 0,68.1 -55.2,123.31 -123.3,123.31 m 70.51,-59.89 c 0,6.74 -5.32,10.63 -11.69,10.63 -5.68,0 -12.05,-3.89 -12.05,-10.63 v -92.12 h -0.35 l -35.08,71.57 c -2.48,4.96 -5.66,7.79 -11.34,7.79 -5.68,0 -8.86,-2.84 -11.34,-7.79 L 95.31,113.03 h -0.35 v 92.13 c 0,6.74 -6.38,10.63 -12.05,10.63 -6.38,0 -11.69,-3.89 -11.69,-10.63 V 81.5 c 0,-7.09 3.9,-14.53 15.59,-14.53 8.86,0 12.4,3.9 16.3,11.69 l 38.62,79.72 h 0.35 l 38.27,-79.72 c 3.89,-7.79 7.44,-11.69 16.29,-11.69 11.69,0 15.59,7.44 15.59,14.53 v 123.66"
         id="path67" /><path
         d="M 141.73,0 C 63.45,0 0,63.46 0,141.73 0,220 63.45,283.46 141.73,283.46 220.01,283.46 283.46,220 283.46,141.73 283.46,63.46 220.01,0 141.73,0 m 0,265.04 c -68.1,0 -123.31,-55.21 -123.31,-123.31 0,-68.1 55.21,-123.3 123.31,-123.3 68.1,0 123.3,55.2 123.3,123.3 0,68.1 -55.2,123.31 -123.3,123.31 m 70.51,-59.89 c 0,6.74 -5.32,10.63 -11.69,10.63 -5.68,0 -12.05,-3.89 -12.05,-10.63 v -92.12 h -0.35 l -35.08,71.57 c -2.48,4.96 -5.66,7.79 -11.34,7.79 -5.68,0 -8.86,-2.84 -11.34,-7.79 L 95.31,113.03 h -0.35 v 92.13 c 0,6.74 -6.38,10.63 -12.05,10.63 -6.38,0 -11.69,-3.89 -11.69,-10.63 V 81.5 c 0,-7.09 3.9,-14.53 15.59,-14.53 8.86,0 12.4,3.9 16.3,11.69 l 38.62,79.72 h 0.35 l 38.27,-79.72 c 3.89,-7.79 7.44,-11.69 16.29,-11.69 11.69,0 15.59,7.44 15.59,14.53 v 123.66"
         id="path68" /></g><a
       id="a72"
       xlink:href="/lines/m05"
       target="_parent"
       transform="translate(58.582911,-599.05502)"><g
         id="g72"
         transform="matrix(0.07332416,0,0,0.07332416,179.52754,674.64554)">
	<defs
   id="defs68">
		<rect
   id="rect68"
   width="283.5"
   height="283.5"
   x="0"
   y="0" />
	</defs>
	<clipPath
   id="clipPath68">
		<use
   xlink:href="#SVGID_1_-49"
   style="overflow:visible"
   id="use68" />
	</clipPath>
	<path
   style="fill:#ff5a00"
   d="M 0,141.7 C 0,63.5 63.5,0 141.7,0 220,0 283.5,63.5 283.5,141.7 283.5,219.9 220,283.5 141.7,283.5 63.5,283.5 0,220 0,141.7"
   clip-path="url(#SVGID_00000090272025682513365470000006533262832655656088_)"
   id="path71" />
	<path
   d="m 192.7,168.3 c 0,-22.6 -16.6,-45.7 -57.7,-47.7 -1.5,0 -3.4,-0.2 -4.3,-0.2 l 2.1,-28.5 h 54.1 V 66.8 H 108 l -6,78.1 c 4.9,0 14.9,0.2 23.4,0.2 27.7,0.4 34.9,15.3 34.9,26.2 0,17.7 -14.7,24.7 -26.4,24.7 -11.7,0 -20.2,-3.8 -28.5,-9.6 l -12.1,23.4 c 11.5,7 24.9,10.9 42.3,10.9 34.3,-0.1 57.1,-23.7 57.1,-52.4"
   clip-path="url(#SVGID_00000090272025682513365470000006533262832655656088_)"
   id="path72" />
</g></a><g
       aria-label="Bolivar"
       id="text73"
       style="font-weight:bold;font-size:16px;font-family:'Parisine Std';-inkscape-font-specification:'Parisine Std Bold';fill:#25303b;stroke-width:9.44882;stroke-linecap:square"
       transform="translate(0,-56.000475)"><path
         d="m 314.34189,182.05996 c 0,-1.6 -0.992,-2.528 -2.176,-2.688 v -0.032 c 0.88,-0.16 1.808,-1.04 1.808,-2.208 0,-2.288 -1.984,-2.864 -4.096,-2.864 h -4.288 v 11.296 h 4.112 c 2.144,0 4.64,-0.656 4.64,-3.504 z m -2.816,-4.592 c 0,1.072 -0.864,1.28 -2.176,1.28 h -1.264 v -2.592 h 1.232 c 1.44,0 2.208,0.272 2.208,1.312 z m 0.24,4.528 c 0,1.2 -0.624,1.696 -2.208,1.696 h -1.472 v -3.152 h 1.344 c 1.136,0 2.336,0.208 2.336,1.456 z"
         id="path9621" /><path
         d="m 323.7019,181.30796 c 0,-2.432 -1.248,-4.592 -4.048,-4.592 -2.768,0 -4.128,2.144 -4.128,4.56 0,2.432 1.248,4.592 4.048,4.592 2.768,0 4.128,-2.144 4.128,-4.56 z m -2.336,0.016 c 0,1.2 -0.368,2.784 -1.792,2.784 -1.424,0 -1.712,-1.648 -1.712,-2.848 0,-1.2 0.368,-2.784 1.792,-2.784 1.424,0 1.712,1.648 1.712,2.848 z"
         id="path9623" /><path
         d="m 327.63791,185.56396 v -11.84 h -2.24 v 11.84 z"
         id="path9625" /><path
         d="m 332.43793,174.74796 c 0,-0.688 -0.48,-1.184 -1.248,-1.184 -0.768,0 -1.264,0.496 -1.264,1.184 0,0.688 0.496,1.184 1.264,1.184 0.768,0 1.248,-0.496 1.248,-1.184 z m -0.144,10.816 v -8.544 h -2.24 v 8.544 z"
         id="path9627" /><path
         d="m 341.60592,177.01996 h -2.112 l -1.184,4.528 c -0.176,0.672 -0.4,1.68 -0.464,2.048 h -0.032 c -0.08,-0.336 -0.272,-1.312 -0.448,-2.032 l -1.104,-4.544 h -2.48 l 2.752,8.544 h 2.32 z"
         id="path9629" /><path
         d="m 350.05393,185.51596 -0.128,-1.456 c -0.096,0.032 -0.272,0.08 -0.368,0.08 -0.272,0 -0.304,-0.256 -0.304,-0.56 v -3.936 c 0,-2.464 -1.936,-2.896 -3.136,-2.896 -1.472,0 -2.512,0.272 -3.456,0.88 l 0.784,1.6 c 0.368,-0.32 1.12,-0.784 2.112,-0.784 1.184,0 1.568,0.576 1.568,1.184 v 0.56 c 0,0.288 -0.208,0.304 -0.56,0.304 -1.888,0 -4.32,0.448 -4.32,2.768 0,1.456 1.024,2.544 2.528,2.544 1.168,0 1.824,-0.416 2.528,-1.248 0.128,0.672 0.528,1.168 1.328,1.168 0.528,0 1.088,-0.128 1.424,-0.208 z m -2.944,-2.832 c 0,0.416 -0.112,0.736 -0.368,1.008 -0.288,0.304 -0.704,0.464 -1.2,0.464 -0.624,0 -1.072,-0.448 -1.072,-1.072 0,-1.024 1.184,-1.216 1.968,-1.216 0.192,0 0.432,0 0.672,0.016 z"
         id="path9631" /><path
         d="m 356.54993,176.97196 c -0.176,-0.064 -0.496,-0.16 -0.816,-0.16 -1.056,0 -1.616,0.672 -2.128,1.488 v -1.28 h -2.016 c 0.016,0.4 0.08,1.424 0.08,2.16 v 6.384 h 2.24 v -5.152 c 0,-0.464 0.016,-0.816 0.32,-1.088 0.208,-0.192 0.464,-0.336 0.944,-0.336 0.304,0 0.624,0.144 0.784,0.224 z"
         id="path9633" /></g><a
       id="a62"
       xlink:href="/stations.html?station=Jaures"
       target="_parent"
       transform="translate(-4.0536565e-7,-129.92127)"><g
         id="g62"
         transform="translate(7.1579308e-6,-37.795279)"><circle
           style="fill:#000000;fill-opacity:1;stroke:none;stroke-width:3.13973"
           id="circle61"
           cx="283.46414"
           cy="253.70078"
           r="10.3937" /><circle
           style="fill:#ffffff;fill-opacity:1;stroke:none;stroke-width:2.28344"
           id="circle62"
           cx="283.46414"
           cy="253.70078"
           r="7.5590544" /></g></a><a
       id="a76"
       xlink:href="/stations.html?station=Bolivar"
       target="_parent"
       transform="translate(33.46418,5.6692567)"
       style="fill:#82dc73;fill-opacity:1"><circle
         style="fill:#82dc73;fill-opacity:1;stroke:none;stroke-width:3.13973"
         id="circle75"
         cx="249.99997"
         cy="118.11024"
         r="10.3937" /></a><g
       aria-label="Buttes Chaumont"
       id="text76"
       style="font-weight:bold;font-size:16px;font-family:'Parisine Std';-inkscape-font-specification:'Parisine Std Bold';fill:#25303b;stroke-width:9.44882;stroke-linecap:square"
       transform="translate(0,-56.000475)"><path
         d="m 314.34189,219.85524 c 0,-1.6 -0.992,-2.528 -2.176,-2.688 v -0.032 c 0.88,-0.16 1.808,-1.04 1.808,-2.208 0,-2.288 -1.984,-2.864 -4.096,-2.864 h -4.288 v 11.296 h 4.112 c 2.144,0 4.64,-0.656 4.64,-3.504 z m -2.816,-4.592 c 0,1.072 -0.864,1.28 -2.176,1.28 h -1.264 v -2.592 h 1.232 c 1.44,0 2.208,0.272 2.208,1.312 z m 0.24,4.528 c 0,1.2 -0.624,1.696 -2.208,1.696 h -1.472 v -3.152 h 1.344 c 1.136,0 2.336,0.208 2.336,1.456 z"
         id="path9636" /><path
         d="m 323.1259,223.35924 v -8.544 h -2.24 v 5.264 c 0,0.576 -0.032,0.8 -0.416,1.216 -0.208,0.224 -0.56,0.4 -0.976,0.4 -0.848,0 -1.184,-0.608 -1.184,-1.472 v -5.408 h -2.24 v 5.872 c 0,1.664 0.768,2.944 2.608,2.944 1.072,0 1.792,-0.512 2.368,-1.328 v 1.056 z"
         id="path9638" /><path
         d="m 330.27789,223.40724 -0.224,-1.648 c -0.192,0.064 -0.512,0.176 -0.976,0.176 -0.512,0 -0.976,-0.192 -0.976,-1.04 v -4.32 h 1.952 v -1.6 h -1.952 v -2.448 l -2.24,0.72 v 1.728 h -1.424 v 1.6 h 1.424 v 4.592 c 0,1.648 0.944,2.464 2.464,2.464 0.752,0 1.536,-0.112 1.952,-0.224 z"
         id="path9640" /><path
         d="m 336.5979,223.40724 -0.224,-1.648 c -0.192,0.064 -0.512,0.176 -0.976,0.176 -0.512,0 -0.976,-0.192 -0.976,-1.04 v -4.32 h 1.952 v -1.6 h -1.952 v -2.448 l -2.24,0.72 v 1.728 h -1.424 v 1.6 h 1.424 v 4.592 c 0,1.648 0.944,2.464 2.464,2.464 0.752,0 1.536,-0.112 1.952,-0.224 z"
         id="path9642" /><path
         d="m 345.02991,218.54324 c 0,-1.968 -0.976,-4 -3.616,-4 -2.736,0 -3.952,2.352 -3.952,4.608 0,2.656 1.68,4.48 4.352,4.48 1.248,0 2.384,-0.368 3.04,-0.672 l -0.592,-1.664 c -0.448,0.24 -1.264,0.56 -2.032,0.56 -1.44,0 -2.544,-0.816 -2.544,-2.336 0,-0.016 0,-0.032 0,-0.048 h 5.296 c 0.032,-0.288 0.048,-0.656 0.048,-0.928 z m -2.112,-0.592 h -3.28 c 0,-0.752 0.4,-1.84 1.68,-1.84 1.136,0 1.68,0.944 1.6,1.84 z"
         id="path9644" /><path
         d="m 352.46991,220.79924 c 0,-1.424 -0.864,-2.08 -2.08,-2.528 l -0.752,-0.272 c -0.592,-0.208 -1.008,-0.464 -1.008,-0.912 0,-0.384 0.272,-0.848 1.184,-0.848 0.544,0 1.232,0.192 1.728,0.512 l 0.688,-1.648 c -0.448,-0.224 -1.232,-0.56 -2.304,-0.56 -2,0 -3.36,1.28 -3.36,2.896 0,1.248 0.736,1.904 1.84,2.336 l 0.704,0.272 c 0.8,0.304 1.264,0.48 1.264,1.04 0,0.672 -0.72,0.88 -1.312,0.88 -0.672,0 -1.456,-0.256 -2,-0.64 l -0.688,1.648 c 0.48,0.288 1.44,0.656 2.512,0.656 2.24,0 3.584,-1.168 3.584,-2.832 z"
         id="path9646" /><path
         d="m 367.04592,222.84724 -0.672,-1.936 c -0.56,0.336 -1.36,0.608 -2.256,0.608 -1.632,0 -3.328,-1.2 -3.328,-3.792 0,-2.72 1.408,-3.856 3.136,-3.856 0.72,0 1.552,0.192 2.288,0.608 l 0.816,-2.064 c -0.816,-0.368 -1.84,-0.656 -3.232,-0.656 -3.632,0 -5.6,2.704 -5.6,6.08 0,3.904 2.736,5.792 5.6,5.792 1.152,0 2.384,-0.32 3.248,-0.784 z"
         id="path9648" /><path
         d="m 376.10191,223.35924 v -5.872 c 0,-1.664 -0.752,-2.944 -2.656,-2.944 -1.056,0 -1.824,0.496 -2.416,1.28 v -4.304 h -2.24 v 11.84 h 2.24 v -5.248 c 0,-0.576 0.032,-0.784 0.464,-1.2 0.24,-0.224 0.64,-0.416 1.088,-0.416 0.976,0 1.28,0.592 1.28,1.456 v 5.408 z"
         id="path9650" /><path
         d="m 385.4939,223.31124 -0.128,-1.456 c -0.096,0.032 -0.272,0.08 -0.368,0.08 -0.272,0 -0.304,-0.256 -0.304,-0.56 v -3.936 c 0,-2.464 -1.936,-2.896 -3.136,-2.896 -1.472,0 -2.512,0.272 -3.456,0.88 l 0.784,1.6 c 0.368,-0.32 1.12,-0.784 2.112,-0.784 1.184,0 1.568,0.576 1.568,1.184 v 0.56 c 0,0.288 -0.208,0.304 -0.56,0.304 -1.888,0 -4.32,0.448 -4.32,2.768 0,1.456 1.024,2.544 2.528,2.544 1.168,0 1.824,-0.416 2.528,-1.248 0.128,0.672 0.528,1.168 1.328,1.168 0.528,0 1.088,-0.128 1.424,-0.208 z m -2.944,-2.832 c 0,0.416 -0.112,0.736 -0.368,1.008 -0.288,0.304 -0.704,0.464 -1.2,0.464 -0.624,0 -1.072,-0.448 -1.072,-1.072 0,-1.024 1.184,-1.216 1.968,-1.216 0.192,0 0.432,0 0.672,0.016 z"
         id="path9652" /><path
         d="m 394.0219,223.35924 v -8.544 h -2.24 v 5.264 c 0,0.576 -0.032,0.8 -0.416,1.216 -0.208,0.224 -0.56,0.4 -0.976,0.4 -0.848,0 -1.184,-0.608 -1.184,-1.472 v -5.408 h -2.24 v 5.872 c 0,1.664 0.768,2.944 2.608,2.944 1.072,0 1.792,-0.512 2.368,-1.328 v 1.056 z"
         id="path9654" /><path
         d="m 408.13389,223.35924 v -5.872 c 0,-1.664 -0.736,-2.944 -2.576,-2.944 -1.152,0 -1.888,0.64 -2.48,1.536 -0.416,-1.008 -1.168,-1.536 -2.304,-1.536 -1.136,0 -1.792,0.544 -2.368,1.408 v -1.136 h -2.08 v 8.544 h 2.24 v -5.248 c 0,-0.576 0.032,-0.8 0.416,-1.216 0.208,-0.224 0.56,-0.4 0.976,-0.4 0.848,0 1.152,0.592 1.152,1.456 v 5.408 h 2.24 v -5.248 c 0,-0.544 0.048,-0.8 0.432,-1.216 0.208,-0.224 0.544,-0.4 0.96,-0.4 0.848,0 1.152,0.592 1.152,1.456 v 5.408 z"
         id="path9656" /><path
         d="m 417.95788,219.10324 c 0,-2.432 -1.248,-4.592 -4.048,-4.592 -2.768,0 -4.128,2.144 -4.128,4.56 0,2.432 1.248,4.592 4.048,4.592 2.768,0 4.128,-2.144 4.128,-4.56 z m -2.336,0.016 c 0,1.2 -0.368,2.784 -1.792,2.784 -1.424,0 -1.712,-1.648 -1.712,-2.848 0,-1.2 0.368,-2.784 1.792,-2.784 1.424,0 1.712,1.648 1.712,2.848 z"
         id="path9658" /><path
         d="m 426.96589,223.35924 v -5.872 c 0,-1.664 -0.752,-2.944 -2.656,-2.944 -1.168,0 -1.968,0.576 -2.576,1.488 v -1.216 h -2.08 v 8.544 h 2.24 v -5.248 c 0,-0.576 0.032,-0.784 0.464,-1.2 0.24,-0.224 0.64,-0.416 1.088,-0.416 0.976,0 1.28,0.592 1.28,1.456 v 5.408 z"
         id="path9660" /><path
         d="m 434.06989,223.40724 -0.224,-1.648 c -0.192,0.064 -0.512,0.176 -0.976,0.176 -0.512,0 -0.976,-0.192 -0.976,-1.04 v -4.32 h 1.952 v -1.6 h -1.952 v -2.448 l -2.24,0.72 v 1.728 h -1.424 v 1.6 h 1.424 v 4.592 c 0,1.648 0.944,2.464 2.464,2.464 0.752,0 1.536,-0.112 1.952,-0.224 z"
         id="path9662" /></g><a
       id="a77"
       xlink:href="/stations.html?station=Buttes+Chaumont"
       target="_parent"
       transform="translate(33.46418,43.464528)"
       style="fill:#82dc73;fill-opacity:1"><circle
         style="fill:#82dc73;fill-opacity:1;stroke:none;stroke-width:3.13973"
         id="circle76"
         cx="249.99997"
         cy="118.11024"
         r="10.3937" /></a><g
       aria-label="Botzaris"
       id="text77"
       style="font-weight:bold;font-size:16px;font-family:'Parisine Std';-inkscape-font-specification:'Parisine Std Bold';fill:#25303b;stroke-width:9.44882;stroke-linecap:square"
       transform="translate(0,-56.000475)"><path
         d="m 314.34189,257.65051 c 0,-1.6 -0.992,-2.528 -2.176,-2.688 v -0.032 c 0.88,-0.16 1.808,-1.04 1.808,-2.208 0,-2.288 -1.984,-2.864 -4.096,-2.864 h -4.288 v 11.296 h 4.112 c 2.144,0 4.64,-0.656 4.64,-3.504 z m -2.816,-4.592 c 0,1.072 -0.864,1.28 -2.176,1.28 h -1.264 v -2.592 h 1.232 c 1.44,0 2.208,0.272 2.208,1.312 z m 0.24,4.528 c 0,1.2 -0.624,1.696 -2.208,1.696 h -1.472 v -3.152 h 1.344 c 1.136,0 2.336,0.208 2.336,1.456 z"
         id="path9665" /><path
         d="m 323.7019,256.89851 c 0,-2.432 -1.248,-4.592 -4.048,-4.592 -2.768,0 -4.128,2.144 -4.128,4.56 0,2.432 1.248,4.592 4.048,4.592 2.768,0 4.128,-2.144 4.128,-4.56 z m -2.336,0.016 c 0,1.2 -0.368,2.784 -1.792,2.784 -1.424,0 -1.712,-1.648 -1.712,-2.848 0,-1.2 0.368,-2.784 1.792,-2.784 1.424,0 1.712,1.648 1.712,2.848 z"
         id="path9667" /><path
         d="m 330.24591,261.20251 -0.224,-1.648 c -0.192,0.064 -0.512,0.176 -0.976,0.176 -0.512,0 -0.976,-0.192 -0.976,-1.04 v -4.32 h 1.952 v -1.6 h -1.952 v -2.448 l -2.24,0.72 v 1.728 h -1.424 v 1.6 h 1.424 v 4.592 c 0,1.648 0.944,2.464 2.464,2.464 0.752,0 1.536,-0.112 1.952,-0.224 z"
         id="path9669" /><path
         d="m 337.78192,261.15451 v -1.696 h -3.904 l 3.696,-4.96 v -1.888 h -6.16 v 1.696 h 3.616 l -3.824,5.072 v 1.776 z"
         id="path9671" /><path
         d="m 346.62992,261.10651 -0.128,-1.456 c -0.096,0.032 -0.272,0.08 -0.368,0.08 -0.272,0 -0.304,-0.256 -0.304,-0.56 v -3.936 c 0,-2.464 -1.936,-2.896 -3.136,-2.896 -1.472,0 -2.512,0.272 -3.456,0.88 l 0.784,1.6 c 0.368,-0.32 1.12,-0.784 2.112,-0.784 1.184,0 1.568,0.576 1.568,1.184 v 0.56 c 0,0.288 -0.208,0.304 -0.56,0.304 -1.888,0 -4.32,0.448 -4.32,2.768 0,1.456 1.024,2.544 2.528,2.544 1.168,0 1.824,-0.416 2.528,-1.248 0.128,0.672 0.528,1.168 1.328,1.168 0.528,0 1.088,-0.128 1.424,-0.208 z m -2.944,-2.832 c 0,0.416 -0.112,0.736 -0.368,1.008 -0.288,0.304 -0.704,0.464 -1.2,0.464 -0.624,0 -1.072,-0.448 -1.072,-1.072 0,-1.024 1.184,-1.216 1.968,-1.216 0.192,0 0.432,0 0.672,0.016 z"
         id="path9673" /><path
         d="m 353.12592,252.56251 c -0.176,-0.064 -0.496,-0.16 -0.816,-0.16 -1.056,0 -1.616,0.672 -2.128,1.488 v -1.28 h -2.016 c 0.016,0.4 0.08,1.424 0.08,2.16 v 6.384 h 2.24 v -5.152 c 0,-0.464 0.016,-0.816 0.32,-1.088 0.208,-0.192 0.464,-0.336 0.944,-0.336 0.304,0 0.624,0.144 0.784,0.224 z"
         id="path9675" /><path
         d="m 357.02991,250.33851 c 0,-0.688 -0.48,-1.184 -1.248,-1.184 -0.768,0 -1.264,0.496 -1.264,1.184 0,0.688 0.496,1.184 1.264,1.184 0.768,0 1.248,-0.496 1.248,-1.184 z m -0.144,10.816 v -8.544 h -2.24 v 8.544 z"
         id="path9677" /><path
         d="m 364.8859,258.59451 c 0,-1.424 -0.864,-2.08 -2.08,-2.528 l -0.752,-0.272 c -0.592,-0.208 -1.008,-0.464 -1.008,-0.912 0,-0.384 0.272,-0.848 1.184,-0.848 0.544,0 1.232,0.192 1.728,0.512 l 0.688,-1.648 c -0.448,-0.224 -1.232,-0.56 -2.304,-0.56 -2,0 -3.36,1.28 -3.36,2.896 0,1.248 0.736,1.904 1.84,2.336 l 0.704,0.272 c 0.8,0.304 1.264,0.48 1.264,1.04 0,0.672 -0.72,0.88 -1.312,0.88 -0.672,0 -1.456,-0.256 -2,-0.64 l -0.688,1.648 c 0.48,0.288 1.44,0.656 2.512,0.656 2.24,0 3.584,-1.168 3.584,-2.832 z"
         id="path9679" /></g><a
       id="a78"
       xlink:href="/stations.html?station=Botzaris"
       target="_parent"
       transform="translate(33.46418,81.259795)"
       style="fill:#82dc73;fill-opacity:1"><circle
         style="fill:#82dc73;fill-opacity:1;stroke:none;stroke-width:3.13973"
         id="circle77"
         cx="249.99997"
         cy="118.11024"
         r="10.3937" /></a><path
       style="display:inline;fill:none;fill-opacity:1;stroke:#82dc73;stroke-width:9.44882;stroke-dasharray:none;stroke-dashoffset:0;stroke-opacity:1"
       d="m 283.46557,215.3418 c 0,0 0.15065,39.35207 -5.8179,50.96174 -16.88116,32.83629 -94.79636,15.92376 -95.11052,57.0865 l -0.12975,16.98697"
       id="path5483"
       sodipodi:nodetypes="cssc" /><path
       style="display:inline;fill:none;fill-opacity:1;stroke:#82dc73;stroke-width:9.44882;stroke-dasharray:none;stroke-dashoffset:0;stroke-opacity:1"
       d="m 283.46489,215.3418 c 0,0 -0.15065,39.35207 5.8179,50.96174 16.88116,32.83629 94.79636,15.92376 95.11052,57.0865 l 0.12975,16.98697"
       id="path78"
       sodipodi:nodetypes="cssc" /><g
       aria-label="Danube"
       id="text78"
       style="font-weight:bold;font-size:16px;font-family:'Parisine Std';-inkscape-font-specification:'Parisine Std Bold';fill:#25303b;stroke-width:9.44882;stroke-linecap:square"
       transform="translate(0,-57.102544)"><path
         d="m 416.83665,397.25051 c 0,-4.656 -3.552,-5.392 -6.848,-5.392 h -3.296 v 11.296 h 3.184 c 3.456,0 6.96,-0.96 6.96,-5.904 z m -2.576,0.16 c 0,2.96 -1.664,3.792 -3.84,3.792 h -1.232 v -7.376 h 1.152 c 1.536,0 3.92,0.416 3.92,3.584 z"
         id="path9936" /><path
         d="m 425.76465,403.10651 -0.128,-1.456 c -0.096,0.032 -0.272,0.08 -0.368,0.08 -0.272,0 -0.304,-0.256 -0.304,-0.56 v -3.936 c 0,-2.464 -1.936,-2.896 -3.136,-2.896 -1.472,0 -2.512,0.272 -3.456,0.88 l 0.784,1.6 c 0.368,-0.32 1.12,-0.784 2.112,-0.784 1.184,0 1.568,0.576 1.568,1.184 v 0.56 c 0,0.288 -0.208,0.304 -0.56,0.304 -1.888,0 -4.32,0.448 -4.32,2.768 0,1.456 1.024,2.544 2.528,2.544 1.168,0 1.824,-0.416 2.528,-1.248 0.128,0.672 0.528,1.168 1.328,1.168 0.528,0 1.088,-0.128 1.424,-0.208 z m -2.944,-2.832 c 0,0.416 -0.112,0.736 -0.368,1.008 -0.288,0.304 -0.704,0.464 -1.2,0.464 -0.624,0 -1.072,-0.448 -1.072,-1.072 0,-1.024 1.184,-1.216 1.968,-1.216 0.192,0 0.432,0 0.672,0.016 z"
         id="path9938" /><path
         d="m 434.61265,403.15451 v -5.872 c 0,-1.664 -0.752,-2.944 -2.656,-2.944 -1.168,0 -1.968,0.576 -2.576,1.488 v -1.216 h -2.08 v 8.544 h 2.24 v -5.248 c 0,-0.576 0.032,-0.784 0.464,-1.2 0.24,-0.224 0.64,-0.416 1.088,-0.416 0.976,0 1.28,0.592 1.28,1.456 v 5.408 z"
         id="path9940" /><path
         d="m 443.86064,403.15451 v -8.544 h -2.24 v 5.264 c 0,0.576 -0.032,0.8 -0.416,1.216 -0.208,0.224 -0.56,0.4 -0.976,0.4 -0.848,0 -1.184,-0.608 -1.184,-1.472 v -5.408 h -2.24 v 5.872 c 0,1.664 0.768,2.944 2.608,2.944 1.072,0 1.792,-0.512 2.368,-1.328 v 1.056 z"
         id="path9942" /><path
         d="m 453.90863,398.78651 c 0,-2.064 -0.928,-4.448 -3.168,-4.448 -1.088,0 -1.744,0.56 -2.32,1.392 v -4.416 h -2.256 v 11.84 h 2.176 v -0.384 c 0.432,0.4 1.184,0.656 1.824,0.656 2.736,0 3.744,-2.72 3.744,-4.64 z m -2.336,0.336 c 0,1.168 -0.352,2.72 -1.792,2.72 -1.024,0 -1.376,-0.528 -1.376,-1.12 v -2.896 c 0,-0.496 0.048,-0.736 0.432,-1.104 0.24,-0.24 0.592,-0.432 1.04,-0.432 1.424,0 1.696,1.68 1.696,2.832 z"
         id="path9944" /><path
         d="m 462.85263,398.33851 c 0,-1.968 -0.976,-4 -3.616,-4 -2.736,0 -3.952,2.352 -3.952,4.608 0,2.656 1.68,4.48 4.352,4.48 1.248,0 2.384,-0.368 3.04,-0.672 l -0.592,-1.664 c -0.448,0.24 -1.264,0.56 -2.032,0.56 -1.44,0 -2.544,-0.816 -2.544,-2.336 0,-0.016 0,-0.032 0,-0.048 h 5.296 c 0.032,-0.288 0.048,-0.656 0.048,-0.928 z m -2.112,-0.592 h -3.28 c 0,-0.752 0.4,-1.84 1.68,-1.84 1.136,0 1.68,0.944 1.6,1.84 z"
         id="path9946" /></g><path
       style="fill:none;fill-opacity:1;stroke:#82dc73;stroke-width:9.44882;stroke-dasharray:none;stroke-opacity:1"
       d="m 384.4346,328.60462 v 28.72436"
       id="path81" /><path
       style="fill:none;fill-opacity:1;stroke:#82dc73;stroke-width:9.44882;stroke-dasharray:none;stroke-opacity:1"
       d="m 182.49447,328.60462 v 33.051"
       id="path82" /><a
       id="a79"
       xlink:href="/stations.html?station=Danube"
       target="_parent"
       transform="translate(134.56691,222.15773)"
       style="fill:#82dc73;fill-opacity:1"><circle
         style="fill:#82dc73;fill-opacity:1;stroke:none;stroke-width:3.13973"
         id="circle78"
         cx="249.99997"
         cy="118.11024"
         r="10.3937" /></a><g
       aria-label="Place des Fêtes"
       id="text81"
       style="font-weight:bold;font-size:16px;font-family:'Parisine Std';-inkscape-font-specification:'Parisine Std Bold';text-align:end;text-anchor:end;fill:#25303b;stroke-width:9.44882;stroke-linecap:square"
       transform="translate(0,-57.102532)"><path
         d="m 56.359783,395.36251 c 0,-2.8 -2.24,-3.504 -4.848,-3.504 h -3.472 v 11.296 h 2.496 v -3.968 h 1.152 c 1.936,0 4.672,-0.544 4.672,-3.824 z m -2.528,0.16 c 0,1.456 -1.216,1.744 -2.144,1.744 h -1.152 v -3.472 h 1.12 c 0.832,0 2.176,0.192 2.176,1.728 z"
         id="path9793" /><path
         d="m 60.231783,403.15451 v -11.84 h -2.24 v 11.84 z"
         id="path9795" /><path
         d="m 69.655798,403.10651 -0.128,-1.456 c -0.096,0.032 -0.272,0.08 -0.368,0.08 -0.272,0 -0.304,-0.256 -0.304,-0.56 v -3.936 c 0,-2.464 -1.936,-2.896 -3.136,-2.896 -1.472,0 -2.512,0.272 -3.456,0.88 l 0.784,1.6 c 0.368,-0.32 1.12,-0.784 2.112,-0.784 1.184,0 1.568,0.576 1.568,1.184 v 0.56 c 0,0.288 -0.208,0.304 -0.56,0.304 -1.888,0 -4.32,0.448 -4.32,2.768 0,1.456 1.024,2.544 2.528,2.544 1.168,0 1.824,-0.416 2.528,-1.248 0.128,0.672 0.528,1.168 1.328,1.168 0.528,0 1.088,-0.128 1.424,-0.208 z m -2.944,-2.832 c 0,0.416 -0.112,0.736 -0.368,1.008 -0.288,0.304 -0.704,0.464 -1.2,0.464 -0.624,0 -1.072,-0.448 -1.072,-1.072 0,-1.024 1.184,-1.216 1.968,-1.216 0.192,0 0.432,0 0.672,0.016 z"
         id="path9797" /><path
         d="m 77.303795,402.72251 -0.64,-1.664 c -0.384,0.24 -1.04,0.512 -1.68,0.512 -1.008,0 -2.064,-0.976 -2.064,-2.624 0,-1.504 0.64,-2.704 1.936,-2.704 0.736,0 1.376,0.384 1.664,0.576 l 0.8,-1.872 c -0.56,-0.304 -1.456,-0.608 -2.608,-0.608 -2.896,0 -4.128,2.32 -4.128,4.656 0,2.496 1.504,4.432 4.128,4.432 1.04,0 2.144,-0.368 2.592,-0.704 z"
         id="path9799" /><path
         d="m 85.799805,398.33851 c 0,-1.968 -0.976,-4 -3.616,-4 -2.736,0 -3.952,2.352 -3.952,4.608 0,2.656 1.68,4.48 4.352,4.48 1.248,0 2.384,-0.368 3.04,-0.672 l -0.592,-1.664 c -0.448,0.24 -1.264,0.56 -2.032,0.56 -1.44,0 -2.544,-0.816 -2.544,-2.336 0,-0.016 0,-0.032 0,-0.048 h 5.296 c 0.032,-0.288 0.048,-0.656 0.048,-0.928 z m -2.112,-0.592 h -3.28 c 0,-0.752 0.4,-1.84 1.68,-1.84 1.136,0 1.68,0.944 1.6,1.84 z"
         id="path9801" /><path
         d="m 99.335821,403.15451 v -11.84 h -2.256 v 3.632 c -0.416,-0.4 -1.088,-0.608 -1.744,-0.608 -2.736,0 -3.744,2.448 -3.744,4.448 0,2 0.88,4.64 3.28,4.64 1.168,0 1.792,-0.624 2.384,-1.504 v 1.232 z m -2.24,-3.2 c 0,0.448 -0.048,0.752 -0.4,1.104 -0.224,0.208 -0.576,0.432 -1.024,0.432 -1.488,0 -1.744,-1.84 -1.744,-2.992 0,-1.216 0.336,-2.544 1.712,-2.544 1.088,0 1.456,0.464 1.456,1.104 z"
         id="path9803" /><path
         d="m 108.66382,398.33851 c 0,-1.968 -0.976,-4 -3.616,-4 -2.736,0 -3.952,2.352 -3.952,4.608 0,2.656 1.68,4.48 4.352,4.48 1.248,0 2.384,-0.368 3.04,-0.672 l -0.592,-1.664 c -0.448,0.24 -1.264,0.56 -2.032,0.56 -1.44,0 -2.544,-0.816 -2.544,-2.336 0,-0.016 0,-0.032 0,-0.048 h 5.296 c 0.032,-0.288 0.048,-0.656 0.048,-0.928 z m -2.112,-0.592 h -3.28 c 0,-0.752 0.4,-1.84 1.68,-1.84 1.136,0 1.68,0.944 1.6,1.84 z"
         id="path9805" /><path
         d="m 116.10382,400.59451 c 0,-1.424 -0.864,-2.08 -2.08,-2.528 l -0.752,-0.272 c -0.592,-0.208 -1.008,-0.464 -1.008,-0.912 0,-0.384 0.272,-0.848 1.184,-0.848 0.544,0 1.232,0.192 1.728,0.512 l 0.688,-1.648 c -0.448,-0.224 -1.232,-0.56 -2.304,-0.56 -2,0 -3.36,1.28 -3.36,2.896 0,1.248 0.736,1.904 1.84,2.336 l 0.704,0.272 c 0.8,0.304 1.264,0.48 1.264,1.04 0,0.672 -0.72,0.88 -1.312,0.88 -0.672,0 -1.456,-0.256 -2,-0.64 l -0.688,1.648 c 0.48,0.288 1.44,0.656 2.512,0.656 2.24,0 3.584,-1.168 3.584,-2.832 z"
         id="path9807" /><path
         d="m 129.57583,393.90651 v -2.048 h -7.072 v 11.296 h 2.496 v -4.688 h 4.416 v -2.016 h -4.416 v -2.544 z"
         id="path9809" /><path
         d="m 138.08783,398.33851 c 0,-1.968 -0.976,-4 -3.616,-4 -2.736,0 -3.952,2.352 -3.952,4.608 0,2.656 1.68,4.48 4.352,4.48 1.248,0 2.384,-0.368 3.04,-0.672 l -0.592,-1.664 c -0.448,0.24 -1.264,0.56 -2.032,0.56 -1.44,0 -2.544,-0.816 -2.544,-2.336 0,-0.016 0,-0.032 0,-0.048 h 5.296 c 0.032,-0.288 0.048,-0.656 0.048,-0.928 z m -2.112,-0.592 h -3.28 c 0,-0.752 0.4,-1.84 1.68,-1.84 1.136,0 1.68,0.944 1.6,1.84 z m 1.456,-3.952 -1.872,-2.48 h -2.208 l -1.872,2.48 h 1.728 l 1.232,-1.264 1.264,1.264 z"
         id="path9811" /><path
         d="m 144.85583,403.20251 -0.224,-1.648 c -0.192,0.064 -0.512,0.176 -0.976,0.176 -0.512,0 -0.976,-0.192 -0.976,-1.04 v -4.32 h 1.952 v -1.6 h -1.952 v -2.448 l -2.24,0.72 v 1.728 h -1.424 v 1.6 h 1.424 v 4.592 c 0,1.648 0.944,2.464 2.464,2.464 0.752,0 1.536,-0.112 1.952,-0.224 z"
         id="path9813" /><path
         d="m 153.28784,398.33851 c 0,-1.968 -0.976,-4 -3.616,-4 -2.736,0 -3.952,2.352 -3.952,4.608 0,2.656 1.68,4.48 4.352,4.48 1.248,0 2.384,-0.368 3.04,-0.672 l -0.592,-1.664 c -0.448,0.24 -1.264,0.56 -2.032,0.56 -1.44,0 -2.544,-0.816 -2.544,-2.336 0,-0.016 0,-0.032 0,-0.048 h 5.296 c 0.032,-0.288 0.048,-0.656 0.048,-0.928 z m -2.112,-0.592 h -3.28 c 0,-0.752 0.4,-1.84 1.68,-1.84 1.136,0 1.68,0.944 1.6,1.84 z"
         id="path9815" /><path
         d="m 160.72785,400.59451 c 0,-1.424 -0.864,-2.08 -2.08,-2.528 l -0.752,-0.272 c -0.592,-0.208 -1.008,-0.464 -1.008,-0.912 0,-0.384 0.272,-0.848 1.184,-0.848 0.544,0 1.232,0.192 1.728,0.512 l 0.688,-1.648 c -0.448,-0.224 -1.232,-0.56 -2.304,-0.56 -2,0 -3.36,1.28 -3.36,2.896 0,1.248 0.736,1.904 1.84,2.336 l 0.704,0.272 c 0.8,0.304 1.264,0.48 1.264,1.04 0,0.672 -0.72,0.88 -1.312,0.88 -0.672,0 -1.456,-0.256 -2,-0.64 l -0.688,1.648 c 0.48,0.288 1.44,0.656 2.512,0.656 2.24,0 3.584,-1.168 3.584,-2.832 z"
         id="path9817" /></g><a
       id="a114"
       xlink:href="/lines/m11"
       target="_parent"
       transform="translate(27.401567,-269.18077)"><g
         id="g114"
         transform="matrix(0.07332416,0,0,0.07332416,204.09446,599.05504)">
	<path
   class="st0"
   d="M 0,141.7 C 0,63.5 63.4,0 141.7,0 220,0 283.5,63.5 283.5,141.7 283.5,219.9 220,283.5 141.7,283.5 63.4,283.5 0,220 0,141.7"
   id="path86"
   clip-path="url(#SVGID_00000145737393370230384210000000292656057530498699_)"
   style="fill:#6e491e;fill-opacity:1" />
	<path
   class="st1"
   d="m 89.9,216.6 v -118 c -9.2,7.2 -23.6,13.8 -33.6,18.7 L 46.1,94.3 C 61.9,87.7 80.8,77.7 95.7,66.4 h 26.2 v 150.2 z m 125.5,0 V 66.4 h -26.2 c -14.9,11.3 -33.8,21.3 -49.6,27.9 l 10.2,23 c 10,-4.9 24.5,-11.5 33.6,-18.7 v 118.1 h 32 z"
   id="path113"
   clip-path="url(#SVGID_00000145737393370230384210000000292656057530498699_)"
   style="fill:#ffffff;fill-opacity:1" />
</g></a><g
       id="g115"
       transform="matrix(0.07333451,0,0,0.07333451,206.92911,329.87427)"><path
         d="M 141.73,0 C 63.45,0 0,63.46 0,141.73 0,220 63.45,283.46 141.73,283.46 220.01,283.46 283.46,220 283.46,141.73 283.46,63.46 220.01,0 141.73,0 m 0,265.04 c -68.1,0 -123.31,-55.21 -123.31,-123.31 0,-68.1 55.21,-123.3 123.31,-123.3 68.1,0 123.3,55.2 123.3,123.3 0,68.1 -55.2,123.31 -123.3,123.31 m 70.51,-59.89 c 0,6.74 -5.32,10.63 -11.69,10.63 -5.68,0 -12.05,-3.89 -12.05,-10.63 v -92.12 h -0.35 l -35.08,71.57 c -2.48,4.96 -5.66,7.79 -11.34,7.79 -5.68,0 -8.86,-2.84 -11.34,-7.79 L 95.31,113.03 h -0.35 v 92.13 c 0,6.74 -6.38,10.63 -12.05,10.63 -6.38,0 -11.69,-3.89 -11.69,-10.63 V 81.5 c 0,-7.09 3.9,-14.53 15.59,-14.53 8.86,0 12.4,3.9 16.3,11.69 l 38.62,79.72 h 0.35 l 38.27,-79.72 c 3.89,-7.79 7.44,-11.69 16.29,-11.69 11.69,0 15.59,7.44 15.59,14.53 v 123.66"
         id="path114" /><path
         d="M 141.73,0 C 63.45,0 0,63.46 0,141.73 0,220 63.45,283.46 141.73,283.46 220.01,283.46 283.46,220 283.46,141.73 283.46,63.46 220.01,0 141.73,0 m 0,265.04 c -68.1,0 -123.31,-55.21 -123.31,-123.31 0,-68.1 55.21,-123.3 123.31,-123.3 68.1,0 123.3,55.2 123.3,123.3 0,68.1 -55.2,123.31 -123.3,123.31 m 70.51,-59.89 c 0,6.74 -5.32,10.63 -11.69,10.63 -5.68,0 -12.05,-3.89 -12.05,-10.63 v -92.12 h -0.35 l -35.08,71.57 c -2.48,4.96 -5.66,7.79 -11.34,7.79 -5.68,0 -8.86,-2.84 -11.34,-7.79 L 95.31,113.03 h -0.35 v 92.13 c 0,6.74 -6.38,10.63 -12.05,10.63 -6.38,0 -11.69,-3.89 -11.69,-10.63 V 81.5 c 0,-7.09 3.9,-14.53 15.59,-14.53 8.86,0 12.4,3.9 16.3,11.69 l 38.62,79.72 h 0.35 l 38.27,-79.72 c 3.89,-7.79 7.44,-11.69 16.29,-11.69 11.69,0 15.59,7.44 15.59,14.53 v 123.66"
         id="path115" /></g><path
       style="display:inline;fill:#25303b;stroke:#25303b;stroke-width:1.88976;stroke-linecap:round;stroke-dasharray:none;stroke-dashoffset:0;stroke-opacity:1"
       d="m 195.20078,340.26797 h 9.48359"
       id="path15695" /><a
       id="a86"
       xlink:href="/stations.html?station=Place+des+Fetes"
       target="_parent"
       transform="translate(-101.10197,124.36247)"><g
         id="g86"
         transform="translate(7.1579308e-6,-37.795279)"><circle
           style="fill:#000000;fill-opacity:1;stroke:none;stroke-width:3.13973"
           id="circle82"
           cx="283.46414"
           cy="253.70078"
           r="10.3937" /><circle
           style="fill:#ffffff;fill-opacity:1;stroke:none;stroke-width:2.28344"
           id="circle85"
           cx="283.46414"
           cy="253.70078"
           r="7.5590544" /></g></a><g
       aria-label="6"
       id="text15446"
       style="font-size:13.3333px;font-family:'Parisine Std';-inkscape-font-specification:'Parisine Std';display:inline;fill:#25303b;stroke-width:9.44882"
       transform="translate(0,-56.000475)"><path
         d="m 300.61128,121.32776 c 0,-1.73332 -1.2,-2.78666 -2.82666,-2.78666 -1.01333,0 -1.72,0.38667 -2.18666,0.82667 0.08,-1.97333 1.01333,-3.63999 2.85332,-3.63999 0.48,0 0.93333,0.12 1.22667,0.24 l 0.25333,-1.18667 c -0.4,-0.13333 -0.86667,-0.2 -1.36,-0.2 -3.05332,0 -4.31999,2.66666 -4.31999,5.67999 0,2.29333 0.81333,4.21332 3.27999,4.21332 1.82667,0 3.08,-1.35999 3.08,-3.14666 z m -1.30667,0.14667 c 0,1.01333 -0.70666,1.89333 -1.81333,1.89333 -1.33333,0 -1.90666,-1.17333 -1.90666,-2.28 0,-0.25333 0,-0.51999 0.10667,-0.67999 0.24,-0.33334 0.84,-0.76 1.73333,-0.76 1.14666,0 1.87999,0.76 1.87999,1.82666 z"
         id="path30869" /></g><g
       aria-label="3"
       id="text15470"
       style="font-size:13.3333px;font-family:'Parisine Std';-inkscape-font-specification:'Parisine Std';display:inline;fill:#25303b;stroke-width:9.44882"
       transform="translate(0,-56.000475)"><path
         d="m 300.23796,162.81567 c 0,-1.29333 -0.8,-2.12 -1.89333,-2.33333 v -0.0267 c 1,-0.36 1.58666,-1.14666 1.58666,-2.13333 0,-1.33333 -1.10666,-2.38666 -2.81333,-2.38666 -1.11999,0 -1.95999,0.33334 -2.67999,0.98667 l 0.56,0.99999 c 0.37333,-0.42666 0.98666,-0.82666 1.86666,-0.82666 1.05333,0 1.70666,0.62667 1.70666,1.42666 0,0.90667 -0.81333,1.46667 -1.83999,1.46667 h -0.96 v 1.17333 h 0.94667 c 1.10666,0 2.13332,0.45333 2.13332,1.66666 0,1.06666 -0.83999,1.83999 -2.11999,1.83999 -0.81333,0 -1.48,-0.34666 -1.90666,-0.77333 l -0.57334,1.05333 c 0.58667,0.52 1.34667,0.88 2.54666,0.88 2.01333,0 3.44,-1.30666 3.44,-3.01332 z"
         id="path30872" /></g><g
       aria-label="11"
       id="text16028"
       style="font-size:13.3333px;font-family:'Parisine Std';-inkscape-font-specification:'Parisine Std';display:inline;fill:#25303b;stroke-width:9.44882"
       transform="translate(0,-56.000475)"><path
         d="m 298.25131,203.39716 v -9.41331 h -1.14667 c -0.87999,0.65333 -1.93333,1.22666 -2.85332,1.62666 l 0.45333,1.08 c 0.69333,-0.32 1.54666,-0.74667 2.17333,-1.21333 v 7.91998 z"
         id="path30875" /><path
         d="m 305.71795,203.39716 v -9.41331 h -1.14667 c -0.87999,0.65333 -1.93333,1.22666 -2.85332,1.62666 l 0.45333,1.08 c 0.69333,-0.32 1.54666,-0.74667 2.17333,-1.21333 v 7.91998 z"
         id="path30877" /></g><g
       aria-label="8"
       id="text16032"
       style="font-size:13.3333px;font-family:'Parisine Std';-inkscape-font-specification:'Parisine Std';display:inline;fill:#25303b;stroke-width:9.44882"
       transform="translate(0,-56.000475)"><path
         d="m 300.45128,238.64566 c 0,-1.29333 -0.77333,-2.03999 -1.89333,-2.54666 1,-0.56 1.62667,-1.26666 1.62667,-2.29333 0,-1.54666 -1.29333,-2.30666 -2.78666,-2.30666 -1.53333,0 -2.88,0.97333 -2.88,2.50666 0,1.05333 0.68,1.69333 1.61333,2.21333 -1.02666,0.52 -1.87999,1.30666 -1.87999,2.62666 0,1.48 1.21333,2.59999 3.05332,2.59999 1.78667,0 3.14666,-1.06666 3.14666,-2.79999 z m -1.50666,-4.75999 c 0,0.77333 -0.61333,1.37333 -1.44,1.74667 -0.87999,-0.37334 -1.70666,-0.88 -1.70666,-1.76 0,-0.70666 0.49333,-1.33333 1.58666,-1.33333 0.90667,0 1.56,0.50667 1.56,1.34666 z m 0.16,4.85332 c 0,0.94667 -0.66667,1.65333 -1.77333,1.65333 -1.04,0 -1.77333,-0.71999 -1.77333,-1.67999 0,-0.94667 0.78667,-1.64 1.64,-2 1.06666,0.46667 1.90666,1.05333 1.90666,2.02666 z"
         id="path30880" /></g><g
       aria-label="8"
       id="text16580"
       style="font-size:13.3333px;font-family:'Parisine Std';-inkscape-font-specification:'Parisine Std';display:inline;fill:#25303b;stroke-width:9.44882"
       transform="translate(0,-56.000475)"><path
         d="m 228.85904,333.39145 c 0,-1.29333 -0.77333,-2.03999 -1.89332,-2.54666 0.99999,-0.56 1.62666,-1.26666 1.62666,-2.29333 0,-1.54666 -1.29333,-2.30666 -2.78666,-2.30666 -1.53333,0 -2.87999,0.97333 -2.87999,2.50666 0,1.05333 0.67999,1.69333 1.61332,2.21333 -1.02666,0.52 -1.87999,1.30666 -1.87999,2.62666 0,1.48 1.21333,2.59999 3.05333,2.59999 1.78666,0 3.14665,-1.06666 3.14665,-2.79999 z m -1.50666,-4.75999 c 0,0.77333 -0.61333,1.37333 -1.44,1.74666 -0.87999,-0.37333 -1.70666,-0.87999 -1.70666,-1.75999 0,-0.70667 0.49333,-1.33333 1.58666,-1.33333 0.90667,0 1.56,0.50666 1.56,1.34666 z m 0.16,4.85332 c 0,0.94667 -0.66666,1.65333 -1.77333,1.65333 -1.04,0 -1.77333,-0.72 -1.77333,-1.67999 0,-0.94667 0.78667,-1.64 1.64,-2 1.06666,0.46667 1.90666,1.05333 1.90666,2.02666 z"
         id="path30886" /></g><g
       aria-label="6"
       id="text16584"
       style="font-size:13.3333px;font-family:'Parisine Std';-inkscape-font-specification:'Parisine Std';display:inline;fill:#25303b;stroke-width:9.44882"
       transform="translate(0,-56.000475)"><path
         d="m 347.04569,333.01812 c 0,-1.73333 -1.19999,-2.78666 -2.82665,-2.78666 -1.01334,0 -1.72,0.38666 -2.18667,0.82666 0.08,-1.97333 1.01333,-3.63999 2.85333,-3.63999 0.48,0 0.93333,0.12 1.22666,0.24 l 0.25334,-1.18666 c -0.4,-0.13334 -0.86667,-0.2 -1.36,-0.2 -3.05333,0 -4.31999,2.66666 -4.31999,5.67998 0,2.29333 0.81333,4.21333 3.27999,4.21333 1.82666,0 3.07999,-1.36 3.07999,-3.14666 z m -1.30666,0.14666 c 0,1.01333 -0.70666,1.89333 -1.81333,1.89333 -1.33333,0 -1.90666,-1.17333 -1.90666,-2.27999 0,-0.25333 0,-0.52 0.10667,-0.68 0.24,-0.33333 0.84,-0.76 1.73333,-0.76 1.14666,0 1.87999,0.76 1.87999,1.82666 z"
         id="path30883" /></g><g
       aria-label="6"
       id="text27150"
       style="font-size:13.3333px;font-family:'Parisine Std';-inkscape-font-specification:'Parisine Std';display:inline;fill:#25303b;stroke-width:9.44882"
       transform="translate(118.02665,-141.54872)"><path
         d="m 229.01904,557.01812 c 0,-1.73333 -1.2,-2.78666 -2.82666,-2.78666 -1.01333,0 -1.72,0.38666 -2.18666,0.82666 0.08,-1.97333 1.01333,-3.63999 2.85332,-3.63999 0.48,0 0.93333,0.12 1.22667,0.24 l 0.25333,-1.18666 c -0.4,-0.13334 -0.86667,-0.2 -1.36,-0.2 -3.05332,0 -4.31999,2.66666 -4.31999,5.67998 0,2.29333 0.81334,4.21333 3.28,4.21333 1.82666,0 3.07999,-1.36 3.07999,-3.14666 z m -1.30667,0.14666 c 0,1.01333 -0.70666,1.89333 -1.81332,1.89333 -1.33333,0 -1.90667,-1.17333 -1.90667,-2.27999 0,-0.25333 0,-0.52 0.10667,-0.68 0.24,-0.33333 0.84,-0.76 1.73333,-0.76 1.14666,0 1.87999,0.76 1.87999,1.82666 z"
         id="path30900" /></g><path
       sodipodi:type="star"
       style="fill:#82dc73;fill-opacity:1;stroke-width:1.88976;stroke-linecap:butt;stroke-dasharray:none"
       id="path31633"
       inkscape:flatsided="true"
       sodipodi:sides="3"
       sodipodi:cx="167.8801"
       sodipodi:cy="306.39206"
       sodipodi:r1="15.369431"
       sodipodi:r2="7.6847157"
       sodipodi:arg1="-1.0764733"
       sodipodi:arg2="-0.029275726"
       inkscape:rounded="0"
       inkscape:randomized="0"
       d="m 175.1719,292.8625 0.77923,26.60923 -23.43388,-12.62978 z"
       transform="rotate(-132.30007,198.08663,282.24416)"
       inkscape:transform-center-x="2.1210873"
       inkscape:transform-center-y="-1.8562093" /><path
       sodipodi:type="star"
       style="fill:#82dc73;fill-opacity:1;stroke-width:1.88976;stroke-linecap:butt;stroke-dasharray:none"
       id="path31635"
       inkscape:flatsided="true"
       sodipodi:sides="3"
       sodipodi:cx="167.8801"
       sodipodi:cy="306.39206"
       sodipodi:r1="15.369431"
       sodipodi:r2="7.6847157"
       sodipodi:arg1="-1.0764733"
       sodipodi:arg2="-0.029275726"
       inkscape:rounded="0"
       inkscape:randomized="0"
       d="m 175.1719,292.8625 0.77923,26.60923 -23.43388,-12.62978 z"
       transform="rotate(-71.174626,315.91373,232.88568)"
       inkscape:transform-center-x="-2.2658133"
       inkscape:transform-center-y="1.7093294" /><a
       id="a26689"
       xlink:href="/stations.html?station=Louis+Blanc"
       target="_parent"
       transform="translate(0,-56.000475)"><g
         id="g26677"><g
           id="g222"
           transform="translate(33.46418,55.999994)"><circle
             style="fill:#000000;stroke-width:0.332857"
             id="circle222"
             cx="249.99997"
             cy="37.795273"
             r="15.118109" /></g><g
           id="g26451"
           transform="matrix(0.07332416,0,0,0.07332416,273.07045,83.401567)">
	<defs
   id="defs26442">
		<rect
   id="rect26648"
   width="283.5"
   height="283.5"
   x="0"
   y="0" />
	</defs>
	<clipPath
   id="clipPath26593">
		<use
   xlink:href="#SVGID_1_-75"
   style="overflow:visible"
   id="use26591" />
	</clipPath>
	<path
   style="fill:#82dc73"
   d="M 0,141.7 C 0,63.5 63.5,0 141.7,0 220,0 283.5,63.5 283.5,141.7 283.5,219.9 220,283.5 141.7,283.5 63.5,283.5 0,220 0,141.7"
   clip-path="url(#SVGID_00000107573272734804361250000013699652756899299742_-6)"
   id="path26447" />
	<path
   d="m 150.8,91.1 c -33,57.2 -53,102.1 -53,125.7 H 63.5 c 0,-19.8 5.3,-32.5 18.5,-57 l 36.6,-68.1 h -73 V 66.6 h 105.1 v 24.5 m 43.3,72.3 c 0,9.8 -5.1,23.6 -19,23.6 -3.3,0 -7.1,-1.3 -9.3,-3.3 v 2 h -11.1 v -60.2 h 11.5 V 148 c 2.9,-4.2 6.3,-7.1 11.8,-7.1 11.4,-0.1 16.1,12 16.1,22.5 m -11.9,1.7 c 0,-5.9 -1.4,-14.4 -8.6,-14.4 -2.3,0 -4.1,1 -5.3,2.2 -1.9,1.9 -2.2,3.1 -2.2,5.6 v 14.7 c 0,3 1.8,5.7 7,5.7 7.3,0 9.1,-7.9 9.1,-13.8 m 33.3,-34.5 c 0,3.5 -2.4,6 -6.4,6 -3.9,0 -6.4,-2.5 -6.4,-6 0,-3.5 2.5,-6 6.4,-6 4,0 6.4,2.5 6.4,6 m -0.7,55 h -11.4 v -43.4 h 11.4 z m 40.7,-13 c 0,-7.2 -4.4,-10.6 -10.6,-12.9 l -3.8,-1.4 c -2.1,-0.7 -5.1,-2 -5.1,-4.6 0,-2 1.4,-4.3 6,-4.3 2.8,0 6.3,1 8.8,2.6 l 3.5,-8.4 c -2.3,-1.1 -6.3,-2.8 -11.7,-2.8 -10.2,0 -17.1,6.5 -17.1,14.7 0,6.4 3.8,9.7 9.4,11.9 l 3.6,1.4 c 2.4,0.9 6.4,2 6.4,5.3 0,3.4 -3.7,4.5 -6.7,4.5 -3.4,0 -7.4,-1.3 -10.2,-3.3 l -3.5,8.4 c 2.4,1.5 7.3,3.3 12.8,3.3 11.3,0 18.2,-6 18.2,-14.4"
   clip-path="url(#SVGID_00000107573272734804361250000013699652756899299742_-6)"
   id="path26449" />
</g></g></a><rect
       style="fill:#25303b;fill-opacity:1;stroke-width:0.192133"
       id="rect28131"
       width="183.00127"
       height="30.236217"
       x="305.59012"
       y="454.67667" /><a
       id="a28175"
       xlink:href="/stations.html?station=Pre-Saint-Gervais"
       target="_parent"
       transform="translate(0,375.99951)"><g
         id="g28173"><g
           id="g28157"
           transform="translate(33.46418,55.999994)"><circle
             style="fill:#000000;stroke-width:0.332857"
             id="circle28155"
             cx="249.99997"
             cy="37.795273"
             r="15.118109" /></g><g
           id="g28171"
           transform="matrix(0.07332416,0,0,0.07332416,273.07045,83.401567)">
	<defs
   id="defs28161">
		<rect
   id="rect28159"
   width="283.5"
   height="283.5"
   x="0"
   y="0" />
	</defs>
	<clipPath
   id="clipPath28165">
		<use
   xlink:href="#SVGID_1_-75"
   style="overflow:visible"
   id="use28163" />
	</clipPath>
	<path
   style="fill:#82dc73"
   d="M 0,141.7 C 0,63.5 63.5,0 141.7,0 220,0 283.5,63.5 283.5,141.7 283.5,219.9 220,283.5 141.7,283.5 63.5,283.5 0,220 0,141.7"
   clip-path="url(#SVGID_00000107573272734804361250000013699652756899299742_-6)"
   id="path28167" />
	<path
   d="m 150.8,91.1 c -33,57.2 -53,102.1 -53,125.7 H 63.5 c 0,-19.8 5.3,-32.5 18.5,-57 l 36.6,-68.1 h -73 V 66.6 h 105.1 v 24.5 m 43.3,72.3 c 0,9.8 -5.1,23.6 -19,23.6 -3.3,0 -7.1,-1.3 -9.3,-3.3 v 2 h -11.1 v -60.2 h 11.5 V 148 c 2.9,-4.2 6.3,-7.1 11.8,-7.1 11.4,-0.1 16.1,12 16.1,22.5 m -11.9,1.7 c 0,-5.9 -1.4,-14.4 -8.6,-14.4 -2.3,0 -4.1,1 -5.3,2.2 -1.9,1.9 -2.2,3.1 -2.2,5.6 v 14.7 c 0,3 1.8,5.7 7,5.7 7.3,0 9.1,-7.9 9.1,-13.8 m 33.3,-34.5 c 0,3.5 -2.4,6 -6.4,6 -3.9,0 -6.4,-2.5 -6.4,-6 0,-3.5 2.5,-6 6.4,-6 4,0 6.4,2.5 6.4,6 m -0.7,55 h -11.4 v -43.4 h 11.4 z m 40.7,-13 c 0,-7.2 -4.4,-10.6 -10.6,-12.9 l -3.8,-1.4 c -2.1,-0.7 -5.1,-2 -5.1,-4.6 0,-2 1.4,-4.3 6,-4.3 2.8,0 6.3,1 8.8,2.6 l 3.5,-8.4 c -2.3,-1.1 -6.3,-2.8 -11.7,-2.8 -10.2,0 -17.1,6.5 -17.1,14.7 0,6.4 3.8,9.7 9.4,11.9 l 3.6,1.4 c 2.4,0.9 6.4,2 6.4,5.3 0,3.4 -3.7,4.5 -6.7,4.5 -3.4,0 -7.4,-1.3 -10.2,-3.3 l -3.5,8.4 c 2.4,1.5 7.3,3.3 12.8,3.3 11.3,0 18.2,-6 18.2,-14.4"
   clip-path="url(#SVGID_00000107573272734804361250000013699652756899299742_-6)"
   id="path28169" />
</g></g></a><g
       aria-label="Louis Blanc"
       id="text28179"
       style="font-weight:bold;font-size:21.3333px;font-family:'Parisine Std';-inkscape-font-specification:'Parisine Std Bold';text-align:end;text-anchor:end;fill:#fffffd;stroke-width:9.44882"><path
         d="m 320.80914,45.592117 v -2.709329 h -6.10132 v -12.35198 h -3.328 v 15.061309 z"
         style="text-align:start;text-anchor:start"
         id="path28534" /><path
         d="m 332.86247,39.91746 c 0,-3.242662 -1.664,-6.122657 -5.39732,-6.122657 -3.69067,0 -5.504,2.858662 -5.504,6.07999 0,3.242662 1.664,6.122657 5.39733,6.122657 3.69066,0 5.50399,-2.858662 5.50399,-6.07999 z m -3.11466,0.02133 c 0,1.599997 -0.49067,3.711994 -2.38933,3.711994 -1.89866,0 -2.28266,-2.19733 -2.28266,-3.797327 0,-1.599998 0.49066,-3.711994 2.38933,-3.711994 1.89866,0 2.28266,2.197329 2.28266,3.797327 z"
         style="text-align:start;text-anchor:start"
         id="path28536" /><path
         d="M 344.44646,45.592117 V 34.200135 h -2.98666 v 7.018656 c 0,0.767999 -0.0427,1.066665 -0.55467,1.621331 -0.27733,0.298666 -0.74666,0.533332 -1.30133,0.533332 -1.13066,0 -1.57866,-0.810665 -1.57866,-1.962663 v -7.210656 h -2.98666 v 7.829321 c 0,2.218663 1.024,3.925327 3.47732,3.925327 1.42934,0 2.38933,-0.682665 3.15733,-1.770663 v 1.407997 z"
         style="text-align:start;text-anchor:start"
         id="path28538" /><path
         d="m 350.86777,31.170807 c 0,-0.917332 -0.64,-1.578664 -1.664,-1.578664 -1.024,0 -1.68533,0.661332 -1.68533,1.578664 0,0.917332 0.66133,1.578664 1.68533,1.578664 1.024,0 1.664,-0.661332 1.664,-1.578664 z m -0.192,14.42131 V 34.200135 h -2.98666 v 11.391982 z"
         style="text-align:start;text-anchor:start"
         id="path28540" /><path
         d="m 361.34241,42.178789 c 0,-1.898663 -1.152,-2.773329 -2.77333,-3.370661 l -1.00266,-0.362666 c -0.78933,-0.277333 -1.344,-0.618666 -1.344,-1.215998 0,-0.511999 0.36267,-1.130665 1.57866,-1.130665 0.72534,0 1.64267,0.256 2.304,0.682666 l 0.91733,-2.19733 c -0.59733,-0.298666 -1.64266,-0.746666 -3.07199,-0.746666 -2.66666,0 -4.48,1.706664 -4.48,3.861327 0,1.663998 0.98134,2.538663 2.45333,3.114662 l 0.93867,0.362666 c 1.06666,0.405333 1.68533,0.639999 1.68533,1.386665 0,0.895998 -0.96,1.173331 -1.74933,1.173331 -0.896,0 -1.94133,-0.341333 -2.66666,-0.853332 l -0.91733,2.19733 c 0.63999,0.384 1.91999,0.874665 3.34932,0.874665 2.98667,0 4.77866,-1.55733 4.77866,-3.775994 z"
         style="text-align:start;text-anchor:start"
         id="path28542" /><path
         d="m 381.54506,40.920125 c 0,-2.13333 -1.32267,-3.370662 -2.90133,-3.583995 v -0.04267 c 1.17333,-0.213333 2.41066,-1.386665 2.41066,-2.943996 0,-3.050661 -2.64533,-3.81866 -5.46132,-3.81866 h -5.71733 v 15.061309 h 5.48266 c 2.85866,0 6.18666,-0.874665 6.18666,-4.671992 z m -3.75466,-6.122657 c 0,1.429331 -1.152,1.706664 -2.90133,1.706664 h -1.68533 v -3.455995 h 1.64266 c 1.92,0 2.944,0.362666 2.944,1.749331 z m 0.32,6.037323 c 0,1.599998 -0.832,2.26133 -2.944,2.26133 h -1.96266 v -4.20266 h 1.79199 c 1.51467,0 3.11467,0.277333 3.11467,1.94133 z"
         style="text-align:start;text-anchor:start"
         id="path28544" /><path
         d="M 386.92107,45.592117 V 29.805476 h -2.98667 v 15.786641 z"
         style="text-align:start;text-anchor:start"
         id="path28546" /><path
         d="m 399.48639,45.528117 -0.17066,-1.94133 c -0.128,0.04267 -0.36267,0.106667 -0.49067,0.106667 -0.36266,0 -0.40533,-0.341333 -0.40533,-0.746666 v -5.247992 c 0,-3.285328 -2.58133,-3.861327 -4.18133,-3.861327 -1.96266,0 -3.34933,0.362666 -4.60799,1.173332 l 1.04533,2.13333 c 0.49067,-0.426666 1.49333,-1.045332 2.816,-1.045332 1.57866,0 2.09066,0.767999 2.09066,1.578664 v 0.746666 c 0,0.383999 -0.27733,0.405332 -0.74666,0.405332 -2.51733,0 -5.76,0.597333 -5.76,3.690661 0,1.94133 1.36534,3.391995 3.37067,3.391995 1.55733,0 2.43199,-0.554666 3.37066,-1.663998 0.17066,0.895999 0.704,1.557331 1.77066,1.557331 0.704,0 1.45067,-0.170666 1.89866,-0.277333 z m -3.92532,-3.775994 c 0,0.554666 -0.14934,0.981332 -0.49067,1.343998 -0.384,0.405333 -0.93866,0.618666 -1.6,0.618666 -0.83199,0 -1.42933,-0.597332 -1.42933,-1.429331 0,-1.365331 1.57867,-1.621331 2.624,-1.621331 0.256,0 0.576,0 0.896,0.02133 z"
         style="text-align:start;text-anchor:start"
         id="path28548" /><path
         d="m 411.28371,45.592117 v -7.829321 c 0,-2.218663 -1.00267,-3.925327 -3.54133,-3.925327 -1.55733,0 -2.624,0.767999 -3.43466,1.983997 v -1.621331 h -2.77333 v 11.391982 h 2.98666 v -6.997322 c 0,-0.767999 0.0427,-1.045332 0.61867,-1.599997 0.31999,-0.298667 0.85333,-0.554666 1.45066,-0.554666 1.30133,0 1.70666,0.789332 1.70666,1.94133 v 7.210655 z"
         style="text-align:start;text-anchor:start"
         id="path28550" /><path
         d="m 422.44102,45.016118 -0.85333,-2.218663 c -0.512,0.32 -1.38667,0.682666 -2.24,0.682666 -1.344,0 -2.752,-1.301332 -2.752,-3.498661 0,-2.005331 0.85334,-3.605328 2.58133,-3.605328 0.98133,0 1.83467,0.511999 2.21867,0.767999 l 1.06666,-2.495996 c -0.74666,-0.405333 -1.94133,-0.810666 -3.47733,-0.810666 -3.86132,0 -5.50399,3.093329 -5.50399,6.20799 0,3.327995 2.00533,5.909324 5.50399,5.909324 1.38667,0 2.85866,-0.490665 3.456,-0.938665 z"
         style="text-align:start;text-anchor:start"
         id="path28552" /></g><a
       id="a29660"
       xlink:href="/lines/t03b"
       target="_parent"
       transform="translate(34.015991,-366.42555)"><g
         id="g29658"
         transform="matrix(0.07332416,0,0,0.07332416,204.09446,825.82663)">
	<defs
   id="defs29648">
		<rect
   id="rect29646"
   width="283.5"
   height="283.5"
   x="0"
   y="0" />
	</defs>
	<clipPath
   id="clipPath29652">
		<use
   xlink:href="#SVGID_1_-4"
   style="overflow:visible"
   id="use29650" />
	</clipPath>
	<path
   d="m 156.8,199.7 c -15.6,0 -24.3,-3.9 -31.6,-8.2 l 8.5,-16.9 c 4.6,3.2 12.2,7.1 21.5,7.1 12.7,0 20.6,-7.4 20.6,-16.7 0,-12.5 -9.6,-16.9 -20.7,-16.9 H 143.8 V 130 h 11.4 c 10.7,0 17.3,-5.6 17.3,-13.9 0,-7 -5.3,-13.3 -16.7,-13.3 -10.1,0 -16.7,4.8 -20.3,7.9 l -7.9,-16.1 c 9.3,-6.2 19.3,-9.7 33.1,-9.7 22.3,0 35,13.3 35,27.8 0,11.3 -6,20.3 -17.6,24.6 v 0.3 c 12.1,2.3 21.2,11.6 21.2,26.9 0.1,19.3 -17.1,35.2 -42.5,35.2 m 86.5,-23.2 c -4.7,0 -10.1,-1.9 -13.3,-4.8 v 2.8 H 214.1 V 88.2 h 16.4 v 32.2 c 4.2,-6.1 9,-10.1 16.9,-10.1 16.3,0 23.1,17.4 23.1,32.4 0.1,14 -7.2,33.8 -27.2,33.8 m -2.1,-52 c -3.3,0 -5.8,1.4 -7.6,3.1 -2.8,2.7 -3.1,4.4 -3.1,8 v 21.1 c 0,4.3 2.6,8.2 10,8.2 10.5,0 13.1,-11.3 13.1,-19.8 0,-8.4 -2,-20.6 -12.4,-20.6 m -171.3,-17 v 89.6 H 45.8 V 107.5 H 12.2 V 87.9 h 91.3 v 19.6 z"
   clip-path="url(#SVGID_00000085972433664928841230000013839026464737200560_)"
   id="path29654" />
	<path
   style="fill:#00643c"
   d="M 269.3,42.5 H 14.2 C 6.3,42.5 0,36.2 0,28.3 V 14.2 C 0,6.3 6.3,0 14.2,0 h 255.1 c 7.8,0 14.2,6.3 14.2,14.2 v 14.2 c 0,7.8 -6.4,14.1 -14.2,14.1 m 14.2,226.8 v -14.2 c 0,-7.8 -6.3,-14.2 -14.2,-14.2 H 14.2 C 6.4,240.9 0,247.2 0,255.1 v 14.2 c 0,7.8 6.3,14.2 14.2,14.2 h 255.1 c 7.8,0 14.2,-6.4 14.2,-14.2"
   clip-path="url(#SVGID_00000085972433664928841230000013839026464737200560_)"
   id="path29656" />
</g></a><g
       id="g29666"
       transform="matrix(0.07333451,0,0,0.07333451,213.54354,459.40108)"><path
         d="M 274.25,18.42 H 9.21 C 4.12,18.42 0,14.3 0,9.21 0,4.12 4.12,0 9.21,0 h 265.04 c 5.09,0 9.21,4.12 9.21,9.21 0,5.09 -4.12,9.21 -9.21,9.21 m 9.21,255.83 v 0 c 0,-5.09 -4.12,-9.22 -9.21,-9.22 H 9.21 c -5.09,0 -9.21,4.13 -9.21,9.22 0,5.09 4.12,9.21 9.21,9.21 h 265.04 c 5.09,0 9.21,-4.12 9.21,-9.21 m -32.32,-38.41 c 2.19,0 3.97,-1.78 3.97,-3.97 v -3.97 c 0,-2.19 -1.78,-3.96 -3.97,-3.96 H 28.35 v 11.91 H 251.14 M 28.35,170.78 H 69.6 c 1.09,0 1.98,-0.89 1.98,-1.98 v -54.85 c 0,-1.09 -0.89,-1.98 -1.98,-1.98 H 28.35 V 99.21 H 92.72 L 117.95,78.47 86.21,52.39 c -1.37,-1.12 -1.57,-3.15 -0.44,-4.52 l 2.04,-2.49 c 1.13,-1.37 3.15,-1.56 4.52,-0.44 l 36.14,29.69 c 2.41,1.98 2.42,5.68 0,7.66 L 107.89,99.2 h 98.03 c 7.78,0 15.18,3.29 20.43,9.03 15.45,16.89 25.27,37.77 28.41,60.39 1,7.19 -0.09,14.31 -3.16,20.56 -7.09,14.44 -21.47,23.41 -37.55,23.41 H 28.35 Z m 188.48,-54.06 c -2.8,-3.05 -6.77,-4.75 -10.91,-4.75 h -34.57 c -1.09,0 -1.98,0.89 -1.98,1.98 v 54.85 c 0,1.09 0.89,1.98 1.98,1.98 h 59.11 c 6.94,0 11.07,-5.46 9.31,-12.17 -4.1,-15.56 -11.91,-29.87 -22.94,-41.89 m -62.2,83.12 c 1.09,0 1.98,-0.89 1.98,-1.98 v -83.91 c 0,-1.09 -0.89,-1.98 -1.98,-1.98 h -25.79 c -1.1,0 -1.99,0.89 -1.99,1.98 v 83.91 c 0,1.09 0.89,1.98 1.99,1.98 h 25.79 M 86.32,111.97 c -1.09,0 -1.98,0.89 -1.98,1.98 v 83.91 c 0,1.09 0.89,1.98 1.98,1.98 h 25.79 c 1.1,0 1.99,-0.89 1.99,-1.98 v -83.91 c 0,-1.09 -0.89,-1.98 -1.99,-1.98 H 86.32"
         id="path29662" /><path
         d="M 274.25,18.42 H 9.21 C 4.12,18.42 0,14.3 0,9.21 0,4.12 4.12,0 9.21,0 h 265.04 c 5.09,0 9.21,4.12 9.21,9.21 0,5.09 -4.12,9.21 -9.21,9.21 m 9.21,255.83 v 0 c 0,-5.09 -4.12,-9.22 -9.21,-9.22 H 9.21 c -5.09,0 -9.21,4.13 -9.21,9.22 0,5.09 4.12,9.21 9.21,9.21 h 265.04 c 5.09,0 9.21,-4.12 9.21,-9.21 m -32.32,-38.41 c 2.19,0 3.97,-1.78 3.97,-3.97 v -3.97 c 0,-2.19 -1.78,-3.96 -3.97,-3.96 H 28.35 v 11.91 H 251.14 M 28.35,170.78 H 69.6 c 1.09,0 1.98,-0.89 1.98,-1.98 v -54.85 c 0,-1.09 -0.89,-1.98 -1.98,-1.98 H 28.35 V 99.21 H 92.72 L 117.95,78.47 86.21,52.39 c -1.37,-1.12 -1.57,-3.15 -0.44,-4.52 l 2.04,-2.49 c 1.13,-1.37 3.15,-1.56 4.52,-0.44 l 36.14,29.69 c 2.41,1.98 2.42,5.68 0,7.66 L 107.89,99.2 h 98.03 c 7.78,0 15.18,3.29 20.43,9.03 15.45,16.89 25.27,37.77 28.41,60.39 1,7.19 -0.09,14.31 -3.16,20.56 -7.09,14.44 -21.47,23.41 -37.55,23.41 H 28.35 Z m 188.48,-54.06 c -2.8,-3.05 -6.77,-4.75 -10.91,-4.75 h -34.57 c -1.09,0 -1.98,0.89 -1.98,1.98 v 54.85 c 0,1.09 0.89,1.98 1.98,1.98 h 59.11 c 6.94,0 11.07,-5.46 9.31,-12.17 -4.1,-15.56 -11.91,-29.87 -22.94,-41.89 m -62.2,83.12 c 1.09,0 1.98,-0.89 1.98,-1.98 v -83.91 c 0,-1.09 -0.89,-1.98 -1.98,-1.98 h -25.79 c -1.1,0 -1.99,0.89 -1.99,1.98 v 83.91 c 0,1.09 0.89,1.98 1.99,1.98 h 25.79 M 86.32,111.97 c -1.09,0 -1.98,0.89 -1.98,1.98 v 83.91 c 0,1.09 0.89,1.98 1.98,1.98 h 25.79 c 1.1,0 1.99,-0.89 1.99,-1.98 v -83.91 c 0,-1.09 -0.89,-1.98 -1.99,-1.98 H 86.32"
         id="path29664" /></g><g
       aria-label="Hôpital Robert Debré"
       id="g29704"
       style="font-weight:bold;font-size:8px;font-family:'Parisine Std';-inkscape-font-specification:'Parisine Std Bold';text-align:end;text-anchor:end;fill:#25303b;stroke-width:1.00157;stroke-linecap:round"
       transform="translate(-101.10209,34.628385)"><path
         d="m 289.05991,433.09039 v -5.648 h -1.248 v 2.152 h -2.336 v -2.152 h -1.248 v 5.648 h 1.248 v -2.488 h 2.336 v 2.488 z"
         id="path29668" /><path
         d="m 294.07591,430.96239 c 0,-1.216 -0.624,-2.296 -2.024,-2.296 -1.384,0 -2.064,1.072 -2.064,2.28 0,1.216 0.624,2.296 2.024,2.296 1.384,0 2.064,-1.072 2.064,-2.28 z m -1.168,0.008 c 0,0.6 -0.184,1.392 -0.896,1.392 -0.712,0 -0.856,-0.824 -0.856,-1.424 0,-0.6 0.184,-1.392 0.896,-1.392 0.712,0 0.856,0.824 0.856,1.424 z m 0.624,-2.56 -0.936,-1.24 h -1.104 l -0.936,1.24 h 0.864 l 0.616,-0.632 0.632,0.632 z"
         id="path29670" /><path
         d="m 298.79592,430.90639 c 0,-1.032 -0.464,-2.224 -1.584,-2.224 -0.592,0 -0.952,0.304 -1.248,0.768 v -0.632 h -1.04 v 5.872 h 1.12 v -1.768 c 0.216,0.208 0.576,0.304 0.88,0.304 1.368,0 1.872,-1.36 1.872,-2.32 z m -1.168,0.16 c 0,0.584 -0.176,1.352 -0.896,1.352 -0.512,0 -0.688,-0.256 -0.688,-0.552 v -1.456 c 0,-0.248 0.024,-0.36 0.216,-0.544 0.128,-0.12 0.288,-0.216 0.512,-0.216 0.712,0 0.856,0.84 0.856,1.416 z"
         id="path29672" /><path
         d="m 300.89992,427.68239 c 0,-0.344 -0.24,-0.592 -0.624,-0.592 -0.384,0 -0.632,0.248 -0.632,0.592 0,0.344 0.248,0.592 0.632,0.592 0.384,0 0.624,-0.248 0.624,-0.592 z m -0.072,5.408 v -4.272 h -1.12 v 4.272 z"
         id="path29674" /><path
         d="m 304.49191,433.11439 -0.112,-0.824 c -0.096,0.032 -0.256,0.088 -0.488,0.088 -0.256,0 -0.488,-0.096 -0.488,-0.52 v -2.16 h 0.976 v -0.8 h -0.976 v -1.224 l -1.12,0.36 v 0.864 h -0.712 v 0.8 h 0.712 v 2.296 c 0,0.824 0.472,1.232 1.232,1.232 0.376,0 0.768,-0.056 0.976,-0.112 z"
         id="path29676" /><path
         d="m 308.79592,433.06639 -0.064,-0.728 c -0.048,0.016 -0.136,0.04 -0.184,0.04 -0.136,0 -0.152,-0.128 -0.152,-0.28 v -1.968 c 0,-1.232 -0.968,-1.448 -1.568,-1.448 -0.736,0 -1.256,0.136 -1.728,0.44 l 0.392,0.8 c 0.184,-0.16 0.56,-0.392 1.056,-0.392 0.592,0 0.784,0.288 0.784,0.592 v 0.28 c 0,0.144 -0.104,0.152 -0.28,0.152 -0.944,0 -2.16,0.224 -2.16,1.384 0,0.728 0.512,1.272 1.264,1.272 0.584,0 0.912,-0.208 1.264,-0.624 0.064,0.336 0.264,0.584 0.664,0.584 0.264,0 0.544,-0.064 0.712,-0.104 z m -1.472,-1.416 c 0,0.208 -0.056,0.368 -0.184,0.504 -0.144,0.152 -0.352,0.232 -0.6,0.232 -0.312,0 -0.536,-0.224 -0.536,-0.536 0,-0.512 0.592,-0.608 0.984,-0.608 0.096,0 0.216,0 0.336,0.008 z"
         id="path29678" /><path
         d="m 310.68392,433.09039 v -5.92 h -1.12 v 5.92 z"
         id="path29680" /><path
         d="m 266.06792,443.09039 c -0.52,-0.736 -1.48,-2.168 -1.712,-2.576 0.496,-0.08 1.232,-0.504 1.232,-1.448 0,-1.336 -1.16,-1.624 -2.432,-1.624 h -1.832 v 5.648 h 1.248 v -2.256 h 0.368 c 0.128,0 0.304,0.024 0.488,0.336 l 1.128,1.92 z m -1.776,-3.952 c 0,0.624 -0.56,0.768 -1.04,0.768 h -0.68 v -1.496 h 0.608 c 0.496,0 1.112,0.08 1.112,0.728 z"
         id="path29682" /><path
         d="m 270.34792,440.96239 c 0,-1.216 -0.624,-2.296 -2.024,-2.296 -1.384,0 -2.064,1.072 -2.064,2.28 0,1.216 0.624,2.296 2.024,2.296 1.384,0 2.064,-1.072 2.064,-2.28 z m -1.168,0.008 c 0,0.6 -0.184,1.392 -0.896,1.392 -0.712,0 -0.856,-0.824 -0.856,-1.424 0,-0.6 0.184,-1.392 0.896,-1.392 0.712,0 0.856,0.824 0.856,1.424 z"
         id="path29684" /><path
         d="m 275.06792,440.90639 c 0,-1.032 -0.464,-2.224 -1.584,-2.224 -0.544,0 -0.872,0.28 -1.16,0.696 v -2.208 h -1.128 v 5.92 h 1.088 v -0.192 c 0.216,0.2 0.592,0.328 0.912,0.328 1.368,0 1.872,-1.36 1.872,-2.32 z m -1.168,0.168 c 0,0.584 -0.176,1.36 -0.896,1.36 -0.512,0 -0.688,-0.264 -0.688,-0.56 v -1.448 c 0,-0.248 0.024,-0.368 0.216,-0.552 0.12,-0.12 0.296,-0.216 0.52,-0.216 0.712,0 0.848,0.84 0.848,1.416 z"
         id="path29686" /><path
         d="m 279.53992,440.68239 c 0,-0.984 -0.488,-2 -1.808,-2 -1.368,0 -1.976,1.176 -1.976,2.304 0,1.328 0.84,2.24 2.176,2.24 0.624,0 1.192,-0.184 1.52,-0.336 l -0.296,-0.832 c -0.224,0.12 -0.632,0.28 -1.016,0.28 -0.72,0 -1.272,-0.408 -1.272,-1.168 0,-0.008 0,-0.016 0,-0.024 h 2.648 c 0.016,-0.144 0.024,-0.328 0.024,-0.464 z m -1.056,-0.296 h -1.64 c 0,-0.376 0.2,-0.92 0.84,-0.92 0.568,0 0.84,0.472 0.8,0.92 z"
         id="path29688" /><path
         d="m 282.97992,438.79439 c -0.088,-0.032 -0.248,-0.08 -0.408,-0.08 -0.528,0 -0.808,0.336 -1.064,0.744 v -0.64 h -1.008 c 0.008,0.2 0.04,0.712 0.04,1.08 v 3.192 h 1.12 v -2.576 c 0,-0.232 0.008,-0.408 0.16,-0.544 0.104,-0.096 0.232,-0.168 0.472,-0.168 0.152,0 0.312,0.072 0.392,0.112 z"
         id="path29690" /><path
         d="m 286.25191,443.11439 -0.112,-0.824 c -0.096,0.032 -0.256,0.088 -0.488,0.088 -0.256,0 -0.488,-0.096 -0.488,-0.52 v -2.16 h 0.976 v -0.8 h -0.976 v -1.224 l -1.12,0.36 v 0.864 h -0.712 v 0.8 h 0.712 v 2.296 c 0,0.824 0.472,1.232 1.232,1.232 0.376,0 0.768,-0.056 0.976,-0.112 z"
         id="path29692" /><path
         d="m 294.37992,440.13839 c 0,-2.328 -1.776,-2.696 -3.424,-2.696 h -1.648 v 5.648 h 1.592 c 1.728,0 3.48,-0.48 3.48,-2.952 z m -1.288,0.08 c 0,1.48 -0.832,1.896 -1.92,1.896 h -0.616 v -3.688 h 0.576 c 0.768,0 1.96,0.208 1.96,1.792 z"
         id="path29694" /><path
         d="m 298.75592,440.68239 c 0,-0.984 -0.488,-2 -1.808,-2 -1.368,0 -1.976,1.176 -1.976,2.304 0,1.328 0.84,2.24 2.176,2.24 0.624,0 1.192,-0.184 1.52,-0.336 l -0.296,-0.832 c -0.224,0.12 -0.632,0.28 -1.016,0.28 -0.72,0 -1.272,-0.408 -1.272,-1.168 0,-0.008 0,-0.016 0,-0.024 h 2.648 c 0.016,-0.144 0.024,-0.328 0.024,-0.464 z m -1.056,-0.296 h -1.64 c 0,-0.376 0.2,-0.92 0.84,-0.92 0.568,0 0.84,0.472 0.8,0.92 z"
         id="path29696" /><path
         d="m 303.58792,440.90639 c 0,-1.032 -0.464,-2.224 -1.584,-2.224 -0.544,0 -0.872,0.28 -1.16,0.696 v -2.208 h -1.128 v 5.92 h 1.088 v -0.192 c 0.216,0.2 0.592,0.328 0.912,0.328 1.368,0 1.872,-1.36 1.872,-2.32 z m -1.168,0.168 c 0,0.584 -0.176,1.36 -0.896,1.36 -0.512,0 -0.688,-0.264 -0.688,-0.56 v -1.448 c 0,-0.248 0.024,-0.368 0.216,-0.552 0.12,-0.12 0.296,-0.216 0.52,-0.216 0.712,0 0.848,0.84 0.848,1.416 z"
         id="path29698" /><path
         d="m 306.91592,438.79439 c -0.088,-0.032 -0.248,-0.08 -0.408,-0.08 -0.528,0 -0.808,0.336 -1.064,0.744 v -0.64 h -1.008 c 0.008,0.2 0.04,0.712 0.04,1.08 v 3.192 h 1.12 v -2.576 c 0,-0.232 0.008,-0.408 0.16,-0.544 0.104,-0.096 0.232,-0.168 0.472,-0.168 0.152,0 0.312,0.072 0.392,0.112 z"
         id="path29700" /><path
         d="m 310.86792,440.68239 c 0,-0.984 -0.488,-2 -1.808,-2 -1.368,0 -1.976,1.176 -1.976,2.304 0,1.328 0.84,2.24 2.176,2.24 0.624,0 1.192,-0.184 1.52,-0.336 l -0.296,-0.832 c -0.224,0.12 -0.632,0.28 -1.016,0.28 -0.72,0 -1.272,-0.408 -1.272,-1.168 0,-0.008 0,-0.016 0,-0.024 h 2.648 c 0.016,-0.144 0.024,-0.328 0.024,-0.464 z m -1.056,-0.296 h -1.64 c 0,-0.376 0.2,-0.92 0.84,-0.92 0.568,0 0.84,0.472 0.8,0.92 z m 0.888,-3.216 h -1.28 l -0.896,1.24 h 0.864 z"
         id="path29702" /></g><g
       aria-label="Pré-Saint-Gervais"
       id="text29822"
       style="font-weight:bold;font-size:21.3333px;font-family:'Parisine Std';-inkscape-font-specification:'Parisine Std Bold';fill:#fffffd;stroke-width:9.44882"><path
         d="m 324.06686,467.22412 c 0,-3.73333 -2.98666,-4.672 -6.46399,-4.672 h -4.62933 v 15.06131 h 3.328 v -5.29065 h 1.536 c 2.58132,0 6.22932,-0.72534 6.22932,-5.09866 z m -3.37066,0.21333 c 0,1.94133 -1.62133,2.32533 -2.85866,2.32533 h -1.536 v -4.62933 h 1.49333 c 1.10933,0 2.90133,0.256 2.90133,2.304 z"
         id="path30440" /><path
         d="m 332.64284,466.15745 c -0.23467,-0.0853 -0.66133,-0.21333 -1.088,-0.21333 -1.408,0 -2.15466,0.896 -2.83733,1.984 v -1.70667 h -2.68799 c 0.0213,0.53333 0.10666,1.89867 0.10666,2.88 v 8.51198 h 2.98667 v -6.86932 c 0,-0.61866 0.0213,-1.088 0.42666,-1.45066 0.27733,-0.256 0.61867,-0.448 1.25867,-0.448 0.40533,0 0.832,0.192 1.04533,0.29866 z"
         id="path30442" /><path
         d="m 343.18148,471.19211 c 0,-2.624 -1.30133,-5.33332 -4.82133,-5.33332 -3.64799,0 -5.26932,3.13599 -5.26932,6.14399 0,3.54132 2.23999,5.97332 5.80266,5.97332 1.66399,0 3.17866,-0.49067 4.05332,-0.896 l -0.78933,-2.21866 c -0.59733,0.32 -1.68533,0.74666 -2.70933,0.74666 -1.92,0 -3.39199,-1.08799 -3.39199,-3.11466 0,-0.0213 0,-0.0427 0,-0.064 h 7.06132 c 0.0427,-0.384 0.064,-0.87466 0.064,-1.23733 z m -2.816,-0.78933 h -4.37332 c 0,-1.00267 0.53333,-2.45333 2.23999,-2.45333 1.51467,0 2.24,1.25866 2.13333,2.45333 z m 2.368,-8.57599 h -3.41333 l -2.38933,3.30666 h 2.304 z"
         id="path30444" /><path
         d="m 350.77616,473.06944 v -2.81599 h -5.58933 v 2.81599 z"
         id="path30446" /><path
         d="m 361.74147,473.06944 c 0,-2.41066 -1.70666,-3.47733 -3.64799,-4.33066 l -1.10933,-0.49066 c -0.85333,-0.384 -1.89866,-0.832 -1.89866,-1.87734 0,-0.66133 0.44799,-1.66399 2.19733,-1.66399 1.17333,0 2.26132,0.32 3.13599,0.832 l 0.98133,-2.53867 c -1.23733,-0.61866 -2.77333,-0.85333 -4.11732,-0.85333 -3.30667,0 -5.44,1.96267 -5.44,4.56533 0,2.47466 1.57867,3.56266 3.584,4.41599 l 1.10933,0.46933 c 0.87466,0.36267 1.94133,0.832 1.94133,1.94133 0,1.25867 -1.06667,1.81333 -2.47466,1.81333 -1.25867,0 -2.64533,-0.46933 -3.47733,-0.98133 l -0.91733,2.60266 c 0.98133,0.49067 2.43199,1.00267 4.22399,1.00267 3.09333,0 5.90932,-1.32266 5.90932,-4.90666 z"
         id="path30448" /><path
         d="m 373.75211,477.54943 -0.17066,-1.94133 c -0.128,0.0427 -0.36267,0.10667 -0.49067,0.10667 -0.36266,0 -0.40533,-0.34133 -0.40533,-0.74667 v -5.24799 c 0,-3.28533 -2.58133,-3.86132 -4.18133,-3.86132 -1.96266,0 -3.34932,0.36266 -4.60799,1.17333 l 1.04533,2.13333 c 0.49067,-0.42667 1.49333,-1.04533 2.816,-1.04533 1.57866,0 2.09066,0.76799 2.09066,1.57866 v 0.74667 c 0,0.38399 -0.27733,0.40533 -0.74666,0.40533 -2.51733,0 -5.76,0.59733 -5.76,3.69066 0,1.94133 1.36534,3.39199 3.37067,3.39199 1.55733,0 2.43199,-0.55466 3.37066,-1.66399 0.17066,0.89599 0.704,1.55733 1.77066,1.55733 0.704,0 1.45067,-0.17067 1.89866,-0.27734 z m -3.92532,-3.77599 c 0,0.55467 -0.14934,0.98133 -0.49067,1.344 -0.384,0.40533 -0.93866,0.61866 -1.6,0.61866 -0.83199,0 -1.42933,-0.59733 -1.42933,-1.42933 0,-1.36533 1.57867,-1.62133 2.624,-1.62133 0.256,0 0.576,0 0.896,0.0213 z"
         id="path30450" /><path
         d="m 379.14944,463.19212 c 0,-0.91733 -0.64,-1.57866 -1.664,-1.57866 -1.024,0 -1.68533,0.66133 -1.68533,1.57866 0,0.91734 0.66133,1.57867 1.68533,1.57867 1.024,0 1.664,-0.66133 1.664,-1.57867 z m -0.192,14.42131 v -11.39198 h -2.98667 v 11.39198 z"
         id="path30452" /><path
         d="m 392.0134,477.61343 v -7.82932 c 0,-2.21866 -1.00266,-3.92532 -3.54132,-3.92532 -1.55733,0 -2.624,0.76799 -3.43467,1.98399 v -1.62133 h -2.77332 v 11.39198 h 2.98666 v -6.99732 c 0,-0.768 0.0427,-1.04533 0.61866,-1.6 0.32,-0.29866 0.85334,-0.55466 1.45067,-0.55466 1.30133,0 1.70666,0.78933 1.70666,1.94133 v 7.21065 z"
         id="path30454" /><path
         d="m 401.48538,477.67743 -0.29866,-2.19733 c -0.256,0.0853 -0.68267,0.23467 -1.30133,0.23467 -0.68267,0 -1.30133,-0.256 -1.30133,-1.38666 v -5.76 h 2.60266 v -2.13333 h -2.60266 v -3.26399 l -2.98667,0.96 v 2.30399 h -1.89866 v 2.13333 h 1.89866 v 6.12266 c 0,2.19733 1.25867,3.28533 3.28533,3.28533 1.00267,0 2.048,-0.14933 2.60266,-0.29867 z"
         id="path30456" /><path
         d="m 407.09605,473.06944 v -2.81599 h -5.58932 v 2.81599 z"
         id="path30458" /><path
         d="m 421.79473,477.03743 v -7.21065 h -5.88799 v 2.70933 h 2.70933 v 2.60266 c -0.384,0.128 -1.216,0.23467 -1.94133,0.23467 -2.38933,0 -4.24533,-1.94133 -4.24533,-5.20533 0,-2.98666 1.42933,-5.33332 4.58666,-5.33332 1.23733,0 2.47466,0.32 3.60533,0.93866 l 1.04533,-2.64533 c -1.30133,-0.55466 -2.688,-0.98133 -4.90666,-0.98133 -5.39732,0 -7.76532,3.904 -7.76532,8.10666 0,4.43732 2.45333,7.72265 7.46666,7.72265 2.06933,0 4.22399,-0.512 5.33332,-0.93867 z"
         id="path30460" /><path
         d="m 433.93337,471.19211 c 0,-2.624 -1.30133,-5.33332 -4.82133,-5.33332 -3.64799,0 -5.26932,3.13599 -5.26932,6.14399 0,3.54132 2.23999,5.97332 5.80266,5.97332 1.66399,0 3.17866,-0.49067 4.05332,-0.896 l -0.78933,-2.21866 c -0.59733,0.32 -1.68533,0.74666 -2.70933,0.74666 -1.92,0 -3.39199,-1.08799 -3.39199,-3.11466 0,-0.0213 0,-0.0427 0,-0.064 h 7.06132 c 0.0427,-0.384 0.064,-0.87466 0.064,-1.23733 z m -2.816,-0.78933 h -4.37332 c 0,-1.00267 0.53333,-2.45333 2.23999,-2.45333 1.51467,0 2.24,1.25866 2.13333,2.45333 z"
         id="path30462" /><path
         d="m 443.1067,466.15745 c -0.23467,-0.0853 -0.66134,-0.21333 -1.088,-0.21333 -1.408,0 -2.15467,0.896 -2.83733,1.984 v -1.70667 h -2.688 c 0.0213,0.53333 0.10667,1.89867 0.10667,2.88 v 8.51198 h 2.98666 v -6.86932 c 0,-0.61866 0.0213,-1.088 0.42667,-1.45066 0.27733,-0.256 0.61866,-0.448 1.25866,-0.448 0.40533,0 0.832,0.192 1.04533,0.29866 z"
         id="path30464" /><path
         d="m 454.072,466.22145 h -2.816 l -1.57866,6.03733 c -0.23467,0.89599 -0.53333,2.23999 -0.61867,2.73066 h -0.0427 c -0.10667,-0.448 -0.36267,-1.74933 -0.59734,-2.70933 l -1.47199,-6.05866 h -3.30667 l 3.66933,11.39198 h 3.09333 z"
         id="path30466" /><path
         d="m 465.336,477.54943 -0.17066,-1.94133 c -0.128,0.0427 -0.36267,0.10667 -0.49067,0.10667 -0.36266,0 -0.40533,-0.34133 -0.40533,-0.74667 v -5.24799 c 0,-3.28533 -2.58133,-3.86132 -4.18133,-3.86132 -1.96266,0 -3.34933,0.36266 -4.60799,1.17333 l 1.04533,2.13333 c 0.49067,-0.42667 1.49333,-1.04533 2.816,-1.04533 1.57866,0 2.09066,0.76799 2.09066,1.57866 v 0.74667 c 0,0.38399 -0.27733,0.40533 -0.74667,0.40533 -2.51732,0 -5.75999,0.59733 -5.75999,3.69066 0,1.94133 1.36533,3.39199 3.37066,3.39199 1.55734,0 2.432,-0.55466 3.37067,-1.66399 0.17066,0.89599 0.704,1.55733 1.77066,1.55733 0.704,0 1.45066,-0.17067 1.89866,-0.27734 z m -3.92532,-3.77599 c 0,0.55467 -0.14934,0.98133 -0.49067,1.344 -0.384,0.40533 -0.93866,0.61866 -1.6,0.61866 -0.832,0 -1.42933,-0.59733 -1.42933,-1.42933 0,-1.36533 1.57867,-1.62133 2.624,-1.62133 0.256,0 0.576,0 0.896,0.0213 z"
         id="path30468" /><path
         d="m 470.73332,463.19212 c 0,-0.91733 -0.64,-1.57866 -1.664,-1.57866 -1.024,0 -1.68533,0.66133 -1.68533,1.57866 0,0.91734 0.66133,1.57867 1.68533,1.57867 1.024,0 1.664,-0.66133 1.664,-1.57867 z m -0.192,14.42131 v -11.39198 h -2.98666 v 11.39198 z"
         id="path30470" /><path
         d="m 481.20795,474.20011 c 0,-1.89867 -1.152,-2.77333 -2.77333,-3.37067 l -1.00266,-0.36266 c -0.78933,-0.27733 -1.344,-0.61867 -1.344,-1.216 0,-0.512 0.36267,-1.13066 1.57866,-1.13066 0.72534,0 1.64267,0.256 2.304,0.68266 l 0.91733,-2.19733 c -0.59733,-0.29866 -1.64266,-0.74666 -3.07199,-0.74666 -2.66667,0 -4.48,1.70666 -4.48,3.86132 0,1.664 0.98134,2.53867 2.45333,3.11466 l 0.93867,0.36267 c 1.06666,0.40533 1.68533,0.64 1.68533,1.38667 0,0.89599 -0.96,1.17333 -1.74933,1.17333 -0.896,0 -1.94133,-0.34134 -2.66666,-0.85334 l -0.91734,2.19733 c 0.64,0.384 1.92,0.87467 3.34933,0.87467 2.98666,0 4.77866,-1.55733 4.77866,-3.77599 z"
         id="path30472" /></g><g
       aria-label="7"
       id="text25109"
       style="font-weight:bold;font-size:13.3333px;font-family:'Parisine Std';-inkscape-font-specification:'Parisine Std Bold';text-align:end;text-anchor:end;display:inline;fill:#25303b;stroke-width:9.44882"
       transform="translate(-71.56558,73.749596)"><path
         d="m 300.55795,336.35982 v -1.14666 h -6.30665 v 1.18666 h 4.91999 l -2.50666,4.62665 c -0.78667,1.48 -1.13333,2.45333 -1.13333,3.59999 h 1.45333 c 0,-1.67999 1.33333,-4.23998 3.57332,-8.26664 z"
         style="font-weight:normal;-inkscape-font-specification:'Parisine Std';text-align:start;text-anchor:start"
         id="path21859" /></g></g><metadata
     id="metadata1"><rdf:RDF><cc:Work
         rdf:about=""><cc:license
           rdf:resource="http://creativecommons.org/licenses/by/4.0/" /></cc:Work><cc:License
         rdf:about="http://creativecommons.org/licenses/by/4.0/"><cc:permits
           rdf:resource="http://creativecommons.org/ns#Reproduction" /><cc:permits
           rdf:resource="http://creativecommons.org/ns#Distribution" /><cc:requires
           rdf:resource="http://creativecommons.org/ns#Notice" /><cc:requires
           rdf:resource="http://creativecommons.org/ns#Attribution" /><cc:permits
           rdf:resource="http://creativecommons.org/ns#DerivativeWorks" /></cc:License></rdf:RDF></metadata><style
     type="text/css"
     id="style1">
	.st0{clip-path:url(#SVGID_00000058556901070580205580000017895544327468108430_);fill:#FFBE00;}
	.st1{clip-path:url(#SVGID_00000058556901070580205580000017895544327468108430_);}
</style><style
     type="text/css"
     id="style1-4">
	.st0{clip-path:url(#SVGID_00000058556901070580205580000017895544327468108430_);fill:#FFBE00;}
	.st1{clip-path:url(#SVGID_00000058556901070580205580000017895544327468108430_);}
</style><style
     type="text/css"
     id="style1-2">
	.st0{fill:#A0006E;}
	.st1{fill:#FFFFFF;}
</style><style
     type="text/css"
     id="style1-0">
	.st0{clip-path:url(#SVGID_00000131334851972091508770000011367278718466420621_);fill:#D282BE;}
	.st1{clip-path:url(#SVGID_00000131334851972091508770000011367278718466420621_);}
</style><style
     type="text/css"
     id="style1-09">
	.st0{fill:#A50034;}
	.st1{fill:#FFFFFF;}
</style><style
     type="text/css"
     id="style1-7">
	.st0{clip-path:url(#SVGID_00000079466003039703222920000011319790780502846111_);}
	.st1{clip-path:url(#SVGID_00000079466003039703222920000011319790780502846111_);fill:#A0006E;}
</style><style
     type="text/css"
     id="style1-6">
	.st0{fill:#A50034;}
	.st1{fill:#FFFFFF;}
</style><style
     type="text/css"
     id="style1-65">
	.st0{fill:#A0006E;}
	.st1{fill:#FFFFFF;}
</style><style
     type="text/css"
     id="style1-9">
	.st0{fill:#A50034;}
	.st1{fill:#FFFFFF;}
</style><style
     type="text/css"
     id="style1-1">
	.st0{fill:#A0006E;}
	.st1{fill:#FFFFFF;}
</style><style
     type="text/css"
     id="style1-08">
	.st0{fill:#A0006E;}
	.st1{fill:#FFFFFF;}
</style><style
     type="text/css"
     id="style1-8">
	.st0{fill:#A0006E;}
	.st1{fill:#FFFFFF;}
</style><style
     type="text/css"
     id="style1-61">
	.st0{fill:#A50034;}
	.st1{fill:#FFFFFF;}
</style><style
     type="text/css"
     id="style1-81">
	.st0{fill:#A0006E;}
	.st1{fill:#FFFFFF;}
</style><style
     type="text/css"
     id="style1-3">
	.st0{fill:#A50034;}
	.st1{fill:#FFFFFF;}
</style><style
     type="text/css"
     id="style1-44">
	.st0{fill:#00643C;}
	.st1{fill:#FFFFFF;}
</style><style
     type="text/css"
     id="style1-17">
	.st0{fill:#FF1400;}
	.st1{fill:#FFFFFF;}
</style><style
     type="text/css"
     id="style1-21">
	.st0{fill:#A0006E;}
	.st1{fill:#FFFFFF;}
</style><style
     type="text/css"
     id="style1-5">
	.st0{fill:#A50034;}
	.st1{fill:#FFFFFF;}
</style><style
     type="text/css"
     id="style1-91">
	.st0{clip-path:url(#SVGID_00000098201985115563230220000009768346319938619311_);fill:#FFBE00;}
	.st1{clip-path:url(#SVGID_00000098201985115563230220000009768346319938619311_);}
</style><style
     type="text/css"
     id="style1-42">
	.st0{clip-path:url(#SVGID_00000183928663309176120780000013104923171821238933_);}
	.st1{clip-path:url(#SVGID_00000183928663309176120780000013104923171821238933_);fill:#00643C;}
</style><style
     type="text/css"
     id="style1-05">
	.st0{fill:#0055C8;}
	.st1{fill:#FFFFFF;}
</style><style
     type="text/css"
     id="style1-83">
	.st0{fill:#A0006E;}
	.st1{fill-rule:evenodd;clip-rule:evenodd;fill:#FFFFFF;}
</style><style
     type="text/css"
     id="style1-919">
	.st0{clip-path:url(#SVGID_00000078731935693763607030000003548581607173110711_);fill:#FF5A00;}
	.st1{clip-path:url(#SVGID_00000078731935693763607030000003548581607173110711_);}
</style><style
     type="text/css"
     id="style1-02">
	.st0{clip-path:url(#SVGID_00000150096942023713765520000004993609588893754020_);fill:#82DC73;}
	.st1{clip-path:url(#SVGID_00000150096942023713765520000004993609588893754020_);fill-rule:evenodd;clip-rule:evenodd;}
</style><style
     type="text/css"
     id="style1-46">
	.st0{clip-path:url(#SVGID_00000181044846058177552090000002983133674048675473_);fill:#FF82B4;}
	.st1{clip-path:url(#SVGID_00000181044846058177552090000002983133674048675473_);}
</style><style
     type="text/css"
     id="style1-92">
	.st0{clip-path:url(#SVGID_00000072993926488918334570000006738583468680211134_);fill:#D282BE;}
	.st1{clip-path:url(#SVGID_00000072993926488918334570000006738583468680211134_);fill-rule:evenodd;clip-rule:evenodd;}
</style><style
     type="text/css"
     id="style1-33">
	.st0{clip-path:url(#SVGID_00000064339783262407986210000012222916478051048107_);fill:#D2D200;}
	.st1{clip-path:url(#SVGID_00000064339783262407986210000012222916478051048107_);fill-rule:evenodd;clip-rule:evenodd;}
</style><style
     type="text/css"
     id="style1-87">
	.st0{fill:#6E491E;}
	.st1{fill:#FFFFFF;}
</style><style
     type="text/css"
     id="style1-37">
	.st0{fill:#00643C;}
	.st1{fill:#FFFFFF;}
</style><style
     type="text/css"
     id="style1-658">
	.st0{clip-path:url(#SVGID_00000049915170247895469800000011701411972755834513_);fill:#82C8E6;}
	.st1{clip-path:url(#SVGID_00000049915170247895469800000011701411972755834513_);}
</style><style
     type="text/css"
     id="style1-086">
	.st0{fill:#640082;}
	.st1{fill:#FFFFFF;}
</style><style
     type="text/css"
     id="style1-928">
	.st0{fill:#3C91DC;}
	.st1{fill:#FFFFFF;}
</style><style
     type="text/css"
     id="style1-15">
	.st0{fill:#00643C;}
	.st1{fill:#FFFFFF;}
</style><style
     type="text/css"
     id="style1-49">
	.st0{clip-path:url(#SVGID_00000166649342556954638810000014838129240428119200_);fill:#FF82B4;}
	.st1{clip-path:url(#SVGID_00000166649342556954638810000014838129240428119200_);}
</style><style
     type="text/css"
     id="style1-97">
	.st0{clip-path:url(#SVGID_00000163768187711672257180000008667317082056967563_);}
	.st1{clip-path:url(#SVGID_00000163768187711672257180000008667317082056967563_);fill:#FF5A00;}
</style><style
     type="text/css"
     id="style1-36">
	.st0{clip-path:url(#SVGID_00000058556901070580205580000017895544327468108430_);fill:#FFBE00;}
	.st1{clip-path:url(#SVGID_00000058556901070580205580000017895544327468108430_);}
</style><style
     type="text/css"
     id="style1-69">
	.st0{fill:#A50034;}
	.st1{fill:#FFFFFF;}
</style><style
     type="text/css"
     id="style1-12">
	.st0{clip-path:url(#SVGID_00000145737393370230384210000000292656057530498699_);}
	.st1{clip-path:url(#SVGID_00000145737393370230384210000000292656057530498699_);fill:#0055C8;}
</style></svg>
