<?xml version="1.0" encoding="UTF-8" standalone="no"?>
<!-- Created with Inkscape (http://www.inkscape.org/) -->

<svg
   width="233.11528mm"
   height="99.599541mm"
   viewBox="0 0 233.11528 99.599541"
   version="1.1"
   id="svg5"
   xml:space="preserve"
   sodipodi:docname="banner.svg"
   inkscape:version="1.2.2 (b0a8486541, 2022-12-01)"
   inkscape:export-filename="banner.png"
   inkscape:export-xdpi="209.20122"
   inkscape:export-ydpi="209.20122"
   xmlns:inkscape="http://www.inkscape.org/namespaces/inkscape"
   xmlns:sodipodi="http://sodipodi.sourceforge.net/DTD/sodipodi-0.dtd"
   xmlns:xlink="http://www.w3.org/1999/xlink"
   xmlns="http://www.w3.org/2000/svg"
   xmlns:svg="http://www.w3.org/2000/svg"><sodipodi:namedview
     id="namedview7"
     pagecolor="#505050"
     bordercolor="#eeeeee"
     borderopacity="1"
     inkscape:showpageshadow="0"
     inkscape:pageopacity="0"
     inkscape:pagecheckerboard="0"
     inkscape:deskcolor="#d1d1d1"
     inkscape:document-units="mm"
     showgrid="false"
     inkscape:zoom="1.1795779"
     inkscape:cx="417.09836"
     inkscape:cy="217.87455"
     inkscape:window-width="1920"
     inkscape:window-height="1024"
     inkscape:window-x="0"
     inkscape:window-y="28"
     inkscape:window-maximized="1"
     inkscape:current-layer="layer1" /><defs
     id="defs2"><inkscape:path-effect
       effect="bspline"
       id="path-effect14456"
       is_visible="true"
       lpeversion="1"
       weight="33.333333"
       steps="2"
       helper_size="0"
       apply_no_weight="true"
       apply_with_weight="true"
       only_selected="false" /><inkscape:path-effect
       effect="skeletal"
       id="path-effect14452"
       is_visible="true"
       lpeversion="1"
       pattern="M 0,4.9921384 C 0,2.236478 2.236478,0 4.9921384,0 c 2.7556605,0 4.9921385,2.236478 4.9921385,4.9921384 0,2.7556605 -2.236478,4.9921385 -4.9921385,4.9921385 C 2.236478,9.9842769 0,7.7477989 0,4.9921384 Z"
       copytype="single_stretched"
       prop_scale="1"
       scale_y_rel="false"
       spacing="0"
       normal_offset="0"
       tang_offset="0"
       prop_units="false"
       vertical_pattern="false"
       hide_knot="false"
       fuse_tolerance="0" /><inkscape:path-effect
       effect="skeletal"
       id="path-effect14448"
       is_visible="true"
       lpeversion="1"
       pattern="M 0,4.9921384 C 0,2.236478 2.236478,0 4.9921384,0 c 2.7556605,0 4.9921385,2.236478 4.9921385,4.9921384 0,2.7556605 -2.236478,4.9921385 -4.9921385,4.9921385 C 2.236478,9.9842769 0,7.7477989 0,4.9921384 Z"
       copytype="single_stretched"
       prop_scale="1"
       scale_y_rel="false"
       spacing="0"
       normal_offset="0"
       tang_offset="0"
       prop_units="false"
       vertical_pattern="false"
       hide_knot="false"
       fuse_tolerance="0" /><inkscape:path-effect
       effect="skeletal"
       id="path-effect14444"
       is_visible="true"
       lpeversion="1"
       pattern="M 0,4.9921384 C 0,2.236478 2.236478,0 4.9921384,0 c 2.7556605,0 4.9921385,2.236478 4.9921385,4.9921384 0,2.7556605 -2.236478,4.9921385 -4.9921385,4.9921385 C 2.236478,9.9842769 0,7.7477989 0,4.9921384 Z"
       copytype="single_stretched"
       prop_scale="1"
       scale_y_rel="false"
       spacing="0"
       normal_offset="0"
       tang_offset="0"
       prop_units="false"
       vertical_pattern="false"
       hide_knot="false"
       fuse_tolerance="0" /><linearGradient
       inkscape:collect="always"
       id="linearGradient8970"><stop
         style="stop-color:#a50034;stop-opacity:1;"
         offset="0"
         id="stop8966" /><stop
         style="stop-color:#7a0034;stop-opacity:1;"
         offset="1"
         id="stop8968" /></linearGradient><linearGradient
       inkscape:collect="always"
       id="linearGradient3501"><stop
         style="stop-color:#0a0082;stop-opacity:1;"
         offset="0"
         id="stop3497" /><stop
         style="stop-color:#0a0057;stop-opacity:1;"
         offset="1"
         id="stop3499" /></linearGradient><inkscape:path-effect
       effect="bspline"
       id="path-effect2650"
       is_visible="true"
       lpeversion="1"
       weight="33.333333"
       steps="2"
       helper_size="0"
       apply_no_weight="true"
       apply_with_weight="true"
       only_selected="false" /><linearGradient
       inkscape:collect="always"
       xlink:href="#linearGradient3501"
       id="linearGradient3503"
       x1="16.668598"
       y1="59.616328"
       x2="249.78388"
       y2="59.616328"
       gradientUnits="userSpaceOnUse" /><filter
       style="color-interpolation-filters:sRGB;"
       inkscape:label="Drop Shadow"
       id="filter6085"
       x="-0.1615735"
       y="-0.61435754"
       width="1.4039338"
       height="2.5358939"><feFlood
         flood-opacity="0.498039"
         flood-color="rgb(0,0,0)"
         result="flood"
         id="feFlood6075" /><feComposite
         in="flood"
         in2="SourceGraphic"
         operator="in"
         result="composite1"
         id="feComposite6077" /><feGaussianBlur
         in="composite1"
         stdDeviation="5"
         result="blur"
         id="feGaussianBlur6079" /><feOffset
         dx="6"
         dy="6"
         result="offset"
         id="feOffset6081" /><feComposite
         in="SourceGraphic"
         in2="offset"
         operator="over"
         result="fbSourceGraphic"
         id="feComposite6083" /><feColorMatrix
         result="fbSourceGraphicAlpha"
         in="fbSourceGraphic"
         values="0 0 0 -1 0 0 0 0 -1 0 0 0 0 -1 0 0 0 0 1 0"
         id="feColorMatrix6087" /><feFlood
         id="feFlood6089"
         flood-opacity="0.498039"
         flood-color="rgb(0,0,0)"
         result="flood"
         in="fbSourceGraphic" /><feComposite
         in2="fbSourceGraphic"
         id="feComposite6091"
         in="flood"
         operator="in"
         result="composite1" /><feGaussianBlur
         id="feGaussianBlur6093"
         in="composite1"
         stdDeviation="5"
         result="blur" /><feOffset
         id="feOffset6095"
         dx="6"
         dy="6"
         result="offset" /><feComposite
         in2="offset"
         id="feComposite6097"
         in="fbSourceGraphic"
         operator="over"
         result="composite2" /></filter><filter
       style="color-interpolation-filters:sRGB;"
       inkscape:label="Drop Shadow"
       id="filter7126"
       x="-7.8428401e-06"
       y="-2.9821152e-05"
       width="1.0404091"
       height="1.153649"><feFlood
         flood-opacity="0.12549"
         flood-color="rgb(0,0,0)"
         result="flood"
         id="feFlood7116" /><feComposite
         in="flood"
         in2="SourceGraphic"
         operator="in"
         result="composite1"
         id="feComposite7118" /><feGaussianBlur
         in="composite1"
         stdDeviation="0.00048540384"
         result="blur"
         id="feGaussianBlur7120" /><feOffset
         dx="6"
         dy="6"
         result="offset"
         id="feOffset7122" /><feComposite
         in="SourceGraphic"
         in2="offset"
         operator="over"
         result="composite2"
         id="feComposite7124" /></filter><linearGradient
       inkscape:collect="always"
       xlink:href="#linearGradient8970"
       id="linearGradient8972"
       x1="100.63904"
       y1="21.510608"
       x2="256.75928"
       y2="21.510608"
       gradientUnits="userSpaceOnUse" /></defs><g
     inkscape:label="Calque 1"
     inkscape:groupmode="layer"
     id="layer1"
     transform="translate(-16.668598,-9.8165579)"><rect
       style="fill:url(#linearGradient3503);fill-opacity:1;stroke-width:2.97924"
       id="rect234"
       width="233.11528"
       height="99.599541"
       x="16.668598"
       y="9.8165579" /><path
       style="fill:none;fill-opacity:1;stroke:#a50034;stroke-width:13;stroke-linecap:round;stroke-dasharray:none;stroke-opacity:1"
       d="M 56.876788,74.097126 V 114.8236 Z"
       id="path3" /><path
       style="fill:none;fill-opacity:1;stroke:url(#linearGradient8972);stroke-width:13;stroke-linecap:round;stroke-dasharray:none;stroke-opacity:1"
       d="M 256.75928,21.510608 H 100.63904 Z"
       id="path3-3" /><g
       aria-label="obiFer"
       id="text6287"
       style="font-weight:bold;font-size:50.8px;font-family:'Parisine Std';-inkscape-font-specification:'Parisine Std Bold';fill:#ffffff;stroke-width:13;filter:url(#filter7126)" /><circle
       style="fill:#ffad00;fill-opacity:1;stroke:none;stroke-width:7.63812;stroke-dasharray:none;stroke-opacity:1"
       id="path12698"
       cx="110.00335"
       cy="21.510609"
       r="5" /><circle
       style="fill:#ffffff;fill-opacity:1;stroke:none;stroke-width:7.63812;stroke-dasharray:none;stroke-opacity:1"
       id="circle13426"
       cx="231.71178"
       cy="21.510609"
       r="5" /><circle
       style="fill:#ffffff;fill-opacity:1;stroke:none;stroke-width:7.63812;stroke-dasharray:none;stroke-opacity:1"
       id="circle13428"
       cx="170.85756"
       cy="21.510609"
       r="5" /><path
       style="fill:none;fill-opacity:1;stroke:#a50034;stroke-width:13;stroke-dasharray:none;stroke-opacity:1"
       d="M 56.880571,51.961685 V 36.777767 c 0,0 -0.463354,-15.267209 15.267212,-15.267209 h 29.286747"
       id="path14458"
       sodipodi:nodetypes="ccsc" /><path
       class="st0"
       d="m 26.876788,70.139737 c 0,-16.577268 13.439153,-29.999987 29.989418,-29.999987 16.571429,0 30.010582,13.422719 30.010582,29.999987 0,16.577259 -13.417988,29.999943 -29.989418,29.999943 -16.571429,0.0212 -30.010582,-13.422684 -30.010582,-29.999943"
       id="path1"
       style="fill:#a50034;fill-opacity:1;stroke-width:0.211677" /><g
       id="g2"
       transform="matrix(0.21167008,0,0,0.21167007,26.876788,40.139752)"><path
         d="M 141.73,0 C 63.45,0 0,63.46 0,141.73 0,220 63.45,283.46 141.73,283.46 220.01,283.46 283.46,220 283.46,141.73 283.46,63.46 220.01,0 141.73,0 m 0,265.04 c -68.1,0 -123.31,-55.21 -123.31,-123.31 0,-68.1 55.21,-123.3 123.31,-123.3 68.1,0 123.3,55.2 123.3,123.3 0,68.1 -55.2,123.31 -123.3,123.31 m 70.51,-59.89 c 0,6.74 -5.32,10.63 -11.69,10.63 -5.68,0 -12.05,-3.89 -12.05,-10.63 v -92.12 h -0.35 l -35.08,71.57 c -2.48,4.96 -5.66,7.79 -11.34,7.79 -5.68,0 -8.86,-2.84 -11.34,-7.79 L 95.31,113.03 h -0.35 v 92.13 c 0,6.74 -6.38,10.63 -12.05,10.63 -6.38,0 -11.69,-3.89 -11.69,-10.63 V 81.5 c 0,-7.09 3.9,-14.53 15.59,-14.53 8.86,0 12.4,3.9 16.3,11.69 l 38.62,79.72 h 0.35 l 38.27,-79.72 c 3.89,-7.79 7.44,-11.69 16.29,-11.69 11.69,0 15.59,7.44 15.59,14.53 v 123.66"
         id="path1-5"
         style="fill:#ffffff;fill-opacity:1" /><path
         d="M 141.73,0 C 63.45,0 0,63.46 0,141.73 0,220 63.45,283.46 141.73,283.46 220.01,283.46 283.46,220 283.46,141.73 283.46,63.46 220.01,0 141.73,0 m 0,265.04 c -68.1,0 -123.31,-55.21 -123.31,-123.31 0,-68.1 55.21,-123.3 123.31,-123.3 68.1,0 123.3,55.2 123.3,123.3 0,68.1 -55.2,123.31 -123.3,123.31 m 70.51,-59.89 c 0,6.74 -5.32,10.63 -11.69,10.63 -5.68,0 -12.05,-3.89 -12.05,-10.63 v -92.12 h -0.35 l -35.08,71.57 c -2.48,4.96 -5.66,7.79 -11.34,7.79 -5.68,0 -8.86,-2.84 -11.34,-7.79 L 95.31,113.03 h -0.35 v 92.13 c 0,6.74 -6.38,10.63 -12.05,10.63 -6.38,0 -11.69,-3.89 -11.69,-10.63 V 81.5 c 0,-7.09 3.9,-14.53 15.59,-14.53 8.86,0 12.4,3.9 16.3,11.69 l 38.62,79.72 h 0.35 l 38.27,-79.72 c 3.89,-7.79 7.44,-11.69 16.29,-11.69 11.69,0 15.59,7.44 15.59,14.53 v 123.66"
         id="path2"
         style="fill:#ffffff;fill-opacity:1" /></g><g
       aria-label="obiFer"
       id="text1117"
       style="font-weight:bold;font-size:50.8px;font-family:'Parisine Std';-inkscape-font-specification:'Parisine Std Bold';fill:#ffffff;stroke-width:13"><path
         d="m 117.87852,75.194354 c 0,-7.7216 -3.9624,-14.5796 -12.8524,-14.5796 -8.7884,0 -13.1064,6.8072 -13.1064,14.478 0,7.721599 3.9624,14.579599 12.8524,14.579599 8.7884,0 13.1064,-6.8072 13.1064,-14.477999 z m -7.4168,0.0508 c 0,3.809999 -1.1684,8.839199 -5.6896,8.839199 -4.5212,0 -5.4356,-5.2324 -5.4356,-9.042399 0,-3.81 1.1684,-8.8392 5.6896,-8.8392 4.5212,0 5.4356,5.2324 5.4356,9.0424 z"
         id="path1373" /><path
         d="m 147.85054,74.838754 c 0,-6.5532 -2.9464,-14.1224 -10.0584,-14.1224 -3.4544,0 -5.5372,1.778 -7.366,4.4196 v -14.0208 h -7.1628 v 37.591999 h 6.9088 v -1.2192 c 1.3716,1.27 3.7592,2.0828 5.7912,2.0828 8.6868,0 11.8872,-8.636 11.8872,-14.731999 z m -7.4168,1.0668 c 0,3.708399 -1.1176,8.635999 -5.6896,8.635999 -3.2512,0 -4.3688,-1.6764 -4.3688,-3.556 v -9.194799 c 0,-1.5748 0.1524,-2.3368 1.3716,-3.5052 0.762,-0.762 1.8796,-1.3716 3.302,-1.3716 4.5212,0 5.3848,5.334 5.3848,8.9916 z"
         id="path1375" /><path
         d="m 161.21095,54.366354 c 0,-2.1844 -1.524,-3.7592 -3.9624,-3.7592 -2.4384,0 -4.0132,1.5748 -4.0132,3.7592 0,2.1844 1.5748,3.7592 4.0132,3.7592 2.4384,0 3.9624,-1.5748 3.9624,-3.7592 z m -0.4572,34.340799 V 61.579954 h -7.112 v 27.127199 z"
         id="path1377" /><path
         d="m 191.58932,59.344754 v -6.5024 h -22.4536 v 35.864799 h 7.9248 V 73.822754 h 14.0208 v -6.4008 h -14.0208 v -8.0772 z"
         id="path1379" /><path
         d="m 218.61491,73.416354 c 0,-6.2484 -3.0988,-12.7 -11.4808,-12.7 -8.6868,0 -12.5476,7.4676 -12.5476,14.6304 0,8.432799 5.334,14.223999 13.8176,14.223999 3.9624,0 7.5692,-1.1684 9.652,-2.1336 l -1.8796,-5.2832 c -1.4224,0.762 -4.0132,1.778 -6.4516,1.778 -4.572,0 -8.0772,-2.5908 -8.0772,-7.416799 0,-0.0508 0,-0.1016 0,-0.1524 h 16.8148 c 0.1016,-0.9144 0.1524,-2.0828 0.1524,-2.9464 z m -6.7056,-1.8796 h -10.414 c 0,-2.3876 1.27,-5.842 5.334,-5.842 3.6068,0 5.334,2.9972 5.08,5.842 z"
         id="path1381" /><path
         d="m 240.45893,61.427554 c -0.5588,-0.2032 -1.5748,-0.508 -2.5908,-0.508 -3.3528,0 -5.1308,2.1336 -6.7564,4.7244 v -4.064 h -6.4008 c 0.0508,1.27 0.254,4.5212 0.254,6.858 v 20.269199 h 7.112 V 72.349554 c 0,-1.4732 0.0508,-2.5908 1.016,-3.4544 0.6604,-0.6096 1.4732,-1.0668 2.9972,-1.0668 0.9652,0 1.9812,0.4572 2.4892,0.7112 z"
         id="path1383" /></g></g><style
     type="text/css"
     id="style1">
	.st0{fill:#A50034;}
	.st1{fill:#FFFFFF;}
</style></svg>
