<?xml version="1.0" encoding="UTF-8" standalone="no"?>
<!-- Created with Inkscape (http://www.inkscape.org/) -->

<svg
   width="233.11528mm"
   height="99.599541mm"
   viewBox="0 0 233.11528 99.599541"
   version="1.1"
   id="svg5"
   xml:space="preserve"
   sodipodi:docname="banner.svg"
   inkscape:version="1.2.2 (b0a8486541, 2022-12-01)"
   inkscape:export-filename="banner.png"
   inkscape:export-xdpi="96"
   inkscape:export-ydpi="96"
   xmlns:inkscape="http://www.inkscape.org/namespaces/inkscape"
   xmlns:sodipodi="http://sodipodi.sourceforge.net/DTD/sodipodi-0.dtd"
   xmlns:xlink="http://www.w3.org/1999/xlink"
   xmlns="http://www.w3.org/2000/svg"
   xmlns:svg="http://www.w3.org/2000/svg"><sodipodi:namedview
     id="namedview7"
     pagecolor="#505050"
     bordercolor="#eeeeee"
     borderopacity="1"
     inkscape:showpageshadow="0"
     inkscape:pageopacity="0"
     inkscape:pagecheckerboard="0"
     inkscape:deskcolor="#d1d1d1"
     inkscape:document-units="mm"
     showgrid="false"
     inkscape:zoom="1.1795779"
     inkscape:cx="417.09836"
     inkscape:cy="217.87455"
     inkscape:window-width="1920"
     inkscape:window-height="1024"
     inkscape:window-x="0"
     inkscape:window-y="28"
     inkscape:window-maximized="1"
     inkscape:current-layer="layer1" /><defs
     id="defs2"><inkscape:path-effect
       effect="bspline"
       id="path-effect14456"
       is_visible="true"
       lpeversion="1"
       weight="33.333333"
       steps="2"
       helper_size="0"
       apply_no_weight="true"
       apply_with_weight="true"
       only_selected="false" /><inkscape:path-effect
       effect="skeletal"
       id="path-effect14452"
       is_visible="true"
       lpeversion="1"
       pattern="M 0,4.9921384 C 0,2.236478 2.236478,0 4.9921384,0 c 2.7556605,0 4.9921385,2.236478 4.9921385,4.9921384 0,2.7556605 -2.236478,4.9921385 -4.9921385,4.9921385 C 2.236478,9.9842769 0,7.7477989 0,4.9921384 Z"
       copytype="single_stretched"
       prop_scale="1"
       scale_y_rel="false"
       spacing="0"
       normal_offset="0"
       tang_offset="0"
       prop_units="false"
       vertical_pattern="false"
       hide_knot="false"
       fuse_tolerance="0" /><inkscape:path-effect
       effect="skeletal"
       id="path-effect14448"
       is_visible="true"
       lpeversion="1"
       pattern="M 0,4.9921384 C 0,2.236478 2.236478,0 4.9921384,0 c 2.7556605,0 4.9921385,2.236478 4.9921385,4.9921384 0,2.7556605 -2.236478,4.9921385 -4.9921385,4.9921385 C 2.236478,9.9842769 0,7.7477989 0,4.9921384 Z"
       copytype="single_stretched"
       prop_scale="1"
       scale_y_rel="false"
       spacing="0"
       normal_offset="0"
       tang_offset="0"
       prop_units="false"
       vertical_pattern="false"
       hide_knot="false"
       fuse_tolerance="0" /><inkscape:path-effect
       effect="skeletal"
       id="path-effect14444"
       is_visible="true"
       lpeversion="1"
       pattern="M 0,4.9921384 C 0,2.236478 2.236478,0 4.9921384,0 c 2.7556605,0 4.9921385,2.236478 4.9921385,4.9921384 0,2.7556605 -2.236478,4.9921385 -4.9921385,4.9921385 C 2.236478,9.9842769 0,7.7477989 0,4.9921384 Z"
       copytype="single_stretched"
       prop_scale="1"
       scale_y_rel="false"
       spacing="0"
       normal_offset="0"
       tang_offset="0"
       prop_units="false"
       vertical_pattern="false"
       hide_knot="false"
       fuse_tolerance="0" /><linearGradient
       inkscape:collect="always"
       id="linearGradient8970"><stop
         style="stop-color:#a50034;stop-opacity:1;"
         offset="0"
         id="stop8966" /><stop
         style="stop-color:#7a0034;stop-opacity:1;"
         offset="1"
         id="stop8968" /></linearGradient><linearGradient
       inkscape:collect="always"
       id="linearGradient3501"><stop
         style="stop-color:#0a0082;stop-opacity:1;"
         offset="0"
         id="stop3497" /><stop
         style="stop-color:#0a0057;stop-opacity:1;"
         offset="1"
         id="stop3499" /></linearGradient><inkscape:path-effect
       effect="bspline"
       id="path-effect2650"
       is_visible="true"
       lpeversion="1"
       weight="33.333333"
       steps="2"
       helper_size="0"
       apply_no_weight="true"
       apply_with_weight="true"
       only_selected="false" /><linearGradient
       inkscape:collect="always"
       xlink:href="#linearGradient3501"
       id="linearGradient3503"
       x1="16.668598"
       y1="59.616328"
       x2="249.78388"
       y2="59.616328"
       gradientUnits="userSpaceOnUse" /><filter
       style="color-interpolation-filters:sRGB;"
       inkscape:label="Drop Shadow"
       id="filter6085"
       x="-0.1615735"
       y="-0.61435754"
       width="1.4039338"
       height="2.5358939"><feFlood
         flood-opacity="0.498039"
         flood-color="rgb(0,0,0)"
         result="flood"
         id="feFlood6075" /><feComposite
         in="flood"
         in2="SourceGraphic"
         operator="in"
         result="composite1"
         id="feComposite6077" /><feGaussianBlur
         in="composite1"
         stdDeviation="5"
         result="blur"
         id="feGaussianBlur6079" /><feOffset
         dx="6"
         dy="6"
         result="offset"
         id="feOffset6081" /><feComposite
         in="SourceGraphic"
         in2="offset"
         operator="over"
         result="fbSourceGraphic"
         id="feComposite6083" /><feColorMatrix
         result="fbSourceGraphicAlpha"
         in="fbSourceGraphic"
         values="0 0 0 -1 0 0 0 0 -1 0 0 0 0 -1 0 0 0 0 1 0"
         id="feColorMatrix6087" /><feFlood
         id="feFlood6089"
         flood-opacity="0.498039"
         flood-color="rgb(0,0,0)"
         result="flood"
         in="fbSourceGraphic" /><feComposite
         in2="fbSourceGraphic"
         id="feComposite6091"
         in="flood"
         operator="in"
         result="composite1" /><feGaussianBlur
         id="feGaussianBlur6093"
         in="composite1"
         stdDeviation="5"
         result="blur" /><feOffset
         id="feOffset6095"
         dx="6"
         dy="6"
         result="offset" /><feComposite
         in2="offset"
         id="feComposite6097"
         in="fbSourceGraphic"
         operator="over"
         result="composite2" /></filter><filter
       style="color-interpolation-filters:sRGB;"
       inkscape:label="Drop Shadow"
       id="filter7126"
       x="-7.8428401e-06"
       y="-2.9821152e-05"
       width="1.0404091"
       height="1.153649"><feFlood
         flood-opacity="0.12549"
         flood-color="rgb(0,0,0)"
         result="flood"
         id="feFlood7116" /><feComposite
         in="flood"
         in2="SourceGraphic"
         operator="in"
         result="composite1"
         id="feComposite7118" /><feGaussianBlur
         in="composite1"
         stdDeviation="0.00048540384"
         result="blur"
         id="feGaussianBlur7120" /><feOffset
         dx="6"
         dy="6"
         result="offset"
         id="feOffset7122" /><feComposite
         in="SourceGraphic"
         in2="offset"
         operator="over"
         result="composite2"
         id="feComposite7124" /></filter><linearGradient
       inkscape:collect="always"
       xlink:href="#linearGradient8970"
       id="linearGradient8972"
       x1="100.63904"
       y1="21.510608"
       x2="256.75928"
       y2="21.510608"
       gradientUnits="userSpaceOnUse" /></defs><g
     inkscape:label="Calque 1"
     inkscape:groupmode="layer"
     id="layer1"
     transform="translate(-16.668598,-9.8165579)"><rect
       style="fill:url(#linearGradient3503);fill-opacity:1;stroke-width:2.97924"
       id="rect234"
       width="233.11528"
       height="99.599541"
       x="16.668598"
       y="9.8165579" /><path
       style="fill:none;fill-opacity:1;stroke:#a50034;stroke-width:13;stroke-linecap:round;stroke-dasharray:none;stroke-opacity:1"
       d="M 56.876788,74.097126 V 114.8236 Z"
       id="path3" /><path
       style="fill:none;fill-opacity:1;stroke:url(#linearGradient8972);stroke-width:13;stroke-linecap:round;stroke-dasharray:none;stroke-opacity:1"
       d="M 256.75928,21.510608 H 100.63904 Z"
       id="path3-3" /><g
       aria-label="obiFer"
       id="text6287"
       style="font-weight:bold;font-size:50.8px;font-family:'Parisine Std';-inkscape-font-specification:'Parisine Std Bold';fill:#ffffff;stroke-width:13;filter:url(#filter7126)" /><circle
       style="fill:#ffad00;fill-opacity:1;stroke:none;stroke-width:7.63812;stroke-dasharray:none;stroke-opacity:1"
       id="path12698"
       cx="110.00335"
       cy="21.510609"
       r="5" /><circle
       style="fill:#ffffff;fill-opacity:1;stroke:none;stroke-width:7.63812;stroke-dasharray:none;stroke-opacity:1"
       id="circle13426"
       cx="231.71178"
       cy="21.510609"
       r="5" /><circle
       style="fill:#ffffff;fill-opacity:1;stroke:none;stroke-width:7.63812;stroke-dasharray:none;stroke-opacity:1"
       id="circle13428"
       cx="170.85756"
       cy="21.510609"
       r="5" /><path
       style="fill:none;fill-opacity:1;stroke:#a50034;stroke-width:13;stroke-dasharray:none;stroke-opacity:1"
       d="M 56.880571,51.961685 V 36.777767 c 0,0 -0.463354,-15.267209 15.267212,-15.267209 h 29.286747"
       id="path14458"
       sodipodi:nodetypes="ccsc" /><path
       class="st0"
       d="m 26.876788,70.139737 c 0,-16.577268 13.439153,-29.999987 29.989418,-29.999987 16.571429,0 30.010582,13.422719 30.010582,29.999987 0,16.577259 -13.417988,29.999943 -29.989418,29.999943 -16.571429,0.0212 -30.010582,-13.422684 -30.010582,-29.999943"
       id="path1"
       style="fill:#a50034;fill-opacity:1;stroke-width:0.211677" /><g
       id="g2"
       transform="matrix(0.21167008,0,0,0.21167007,26.876788,40.139752)"><path
         d="M 141.73,0 C 63.45,0 0,63.46 0,141.73 0,220 63.45,283.46 141.73,283.46 220.01,283.46 283.46,220 283.46,141.73 283.46,63.46 220.01,0 141.73,0 m 0,265.04 c -68.1,0 -123.31,-55.21 -123.31,-123.31 0,-68.1 55.21,-123.3 123.31,-123.3 68.1,0 123.3,55.2 123.3,123.3 0,68.1 -55.2,123.31 -123.3,123.31 m 70.51,-59.89 c 0,6.74 -5.32,10.63 -11.69,10.63 -5.68,0 -12.05,-3.89 -12.05,-10.63 v -92.12 h -0.35 l -35.08,71.57 c -2.48,4.96 -5.66,7.79 -11.34,7.79 -5.68,0 -8.86,-2.84 -11.34,-7.79 L 95.31,113.03 h -0.35 v 92.13 c 0,6.74 -6.38,10.63 -12.05,10.63 -6.38,0 -11.69,-3.89 -11.69,-10.63 V 81.5 c 0,-7.09 3.9,-14.53 15.59,-14.53 8.86,0 12.4,3.9 16.3,11.69 l 38.62,79.72 h 0.35 l 38.27,-79.72 c 3.89,-7.79 7.44,-11.69 16.29,-11.69 11.69,0 15.59,7.44 15.59,14.53 v 123.66"
         id="path1-5"
         style="fill:#ffffff;fill-opacity:1" /><path
         d="M 141.73,0 C 63.45,0 0,63.46 0,141.73 0,220 63.45,283.46 141.73,283.46 220.01,283.46 283.46,220 283.46,141.73 283.46,63.46 220.01,0 141.73,0 m 0,265.04 c -68.1,0 -123.31,-55.21 -123.31,-123.31 0,-68.1 55.21,-123.3 123.31,-123.3 68.1,0 123.3,55.2 123.3,123.3 0,68.1 -55.2,123.31 -123.3,123.31 m 70.51,-59.89 c 0,6.74 -5.32,10.63 -11.69,10.63 -5.68,0 -12.05,-3.89 -12.05,-10.63 v -92.12 h -0.35 l -35.08,71.57 c -2.48,4.96 -5.66,7.79 -11.34,7.79 -5.68,0 -8.86,-2.84 -11.34,-7.79 L 95.31,113.03 h -0.35 v 92.13 c 0,6.74 -6.38,10.63 -12.05,10.63 -6.38,0 -11.69,-3.89 -11.69,-10.63 V 81.5 c 0,-7.09 3.9,-14.53 15.59,-14.53 8.86,0 12.4,3.9 16.3,11.69 l 38.62,79.72 h 0.35 l 38.27,-79.72 c 3.89,-7.79 7.44,-11.69 16.29,-11.69 11.69,0 15.59,7.44 15.59,14.53 v 123.66"
         id="path2"
         style="fill:#ffffff;fill-opacity:1" /></g><text
       xml:space="preserve"
       style="font-weight:bold;font-size:50.8px;font-family:'Parisine Std';-inkscape-font-specification:'Parisine Std Bold';fill:#ffffff;fill-opacity:1;stroke:none;stroke-width:13"
       x="90.19252"
       y="88.707153"
       id="text1117"><tspan
         sodipodi:role="line"
         id="tspan1115"
         style="fill:#ffffff;fill-opacity:1;stroke:none;stroke-width:13"
         x="90.19252"
         y="88.707153">obiFer</tspan></text></g><style
     type="text/css"
     id="style1">
	.st0{fill:#A50034;}
	.st1{fill:#FFFFFF;}
</style></svg>
