<?xml version="1.0" encoding="UTF-8" standalone="no"?>
<!-- Created with Inkscape (http://www.inkscape.org/) -->

<svg
   width="67.73333mm"
   height="67.73333mm"
   viewBox="0 0 67.73333 67.73333"
   version="1.1"
   id="svg1"
   inkscape:version="1.3.2 (091e20e, 2023-11-25)"
   sodipodi:docname="favicon.svg"
   xml:space="preserve"
   inkscape:export-filename="favicon.png"
   inkscape:export-xdpi="48.000004"
   inkscape:export-ydpi="48.000004"
   xmlns:inkscape="http://www.inkscape.org/namespaces/inkscape"
   xmlns:sodipodi="http://sodipodi.sourceforge.net/DTD/sodipodi-0.dtd"
   xmlns="http://www.w3.org/2000/svg"
   xmlns:svg="http://www.w3.org/2000/svg"><sodipodi:namedview
     id="namedview1"
     pagecolor="#505050"
     bordercolor="#eeeeee"
     borderopacity="1"
     inkscape:showpageshadow="0"
     inkscape:pageopacity="0"
     inkscape:pagecheckerboard="0"
     inkscape:deskcolor="#505050"
     inkscape:document-units="mm"
     inkscape:zoom="2.3693724"
     inkscape:cx="132.10249"
     inkscape:cy="121.12912"
     inkscape:window-width="1920"
     inkscape:window-height="1026"
     inkscape:window-x="0"
     inkscape:window-y="26"
     inkscape:window-maximized="1"
     inkscape:current-layer="layer1" /><defs
     id="defs1">
	
	
</defs><g
     inkscape:label="Calque 1"
     inkscape:groupmode="layer"
     id="layer1"
     transform="translate(-22.548147,-36.61372)"><rect
       style="fill:#0a0082;stroke-width:0.499999;stroke-linecap:round;fill-opacity:1"
       id="rect1"
       width="67.73333"
       height="67.73333"
       x="22.548147"
       y="36.61372" /><path
       style="fill:none;fill-opacity:1;stroke:#ffbe00;stroke-width:13;stroke-linecap:round;stroke-dasharray:none;stroke-opacity:1"
       d="M 56.414812,70.204424 V 110.93092 Z"
       id="path3" /><path
       class="st0"
       d="m 31.414812,70.480374 c 0,-13.814391 11.199294,-24.99999 24.991182,-24.99999 13.809524,0 25.008818,11.185599 25.008818,24.99999 0,13.814385 -11.181657,24.99999 -24.991182,24.99999 -13.809524,0.01766 -25.008818,-11.185605 -25.008818,-24.99999"
       id="path1"
       style="stroke-width:0.176398;fill:#ffbe00;fill-opacity:1" /><g
       id="g2"
       transform="matrix(0.17639173,0,0,0.17639173,31.414812,45.480385)"><path
         d="M 141.73,0 C 63.45,0 0,63.46 0,141.73 0,220 63.45,283.46 141.73,283.46 220.01,283.46 283.46,220 283.46,141.73 283.46,63.46 220.01,0 141.73,0 m 0,265.04 c -68.1,0 -123.31,-55.21 -123.31,-123.31 0,-68.1 55.21,-123.3 123.31,-123.3 68.1,0 123.3,55.2 123.3,123.3 0,68.1 -55.2,123.31 -123.3,123.31 m 70.51,-59.89 c 0,6.74 -5.32,10.63 -11.69,10.63 -5.68,0 -12.05,-3.89 -12.05,-10.63 v -92.12 h -0.35 l -35.08,71.57 c -2.48,4.96 -5.66,7.79 -11.34,7.79 -5.68,0 -8.86,-2.84 -11.34,-7.79 L 95.31,113.03 h -0.35 v 92.13 c 0,6.74 -6.38,10.63 -12.05,10.63 -6.38,0 -11.69,-3.89 -11.69,-10.63 V 81.5 c 0,-7.09 3.9,-14.53 15.59,-14.53 8.86,0 12.4,3.9 16.3,11.69 l 38.62,79.72 h 0.35 l 38.27,-79.72 c 3.89,-7.79 7.44,-11.69 16.29,-11.69 11.69,0 15.59,7.44 15.59,14.53 v 123.66"
         id="path1-5"
         style="fill:#000000;fill-opacity:1" /><path
         d="M 141.73,0 C 63.45,0 0,63.46 0,141.73 0,220 63.45,283.46 141.73,283.46 220.01,283.46 283.46,220 283.46,141.73 283.46,63.46 220.01,0 141.73,0 m 0,265.04 c -68.1,0 -123.31,-55.21 -123.31,-123.31 0,-68.1 55.21,-123.3 123.31,-123.3 68.1,0 123.3,55.2 123.3,123.3 0,68.1 -55.2,123.31 -123.3,123.31 m 70.51,-59.89 c 0,6.74 -5.32,10.63 -11.69,10.63 -5.68,0 -12.05,-3.89 -12.05,-10.63 v -92.12 h -0.35 l -35.08,71.57 c -2.48,4.96 -5.66,7.79 -11.34,7.79 -5.68,0 -8.86,-2.84 -11.34,-7.79 L 95.31,113.03 h -0.35 v 92.13 c 0,6.74 -6.38,10.63 -12.05,10.63 -6.38,0 -11.69,-3.89 -11.69,-10.63 V 81.5 c 0,-7.09 3.9,-14.53 15.59,-14.53 8.86,0 12.4,3.9 16.3,11.69 l 38.62,79.72 h 0.35 l 38.27,-79.72 c 3.89,-7.79 7.44,-11.69 16.29,-11.69 11.69,0 15.59,7.44 15.59,14.53 v 123.66"
         id="path2"
         style="fill:#000000;fill-opacity:1" /></g></g><style
     type="text/css"
     id="style1">
	.st0{fill:#A50034;}
	.st1{fill:#FFFFFF;}
</style></svg>
