<?xml version="1.0" encoding="UTF-8"?><svg xmlns="http://www.w3.org/2000/svg" viewBox="0 0 283.46 283.47"><defs><style>.d{fill:#fff;}.e{fill:#64b5e5;}</style></defs><g id="a"/><g id="b"><g id="c"><g><path class="d" d="M265.04,219.68V63.78c0-25.05-20.31-45.36-45.36-45.36H63.78c-25.05,0-45.36,20.31-45.36,45.36V219.68c0,25.05,20.31,45.36,45.36,45.36H219.68c25.05,0,45.36-20.31,45.36-45.36"/><path class="e" d="M219.69,283.47H63.78c-35.22,0-63.78-28.56-63.78-63.78V63.78C0,28.56,28.55,0,63.78,0H219.69c35.22,0,63.78,28.56,63.78,63.78V219.69c0,35.22-28.55,63.78-63.78,63.78m45.35-63.78V63.78c0-25.05-20.31-45.36-45.35-45.36H63.78c-25.05,0-45.35,20.31-45.35,45.36V219.69c0,25.05,20.31,45.35,45.35,45.35H219.69c25.05,0,45.35-20.31,45.35-45.35"/><path d="M212.57,74.75c0-1.77-1.24-3.35-2.98-3.73-1.5-.33-3.27-.07-4.77,.11-3.42,.41-6.77,1.44-9.84,3.02-2.78,1.45-5.3,3.35-7.46,5.6h0l-21.13,21.12-76-5.08c-1.19-.08-2.86,.55-3.71,1.39l-8.66,8.66c-3,3.01-2.17,6.57,1.86,7.92l55.6,18.64c-15.89,16.22-29.03,31.02-36.69,41.07l-21.68-3.07c-.65-.09-1.55,.21-2.01,.66l-3.36,3.3c-1.31,1.3-1.03,3.02,.62,3.84l22.02,10.92,10.92,22.03c.82,1.65,2.55,1.93,3.85,.62l3.29-3.35c.45-.47,.75-1.37,.66-2.02l-3.07-21.69c10.05-7.65,24.84-20.8,41.06-36.69l18.64,55.6c1.35,4.03,4.92,4.87,7.92,1.86l8.66-8.66c.84-.84,1.47-2.51,1.39-3.7l-5.08-76,21.13-21.13h0c5.73-5.52,8.95-13.3,8.81-21.25"/></g></g></g></svg>