<svg xmlns="http://www.w3.org/2000/svg" width="120" height="77" viewBox="0 0 126 81"><path fill-rule="evenodd" clip-rule="evenodd" fill="#FF1400" d="M0 0h120v77H0z"/><path fill="#FFF" d="M72.246 7.386a18.38 18.38 0 0 0-12.244 4.656 18.366 18.366 0 0 0-12.246-4.656c-10.19 0-18.454 8.258-18.454 18.45 0 10.19 8.263 18.45 18.454 18.45 4.7 0 8.989-1.761 12.246-4.655a18.384 18.384 0 0 0 12.244 4.655c10.189 0 18.451-8.26 18.451-18.45 0-10.192-8.261-18.45-18.451-18.45zM47.756 42.1c-8.985 0-16.267-7.28-16.267-16.264 0-8.984 7.281-16.265 16.267-16.265 8.984 0 16.263 7.28 16.263 16.265C64.02 34.819 56.74 42.1 47.756 42.1zm30.049-4.196s-1.152-3.483-4.5-3.485c-3.348.002-4.506 3.485-4.506 3.485h-4.113s3.352-4.009 5.268-8.761c2.27-5.62 2.344-10.723 2.344-13.542 0-.37-.008-.647-.152-.822-.221-.265-.211-.763-.211-.763V12.87l.652-.656c.236-.246.385-.58.385-.945v-1.061s.049-.131.234-.132h.191c.188.001.236.132.236.132v1.061c0 .365.146.699.383.945l.654.656v1.146s.008.498-.213.763c-.145.175-.152.452-.152.822 0 2.819.076 7.922 2.344 13.542 1.916 4.752 5.266 8.761 5.266 8.761h-4.11zM55.001 20.035a340.74 340.74 0 0 0-4.31 3.248l-11.092-1.555c-.208-.029-.522.048-.688.181l-1.237.925 7.868 4.431a497.55 497.55 0 0 0-4.004 3.15 1.227 1.227 0 0 1-.79.246l-4.468-.574a1.078 1.078 0 0 0-.8.229l-.811.604 4.151 2.901c.8.555 6.628-2.518 8.93-4.059 1.961-1.314 8.545-6.275 9.961-7.496 1.421-1.213 2.551-2.715 2.12-3.287-.341-.45-3.255-.101-4.83 1.056zm18.821 7.986h-1.029c-.191 0-.318.078-.375.34-.006.025-.531 2.456-.949 3.905h3.68c-.418-1.449-.943-3.88-.949-3.905-.057-.262-.184-.34-.378-.34z"/><g fill="#FFF"><path d="M35.48 57.155c0 1.509-.224 2.779-.67 3.815-.446 1.038-1.015 1.882-1.709 2.53a6.262 6.262 0 0 1-2.323 1.403 7.99 7.99 0 0 1-2.532.429c-.963 0-1.88-.141-2.75-.415a5.777 5.777 0 0 1-2.29-1.384c-.658-.642-1.179-1.486-1.566-2.531-.388-1.044-.581-2.326-.581-3.848 0-1.501.222-2.772.668-3.811.447-1.038 1.016-1.882 1.708-2.53a6.278 6.278 0 0 1 2.324-1.404 8.027 8.027 0 0 1 2.532-.426c.965 0 1.879.137 2.75.418a5.657 5.657 0 0 1 2.289 1.38c.656.642 1.181 1.483 1.567 2.53.388 1.045.583 2.327.583 3.844m-3.508 0c0-.714-.063-1.4-.187-2.059a5.4 5.4 0 0 0-.617-1.72 3.363 3.363 0 0 0-1.137-1.173c-.47-.291-1.057-.438-1.762-.438s-1.298.146-1.773.438a3.322 3.322 0 0 0-1.147 1.173 5.177 5.177 0 0 0-.607 1.72 11.655 11.655 0 0 0-.176 2.059c0 .733.063 1.424.188 2.072.123.652.332 1.223.617 1.712.287.487.666.878 1.135 1.171.472.292 1.059.438 1.764.438s1.297-.146 1.775-.438a3.364 3.364 0 0 0 1.146-1.171c.286-.489.488-1.06.605-1.712a11.56 11.56 0 0 0 .176-2.072M43.915 56.214a5.235 5.235 0 0 0-.47-.195 1.7 1.7 0 0 0-.603-.11c-.336 0-.599.043-.789.132a1.865 1.865 0 0 0-.503.33c-.206.19-.331.403-.375.645-.042.24-.064.524-.064.844v7.06h-3.068v-8.746a34.646 34.646 0 0 0-.044-1.656c-.015-.271-.029-.521-.044-.755s-.022-.417-.022-.549h2.738v1.754c.187-.279.375-.542.567-.789.192-.249.402-.464.629-.646.226-.185.482-.328.766-.438.286-.11.612-.164.976-.164.219 0 .432.024.637.077.205.05.364.098.481.143l-.812 3.063zM46.633 48.698H49.7v16.22h-3.067zM58.269 65.571a7.663 7.663 0 0 1-.667 1.558c-.271.467-.61.879-1.02 1.237a4.845 4.845 0 0 1-1.479.866c-.577.219-1.259.357-2.048.416l-.285-2.365c.246 0 .513-.027.799-.077a2.79 2.79 0 0 0 .799-.274c.25-.131.473-.303.668-.517.198-.21.34-.484.428-.82l-3.989-12.383h3.375l1.621 6.642c.133.526.247 1.039.341 1.534.095.495.156.832.187 1.008h.043c.072-.307.154-.681.243-1.119.088-.437.195-.913.327-1.423l1.689-6.642h2.891l-3.923 12.359zM76.172 60.116c0 .979-.193 1.777-.58 2.399a4.297 4.297 0 0 1-1.496 1.468 6.094 6.094 0 0 1-2.047.733c-.75.133-1.49.201-2.221.201h-5.619V49.443h5.871c.629 0 1.275.047 1.939.145.666.095 1.268.28 1.809.556.541.279.984.679 1.336 1.195.352.519.525 1.193.525 2.026 0 .396-.074.767-.219 1.119a3.182 3.182 0 0 1-1.357 1.566 2.906 2.906 0 0 1-.898.341v.043c.406.059.787.182 1.141.362.357.184.666.429.936.733.27.307.482.679.641 1.119.159.44.239.928.239 1.468m-3.834-6.29c0-.452-.105-.803-.318-1.053a1.863 1.863 0 0 0-.777-.537 3.483 3.483 0 0 0-.986-.186c-.35-.014-.666-.021-.943-.021h-1.688v3.55h1.732c.293 0 .611-.008.953-.021.342-.016.666-.078.963-.188.301-.108.553-.284.76-.525.2-.24.304-.58.304-1.019m.328 6.202c0-.483-.113-.856-.34-1.128s-.504-.468-.832-.591a3.852 3.852 0 0 0-1.053-.231 13.335 13.335 0 0 0-.975-.044h-1.842v4.317h2.018a8.21 8.21 0 0 0 1.139-.076c.367-.051.688-.161.965-.33.277-.167.502-.4.668-.7.168-.3.252-.707.252-1.217M85.377 64.918v-1.45a5 5 0 0 1-1.359 1.328c-.51.33-1.139.491-1.883.491-.629 0-1.172-.102-1.621-.307a2.854 2.854 0 0 1-1.107-.854 3.655 3.655 0 0 1-.637-1.282 5.785 5.785 0 0 1-.207-1.587v-8.045h3.068v7.408c0 .599.121 1.086.371 1.457.25.372.666.56 1.248.56.293 0 .551-.051.777-.155.227-.1.412-.232.561-.393.264-.276.424-.528.482-.746.059-.219.086-.525.086-.92v-7.211h3.07v11.706h-2.849zM98.941 61.409c0 .57-.113 1.093-.34 1.566a3.584 3.584 0 0 1-.963 1.228c-.416.344-.932.611-1.547.798-.613.191-1.301.285-2.061.285-.744 0-1.42-.098-2.025-.293-.605-.197-1.078-.398-1.414-.604l.943-2.256c.379.262.813.475 1.301.636.492.16.969.239 1.438.239.205 0 .412-.018.627-.055.209-.039.402-.102.578-.197.178-.094.318-.22.428-.372.111-.154.164-.347.164-.581 0-.219-.061-.404-.186-.559s-.275-.286-.449-.395a3.012 3.012 0 0 0-.559-.273c-.199-.072-.375-.14-.537-.197l-.965-.372c-.76-.294-1.369-.686-1.828-1.175-.463-.489-.689-1.164-.689-2.027 0-.554.105-1.071.328-1.554a3.7 3.7 0 0 1 .939-1.26c.41-.358.895-.64 1.459-.844a5.412 5.412 0 0 1 1.873-.308c.744 0 1.379.088 1.906.263s.943.344 1.25.504l-.945 2.257a4.226 4.226 0 0 0-1.148-.515 4.423 4.423 0 0 0-1.217-.186c-.629 0-1.055.127-1.281.383s-.34.514-.34.777c0 .177.045.33.131.461.088.133.201.249.34.351.141.103.289.19.449.264.16.071.314.13.461.173l1.029.375c.41.161.789.336 1.141.525.35.191.654.422.91.702.254.276.451.598.592.964.139.368.207.789.207 1.272"/></g></svg>