<svg xmlns="http://www.w3.org/2000/svg" width="120" height="77" viewBox="0 0 126 81"><path fill-rule="evenodd" clip-rule="evenodd" fill="#ff1400" d="M0 0h120v77H0z"/><path d="M96.459 60.572c0 .396-.031.697-.09.922-.06.221-.221.471-.486.745a1.754 1.754 0 0 1-.561.401c-.23.102-.489.148-.784.148-.592 0-1.011-.184-1.259-.559-.253-.373-.375-.859-.375-1.466v-7.418h-3.089v8.056c0 .572.071 1.104.21 1.594s.352.918.641 1.285c.285.364.657.648 1.109.854.46.203 1.003.306 1.635.306.752 0 1.383-.16 1.896-.494.519-.328.975-.77 1.371-1.326l.004 1.45h2.863V53.347h-3.086v7.225m-9.97-2.908a3.084 3.084 0 0 0-.951-.737 3.53 3.53 0 0 0-1.157-.364v-.043a2.96 2.96 0 0 0 .901-.344 3.205 3.205 0 0 0 1.361-1.568c.148-.347.223-.724.223-1.12 0-.834-.178-1.509-.526-2.031a3.598 3.598 0 0 0-1.347-1.193 5.868 5.868 0 0 0-1.815-.562 13.786 13.786 0 0 0-1.948-.14h-5.73v15.509h5.496c.732 0 1.479-.066 2.236-.199a6.207 6.207 0 0 0 2.061-.733 4.357 4.357 0 0 0 1.512-1.476c.387-.624.582-1.423.582-2.406a4.28 4.28 0 0 0-.24-1.472 3.503 3.503 0 0 0-.658-1.121zm-7.731-5.547h1.876c.277 0 .721.009 1.071.021.353.016.683.076.987.186.31.117.57.294.782.543.214.255.319.605.319 1.063 0 .445-.104.787-.308 1.03-.208.245-.458.42-.76.534-.3.11-.623.171-.963.188-.345.016-.666.021-.956.021h-2.05v-3.586zm5.117 9.269c-.169.3-.389.529-.675.7-.274.168-.596.279-.963.33s-.748.078-1.146.078h-2.333V58.17h2.159c.28 0 .604.013.982.043a3.85 3.85 0 0 1 1.053.233c.328.122.609.317.836.589.227.272.343.654.343 1.132 0 .517-.09.919-.256 1.219zm26.233-1.102a3.019 3.019 0 0 0-.598-.969 3.382 3.382 0 0 0-.916-.698 9.808 9.808 0 0 0-1.145-.526l-1.031-.376a3.504 3.504 0 0 1-.461-.176 2.438 2.438 0 0 1-.453-.259 1.451 1.451 0 0 1-.341-.351.804.804 0 0 1-.132-.459c0-.262.113-.522.34-.773.23-.257.658-.383 1.289-.383.381 0 .786.063 1.222.186.433.122.817.295 1.157.517l.945-2.267c-.307-.168-.727-.334-1.256-.51-.525-.176-1.168-.262-1.916-.262-.689 0-1.318.098-1.881.303a4.503 4.503 0 0 0-1.466.848 3.672 3.672 0 0 0-.95 1.262 3.702 3.702 0 0 0-.33 1.558c0 .866.23 1.548.695 2.036.461.49 1.074.877 1.839 1.176l.972.369c.158.063.338.129.538.201.198.068.386.162.563.27.174.111.326.244.453.396a.865.865 0 0 1 .187.557.986.986 0 0 1-.165.581c-.11.154-.255.276-.431.371a1.79 1.79 0 0 1-.585.198 3.492 3.492 0 0 1-.629.059c-.466 0-.949-.084-1.444-.246a4.943 4.943 0 0 1-1.312-.633l-.947 2.262c.338.203.814.402 1.422.604a6.663 6.663 0 0 0 2.037.293c.766 0 1.457-.094 2.076-.283.615-.191 1.131-.46 1.551-.801.416-.345.741-.754.969-1.229.225-.476.341-.998.341-1.569a3.574 3.574 0 0 0-.207-1.277zm-88.876 2.293c-.309-.458-.618-.919-.935-1.38-.316-.463-.603-.9-.87-1.313-.266-.407-.505-.776-.713-1.103a10.424 10.424 0 0 1-.474-.783c.338-.058.388-.174.783-.348a3.843 3.843 0 0 0 1.102-.752c.34-.322.623-.723.85-1.195.228-.479.342-1.039.342-1.68 0-.721-.115-1.326-.342-1.828a3.69 3.69 0 0 0-.893-1.238 4.126 4.126 0 0 0-1.267-.779 7.262 7.262 0 0 0-1.454-.418 11.807 11.807 0 0 0-1.45-.168 39.862 39.862 0 0 0-1.289-.029H9.685v15.509h3.256v-6.194h1.407c.173 0 .38.049.615.141.233.096.474.355.727.783l3.097 5.271h4.164c-.234-.336-.504-.717-.803-1.151-.304-.436-.61-.88-.917-1.345zm-3.432-7.302c-.176.28-.402.494-.674.65a2.836 2.836 0 0 1-.92.317 5.742 5.742 0 0 1-1.002.091H12.94v-4.121h2.065c.336 0 .684.021 1.043.066.359.043.69.135.992.281.296.137.545.336.732.6.193.266.289.617.289 1.057.001.431-.089.778-.262 1.059zm50.755 4.722a37.686 37.686 0 0 0-.344 1.543c-.091.499-.155.833-.185 1.011h-.041c-.031-.178-.094-.512-.188-1.011a26.969 26.969 0 0 0-.344-1.543l-1.63-6.65h-3.391l4.01 12.408c-.09.339-.236.615-.429.821a2.543 2.543 0 0 1-.673.521 2.85 2.85 0 0 1-.808.276c-.284.048-.552.07-.802.07l.286 2.377c.792-.059 1.854-.197 2.435-.413.579-.226 1.078-.511 1.488-.872.408-.357.75-.771 1.021-1.24.272-.469.495-.988.675-1.557l3.943-12.392h-3.391l-1.632 6.651zm-35.143-5.174a4.923 4.923 0 0 0-1.732-1.387c-.701-.345-1.536-.515-2.507-.515-.956 0-1.79.17-2.5.515a5.108 5.108 0 0 0-1.777 1.374 5.744 5.744 0 0 0-1.06 1.99 7.943 7.943 0 0 0-.351 2.383c0 .842.109 1.639.329 2.397a5.886 5.886 0 0 0 1.014 2.019 4.993 4.993 0 0 0 1.731 1.384c.7.343 1.538.519 2.507.519.952 0 1.789-.176 2.502-.519a5.172 5.172 0 0 0 1.775-1.376 5.85 5.85 0 0 0 1.062-1.992 7.97 7.97 0 0 0 .352-2.383c0-.838-.112-1.635-.332-2.396a5.82 5.82 0 0 0-1.013-2.013zm-1.983 5.731a4.398 4.398 0 0 1-.386 1.243c-.188.377-.442.68-.763.924-.323.242-.73.364-1.213.364-.486 0-.886-.127-1.195-.384a2.765 2.765 0 0 1-.73-.957 4.235 4.235 0 0 1-.351-1.268c-.061-.46-.091-.899-.091-1.311s.037-.846.109-1.305c.075-.45.206-.865.391-1.242.179-.376.438-.68.761-.922.322-.246.727-.367 1.212-.367.488 0 .885.129 1.194.387.31.26.553.576.73.961.175.377.293.798.352 1.263.06.463.089.901.089 1.313a8.3 8.3 0 0 1-.109 1.301zm29.144-1.239a3.425 3.425 0 0 0-.912-.698 10.356 10.356 0 0 0-1.149-.526l-1.03-.376a3.816 3.816 0 0 1-.463-.176 2.405 2.405 0 0 1-.449-.259 1.402 1.402 0 0 1-.342-.351.788.788 0 0 1-.131-.459c0-.262.111-.522.338-.773.23-.257.656-.383 1.289-.383.381 0 .788.063 1.225.186.432.122.814.295 1.154.517l.946-2.267c-.306-.168-.729-.334-1.256-.51-.53-.176-1.167-.262-1.916-.262-.692 0-1.317.098-1.884.303-.567.207-1.055.488-1.465.848s-.73.777-.949 1.262-.327 1.007-.327 1.558c0 .866.229 1.548.691 2.036.464.49 1.075.877 1.839 1.176l.971.369c.162.063.346.129.539.201.2.068.388.162.563.27.179.111.331.244.452.396a.86.86 0 0 1 .188.557c0 .236-.052.432-.164.581a1.232 1.232 0 0 1-.43.371 1.817 1.817 0 0 1-.584.198 3.48 3.48 0 0 1-.628.059c-.47 0-.954-.084-1.445-.246a4.92 4.92 0 0 1-1.313-.633l-.948 2.262c.338.203.813.402 1.422.604a6.665 6.665 0 0 0 2.038.293c.764 0 1.456-.094 2.071-.283.617-.191 1.139-.46 1.553-.801.419-.345.742-.754.971-1.229a3.58 3.58 0 0 0 .341-1.569c0-.482-.068-.906-.207-1.274a3.031 3.031 0 0 0-.599-.972zm-10.02 0a3.511 3.511 0 0 0-.913-.698 10.649 10.649 0 0 0-1.146-.526l-1.037-.376a4.223 4.223 0 0 1-.462-.176 2.397 2.397 0 0 1-.448-.259 1.289 1.289 0 0 1-.338-.351.783.783 0 0 1-.135-.459c0-.262.115-.522.342-.773.227-.257.656-.383 1.287-.383.383 0 .791.063 1.222.186.434.122.819.295 1.157.517l.945-2.267c-.312-.168-.725-.334-1.254-.51-.531-.176-1.169-.262-1.92-.262-.69 0-1.318.098-1.885.303a4.568 4.568 0 0 0-1.462.848 3.71 3.71 0 0 0-.95 1.262 3.748 3.748 0 0 0-.329 1.558c0 .866.231 1.548.694 2.036.463.49 1.077.877 1.839 1.176l.972.369c.162.063.341.129.541.201.197.068.383.162.563.27.176.111.326.244.452.396a.851.851 0 0 1 .183.557c0 .236-.05.432-.164.581a1.2 1.2 0 0 1-.428.371 1.773 1.773 0 0 1-.582.198 3.524 3.524 0 0 1-.632.059c-.468 0-.95-.084-1.442-.246a4.82 4.82 0 0 1-1.311-.633l-.948 2.262c.338.203.81.402 1.421.604.609.195 1.289.293 2.039.293.76 0 1.455-.094 2.07-.283.617-.191 1.134-.46 1.553-.801.418-.345.744-.754.971-1.229.224-.476.34-.998.34-1.569 0-.482-.072-.906-.208-1.274a3.173 3.173 0 0 0-.597-.972zM38.813 48.176c-1.047 0-1.896.8-1.896 1.789 0 .984.85 1.783 1.896 1.783 1.046 0 1.893-.799 1.893-1.783-.001-.989-.848-1.789-1.893-1.789zm-1.574 5.171v11.725h3.087V53.347h-3.087zM72.189 7.408c-4.713 0-9.01 1.768-12.279 4.67a18.418 18.418 0 0 0-12.281-4.67c-10.221 0-18.508 8.281-18.508 18.504 0 10.22 8.288 18.504 18.508 18.504 4.713 0 9.016-1.766 12.281-4.668a18.443 18.443 0 0 0 12.279 4.668c10.22 0 18.506-8.284 18.506-18.504 0-10.223-8.286-18.504-18.506-18.504zm-24.56 34.816c-9.012 0-16.314-7.302-16.314-16.312S38.617 9.6 47.629 9.6c9.01 0 16.311 7.303 16.311 16.313s-7.301 16.311-16.311 16.311zm30.137-4.208s-1.156-3.493-4.514-3.494c-3.357.001-4.52 3.494-4.52 3.494h-4.125s3.361-4.02 5.283-8.785c2.275-5.638 2.352-10.755 2.352-13.583 0-.37-.009-.649-.154-.824-.221-.266-.212-.765-.212-.765v-1.15l.655-.658a1.37 1.37 0 0 0 .385-.947h.002V10.24s.047-.131.234-.133h.191c.188.002.237.133.237.133v1.064h.001c0 .366.146.701.383.947l.656.658v1.15s.008.499-.214.765c-.145.175-.153.454-.153.824 0 2.828.077 7.945 2.351 13.583 1.923 4.766 5.282 8.785 5.282 8.785h-4.12zM54.895 20.095a330.068 330.068 0 0 0-4.322 3.258l-11.125-1.56c-.209-.029-.523.047-.689.181l-1.24.928 7.891 4.443a464.142 464.142 0 0 0-4.016 3.161 1.236 1.236 0 0 1-.793.246l-4.481-.576a1.083 1.083 0 0 0-.802.23l-.813.604 4.164 2.91c.803.558 6.647-2.524 8.956-4.069 1.967-1.319 8.57-6.295 9.99-7.519 1.426-1.216 2.559-2.724 2.126-3.298-.345-.449-3.266-.1-4.846 1.061zm18.876 8.008h-1.033c-.191 0-.318.079-.376.343-.005.024-.532 2.462-.951 3.916h3.69c-.42-1.454-.946-3.892-.952-3.916-.057-.264-.184-.343-.378-.343z" fill="#fff"/></svg>