<?xml version="1.0" encoding="utf-8"?>
<!-- Generator: Adobe Illustrator 26.3.1, SVG Export Plug-In . SVG Version: 6.00 Build 0)  -->
<svg version="1.1" id="Layer_1" xmlns="http://www.w3.org/2000/svg" xmlns:xlink="http://www.w3.org/1999/xlink" x="0px" y="0px"
	 viewBox="0 0 283.5 283.5" style="enable-background:new 0 0 283.5 283.5;" xml:space="preserve">
<style type="text/css">
	.st0{clip-path:url(#SVGID_00000016771557978790841110000008879242492359402645_);}
	.st1{clip-path:url(#SVGID_00000016771557978790841110000008879242492359402645_);fill:#3C91DC;}
</style>
<g>
	<defs>
		<rect id="SVGID_1_" width="283.5" height="283.5"/>
	</defs>
	<clipPath id="SVGID_00000085952238518637505050000003049761999437540794_">
		<use xlink:href="#SVGID_1_"  style="overflow:visible;"/>
	</clipPath>
	<path style="clip-path:url(#SVGID_00000085952238518637505050000003049761999437540794_);" d="M104.2,199.6
		c-27.7,0-54.1-18.3-54.1-56c0-32.6,19-58.8,54.1-58.8c13.4,0,23.3,2.8,31.2,6.3l-7.9,20c-7.1-4-15.2-5.9-22.1-5.9
		c-16.7,0-30.3,11-30.3,37.3c0,25.1,16.4,36.7,32.2,36.7c8.7,0,16.4-2.6,21.8-5.9l6.5,18.7C127.2,196.5,115.3,199.6,104.2,199.6
		 M194.1,197v-85.8c-6.6,5.3-17.2,10.4-24.4,13.6l-7.4-16.7c11.4-4.8,25.2-12.1,36-20.3h19V197H194.1z"/>
	<path style="clip-path:url(#SVGID_00000085952238518637505050000003049761999437540794_);fill:#3C91DC;" d="M269.3,42.5H14.2
		C6.3,42.5,0,36.2,0,28.3V14.2C0,6.3,6.3,0,14.2,0h255.1c7.8,0,14.2,6.3,14.2,14.2v14.2C283.5,36.2,277.1,42.5,269.3,42.5
		 M283.5,269.3v-14.2c0-7.8-6.3-14.2-14.2-14.2H14.2c-7.8,0-14.2,6.3-14.2,14.2v14.2c0,7.8,6.3,14.2,14.2,14.2h255.1
		C277.1,283.5,283.5,277.1,283.5,269.3"/>
</g>
</svg>
