<?xml version="1.0" encoding="utf-8"?>
<svg width="283.502px" height="283.502px" viewBox="0 0 283.46 283.46" xmlns="http://www.w3.org/2000/svg">
  <title>Paris transit icons - Câble C4</title>
  <rect width="283.46" height="42.52" rx="14.17" style="fill: rgb(160, 0, 110);"/>
  <rect width="283.46" height="42.52" rx="14.17" y="240.94" style="fill: rgb(160, 0, 110);"/>
  <path d="M 104.17 199.59 C 76.48 199.59 50.03 181.34 50.03 143.599 C 50.03 110.97 69.06 84.83 104.17 84.83 C 117.62 84.83 127.52 87.62 135.41 91.17 L 127.52 111.13 C 120.41 107.11 112.37 105.249 105.41 105.249 C 88.7 105.249 75.09 116.23 75.09 142.52 C 75.09 167.58 91.49 179.18 107.26 179.18 C 115.92 179.18 123.659 176.55 129.06 173.3 L 135.56 192.02 C 127.2 196.5 115.3 199.59 104.17 199.59 Z M 229.249 174.219 L 229.249 196.96 L 207.599 196.96 L 207.599 174.219 L 158.42 174.219 L 158.42 153.96 L 200.79 87.76 L 229.249 87.76 L 229.249 157.21 L 242.09 157.21 L 242.09 174.219 L 229.249 174.219 Z M 207.599 106.94 L 207.29 106.94 C 206.83 108.8 203.73 115.45 199.4 122.249 L 177.129 157.21 L 207.599 157.21 L 207.599 106.94 Z" style=""/>
</svg>