<?xml version="1.0" encoding="utf-8"?>
<svg width="7.53cm" height="7.53cm" viewBox="0 0 283.46 283.46" xmlns="http://www.w3.org/2000/svg">
  <title>Paris transit icons - Câble C2</title>
  <rect width="283.46" height="42.52" rx="14.17" style="fill: rgb(255, 20, 0);"/>
  <rect width="283.46" height="42.52" rx="14.17" y="240.94" style="fill: rgb(255, 20, 0);"/>
  <path d="M104.17,199.59c-27.69,0-54.14-18.25-54.14-55.99c0-32.63,19.03-58.77,54.14-58.77c13.45,0,23.35,2.79,31.24,6.34l-7.89,19.96c-7.11-4.02-15.15-5.88-22.11-5.88c-16.71,0-30.32,10.98-30.32,37.27c0,25.06,16.4,36.66,32.17,36.66c8.66,0,16.4-2.63,21.8-5.88l6.5,18.72C127.21,196.5,115.3,199.59,104.17,199.59zM164.61,196.96v-14.38c2.78-12.69,15.31-24.28,29.85-36.97c7.27-6.34,15.15-14.23,15.15-24.75c0-9.43-6.19-17.32-18.09-17.32c-9.59,0-16.24,6.96-18.87,9.9L161.2,98.28c10.52-9.13,20.26-13.46,34.96-13.46c19.18,0,37.27,11.14,37.27,33.41c0,18.71-11.91,27.53-25.05,39.44c-5.57,5.1-16.55,14.69-17.94,21.03h45.01v18.25H164.61z" style=""/>
</svg>