<?xml version="1.0" encoding="utf-8"?>
<svg width="283.5px" height="283.5px" viewBox="0 0 283.46 283.46" xmlns="http://www.w3.org/2000/svg">
  <title>Paris transit icons - Câble C3</title>
  <rect width="283.46" height="42.52" rx="14.17" style="fill: rgb(0, 160, 146);"/>
  <rect width="283.46" height="42.52" rx="14.17" y="240.94" style="fill: rgb(0, 160, 146);"/>
  <path d="M 104.17 199.58 C 76.48 199.58 50.03 181.33 50.03 143.59 C 50.03 110.96 69.06 84.82 104.17 84.82 C 117.62 84.82 127.52 87.61 135.41 91.16 L 127.52 111.12 C 120.41 107.1 112.37 105.24 105.41 105.24 C 88.7 105.24 75.09 116.219 75.09 142.51 C 75.09 167.569 91.49 179.17 107.26 179.17 C 115.92 179.17 123.659 176.539 129.06 173.29 L 135.56 192.009 C 127.2 196.49 115.3 199.58 104.17 199.58 Z M 193.06 199.58 C 177.44 199.58 168.78 195.719 161.51 191.39 L 170.01 174.53 C 174.65 177.78 182.23 181.64 191.509 181.64 C 204.2 181.64 212.08 174.219 212.08 164.94 C 212.08 152.41 202.49 148.08 191.36 148.08 L 180.069 148.08 L 180.069 129.98 L 191.509 129.98 C 202.18 129.98 208.83 124.41 208.83 116.06 C 208.83 109.1 203.569 102.76 192.129 102.76 C 182.069 102.76 175.42 107.55 171.86 110.65 L 163.98 94.56 C 173.26 88.37 183.32 84.81 197.08 84.81 C 219.35 84.81 232.03 98.11 232.03 112.65 C 232.03 123.94 226 132.91 214.4 137.24 L 214.4 137.55 C 226.46 139.87 235.59 149.15 235.59 164.46 C 235.59 183.659 218.42 199.58 193.06 199.58 Z" style=""/>
</svg>