<?xml version="1.0" encoding="utf-8"?>
<svg width="7.53cm" height="7.53cm" viewBox="0 0 9.260417 9.260417" version="1.1" id="svg4209" xmlns="http://www.w3.org/2000/svg">
  <g id="layer1">
    <g id="g21220" transform="matrix(0.26458333,0,0,0.26458333,-226.2451,-152.09041)" style="display:inline;enable-background:new">
      <path id="path18306" style="fill-opacity: 1;" d="m 872.51564,581.7757 c -0.20407,0.18476 -0.72461,1.36523 -0.72461,1.36523 v 2.50196 l -0.41016,0.65429 c -2.45851,1.31058 -2.55604,3.58357 -2.70703,4.13672 0,0 -1.09235,0.86755 -0.92578,1.0293 0.21787,0.21146 0.57587,0.0866 0.71875,0.0566 v 3.60156 c -0.0125,-0.0106 -0.0208,-0.0171 -0.0215,-0.0176 -0.095,-0.35133 -0.15966,-1.7818 -1.70508,-2.60546 l -0.2578,-0.41211 v -1.57618 c -10e-6,0 -0.32623,-0.74102 -0.45508,-0.85742 h -0.10547 c -0.12841,0.1164 -0.45703,0.85742 -0.45703,0.85742 v 1.57618 l -0.25782,0.41211 c -1.54881,0.82569 -1.61007,2.25836 -1.70507,2.60546 0,0 -0.68732,0.54468 -0.58203,0.64649 0.13694,0.133 0.36147,0.0561 0.45117,0.0371 v 7.2539 c 6.15234,0 12.30469,0 18.45703,0 v -7.2539 c 0.0897,0.019 0.31423,0.0959 0.45117,-0.0371 0.10529,-0.10181 -0.58203,-0.64649 -0.58203,-0.64649 -0.095,-0.3471 -0.15627,-1.77977 -1.70508,-2.60546 l -0.25781,-0.41211 v -1.57618 c 0,0 -0.32862,-0.74102 -0.45703,-0.85742 h -0.10547 c -0.12886,0.1164 -0.45508,0.85742 -0.45508,0.85742 v 1.57618 l -0.25781,0.41211 c -1.54542,0.82366 -1.61012,2.25413 -1.70508,2.60546 -6.7e-4,4.5e-4 -0.009,0.007 -0.0215,0.0176 v -3.60156 c 0.14287,0.03 0.50088,0.15482 0.71874,-0.0566 0.16657,-0.16175 -0.92578,-1.0293 -0.92578,-1.0293 -0.15099,-0.55315 -0.24852,-2.82614 -2.70703,-4.13672 l -0.41015,-0.65429 v -2.50196 c 0,0 -0.52054,-1.18047 -0.72461,-1.36523 z"/>
      <g id="g21201">
        <path d="m 890.09961,608.07976 v -1.75015 c 0,-0.96614 -0.78402,-1.75016 -1.75015,-1.75016 h -31.49969 c -0.96614,0 -1.75016,0.78402 -1.75016,1.75016 v 1.75015 c 0,0.96614 0.78402,1.75015 1.75016,1.75015 h 31.49969 c 0.96613,0 1.75015,-0.78401 1.75015,-1.75015 m -1.75015,-27.99938 h -31.49969 c -0.96614,0 -1.75016,-0.78402 -1.75016,-1.75016 v -1.75015 c 0,-0.96614 0.78402,-1.75016 1.75016,-1.75016 h 31.49969 c 0.96613,0 1.75015,0.78402 1.75015,1.75016 v 1.75015 c 0,0.96614 -0.78402,1.75016 -1.75015,1.75016" style="fill-opacity: 1; fill-rule: nonzero; stroke: none; stroke-width: 1.54335; fill: rgb(0, 85, 200);" id="path21034"/>
      </g>
    </g>
  </g>
</svg>