<?xml version="1.0" encoding="UTF-8"?><svg id="Premier_plan" data-name="Premier plan" xmlns="http://www.w3.org/2000/svg" baseProfile="tiny" version="1.2" viewBox="0 0 92 92">  <circle cx="46" cy="46" r="46" fill="#4a4a49" stroke-width="0"/>  <g>    <path d="M25.7529612,44.8759766c-5.9833984,0-11.1513672-3.2294922-11.1513672-12.6806641,0-9.3486328,6.0859375-12.6806641,11.21875-12.6806641,5.9833984,0,11.1513672,3.2294922,11.1513672,12.6806641,0,9.3496094-6.0859375,12.6806641-11.21875,12.6806641ZM25.7871409,23.8320312c-4.3857422,0-5.7119141,3.8759766-5.7119141,8.3632812,0,4.4882812,1.3935547,8.3632812,5.7119141,8.3632812,4.3847656,0,5.7109375-3.875,5.7109375-8.3632812,0-4.4873047-1.3935547-8.3632812-5.7109375-8.3632812Z" fill="#ffbe00" stroke-width="0"/>    <path d="M50.0625315,30.7333984c-.3398438-.1699219-1.0195312-.4755859-1.6660156-.4755859-1.0195312,0-1.5634766.3056641-2.0058594.7138672-.6455078.578125-.6796875,1.3261719-.6796875,2.3115234v10.9472656h-4.7597656v-13.5644531c0-1.5644531-.1357422-3.7402344-.1699219-4.5898438h4.2841797v2.7197266c1.0878906-1.7333984,2.2773438-3.1611328,4.5214844-3.1611328.6796875,0,1.359375.203125,1.7333984.3398438l-1.2578125,4.7587891Z" fill="#ffbe00" stroke-width="0"/>    <path d="M54.2783518,44.2304688v-25.1572266h4.7597656v25.1572266h-4.7597656Z" fill="#ffbe00" stroke-width="0"/>    <path d="M72.3320628,45.25c-1.1220703,3.5019531-3.1953125,5.9160156-8.0908203,6.2900391l-.4423828-3.671875c1.5634766.0341797,3.671875-.5439453,4.1816406-2.5839844l-6.1875-19.2080078h5.2353516l2.515625,10.3007812c.4082031,1.6318359.7480469,3.4003906.8164062,3.9443359h.0683594c.203125-.9521484.4755859-2.3466797.8837891-3.9443359l2.6171875-10.3007812h4.4873047l-6.0849609,19.1738281Z" fill="#ffbe00" stroke-width="0"/>  </g>  <g>    <path d="M19.7510081,70.546875h-4.2646484l-6.5-18.3828125h4.3417969l3.3027344,10.0097656c.6240234,1.9248047.9355469,3.3808594,1.0654297,4.0820312h.0527344c.1298828-.7011719.4160156-2.0273438,1.0654297-4.0292969l3.328125-10.0625h4.0820312l-6.4736328,18.3828125Z" fill="#fff" stroke-width="0"/>    <path d="M37.7685862,70.5205078l-1.1435547-3.484375h-6.7861328l-1.1445312,3.484375h-4.0039062l6.5-18.3828125h4.3945312l6.5263672,18.3828125h-4.3427734ZM34.0771799,59.1835938c-.390625-1.1699219-.7021484-2.6777344-.7802734-3.3535156h-.0517578c-.078125.6757812-.4423828,2.1835938-.8320312,3.3535156l-1.5605469,4.8105469h4.7841797l-1.5595703-4.8105469Z" fill="#fff" stroke-width="0"/>    <path d="M44.398469,70.5205078v-18.3564453h4.0566406v15.0546875h7.4365234v3.3017578h-11.4931641Z" fill="#fff" stroke-width="0"/>  </g>  <path d="M79.785135,52.6241681h0c-.3554059,0-.6914542.148307-.9720967.4281045l-5.8862654,5.8862501-11.5994307-2.7121165-.1394609-.032364-.101692.1012771-1.8155728,1.8156588-.2596502.2599944.332779.1563083,9.5242077,4.470163-4.2764857,4.2764856-2.8171791-.3310583-.1243189-.0147118-.0881847.0886149-1.4694585,1.470749-.2831375.2839978.3755379.1398911,3.5421866,1.3215663,1.3215663,3.5421865.1403212.3763982.2839978-.2839978,1.4694585-1.4694585.0881847-.0881996-.0142816-.1243901-.3309723-2.8166629,4.27726-4.2769157,4.4705781,9.5250678.1563235.332693.2595642-.2599944,1.8165192-1.8160029.101606-.101692-.0327789-.1398911-2.0688702-8.845181-.6440359-2.7534903,5.8862654-5.8862502c.6586753-.6595356.4772299-1.5307299-.0428449-2.0507894-.2949241-.2953543-.6981649-.4722399-1.0796391-.4722399h0Z" fill="#fff" stroke-width="0"/></svg>