<?xml version="1.0" encoding="utf-8"?>
<svg viewBox="0 0 283.46 283.46" version="1.1" id="svg12" width="7.53cm" height="7.53cm" xmlns="http://www.w3.org/2000/svg">
  <defs id="defs4">
    <style id="style2">.cls-1{fill:#cec73d;}.cls-2{fill:#000000;fill-rule:evenodd;}</style>
  </defs>
  <g id="Layer_2" data-name="Layer 2">
    <g id="Layer_1-2" data-name="Layer 1">
      <path class="cls-1" d="M0,141.73A141.73,141.73,0,1,1,141.73,283.46,141.73,141.73,0,0,1,0,141.73" id="path6" style="fill-opacity: 1; fill: rgb(255, 90, 0);"/>
      <path class="cls-2" d="m 253.47506,131.39 c 0,-39.79 -14.72,-68.31 -55.72,-68.31 -31.49,0 -51.49,22.13 -51.49,52.14 0,28.09 20,44.47 44.89,44.47 16.18,0 26,-5.74 31.07,-10.21 -2.13,30.21 -17.45,47 -38.51,47 a 58.1,58.1 0 0 1 -20.65,-3.62 l -4.67,25.54 a 99.18,99.18 0 0 0 22.53,2.6 c 48.08,0 72.55,-37.45 72.55,-89.58 m -30.86,-16.6 c 0,4.47 0,10.42 -1.7,13 -3,4.68 -10.64,8.3 -20.22,8.3 -14.88,0 -24.25,-10.22 -24.25,-24.26 0,-13 7.67,-25.1 22.56,-25.1 15.31,0 23.61,13.83 23.61,28.08" id="path8" style="fill-opacity: 1; fill: rgb(0, 85, 200);"/>
      <path class="cls-2" d="m 140.31412,131.86826 c 0,-39.79 -14.72,-68.31 -55.72,-68.31 -31.49,0 -51.49,22.13 -51.49,52.14 0,28.09 20,44.47 44.89,44.47 16.18,0 26,-5.74 31.07,-10.21 -2.13,30.21 -17.45,47 -38.51,47 a 58.1,58.1 0 0 1 -20.65,-3.62 l -4.67,25.54 a 99.18,99.18 0 0 0 22.53,2.6 c 48.08,0 72.55,-37.45 72.55,-89.58 m -30.86,-16.6 c 0,4.47 0,10.42 -1.7,13 -3,4.68 -10.64,8.3 -20.22,8.3 -14.88,0 -24.25,-10.22 -24.25,-24.26 0,-13 7.67,-25.1 22.56,-25.1 15.31,0 23.61,13.83 23.61,28.08" id="path8-1" style="fill-rule: evenodd; fill-opacity: 1; fill: rgb(0, 85, 200);"/>
    </g>
  </g>
</svg>