<?xml version="1.0" encoding="utf-8"?>
<svg width="7.53cm" height="7.53cm" viewBox="0 0 283.46 283.46" xmlns="http://www.w3.org/2000/svg">
  <title>Paris transit icons - Métro Ligne 19</title>
  <circle fill="#C6C6C6" cx="141.73" cy="141.73" r="141.73"/>
  <path d="m79.21,216.67v-118.02c-9.14,7.23-23.61,14.25-33.6,18.71l-10.2-22.97c15.73-6.59,34.66-16.59,49.55-27.86h26.15v150.13h-31.9Zm160.77-85.91c0-39.8-14.68-68.31-55.75-68.31-31.49,0-51.49,22.12-51.49,52.14,0,28.09,20,44.47,44.89,44.47,16.18,0,25.96-5.74,31.07-10.21-2.13,30.21-17.45,47.03-38.52,47.03-8.72,0-16.59-1.92-20.64-3.62l-4.67,25.53c6.38,1.5,14.04,2.55,22.55,2.55,48.09,0,72.55-37.45,72.55-89.57m-30.85-16.6c0,4.47,0,10.42-1.7,12.98-2.98,4.68-10.64,8.3-20.22,8.3-14.88,0-24.24-10.22-24.24-24.26,0-12.97,7.66-25.1,22.55-25.1s23.61,13.83,23.61,28.08" style=""/>
</svg>