<?xml version="1.0" encoding="utf-8"?>
<svg width="283.5px" height="283.5px" viewBox="0 0 283.46 283.46" xmlns="http://www.w3.org/2000/svg">
  <title>Paris transit icons - Navette Fluviale 2</title>
  <rect width="283.46" height="42.52" rx="14.17" style="fill: rgb(130, 220, 115);"/>
  <rect width="283.46" height="42.52" rx="14.17" y="240.94" style="fill: rgb(130, 220, 115);"/>
  <path d="M81.93,107.33v24.59h42.69v19.5H81.93v45.31H57.8V87.54h68.36v19.8H81.93zM159.66,196.73v-14.38c2.78-12.69,15.31-24.28,29.85-36.97c7.27-6.34,15.16-14.23,15.16-24.74c0-9.44-6.19-17.33-18.1-17.33c-9.59,0-16.24,6.96-18.87,9.9l-11.45-15.15c10.52-9.13,20.26-13.46,34.96-13.46c19.18,0,37.28,11.14,37.28,33.42c0,18.71-11.91,27.53-25.06,39.44c-5.57,5.1-16.55,14.69-17.94,21.03h45.01v18.25H159.66z" style=""/>
</svg>