<svg xmlns="http://www.w3.org/2000/svg" viewBox="0 0 283.46457 283.46457"><defs><style>.cls-1{fill:#e85433;}.cls-2{fill:#fff;}</style></defs><g id="Layer_2" data-name="Layer 2"><g id="Layer_1-2" data-name="Layer 1"><path class="cls-1" d="M219.685,0H63.77951A63.7795,63.7795,0,0,0,0,63.77954V219.685a63.77953,63.77953,0,0,0,63.77951,63.77954H219.685A63.77956,63.77956,0,0,0,283.46457,219.685V63.77954A63.77954,63.77954,0,0,0,219.685,0Z"/><polygon class="cls-2" points="173.193 123.311 110.372 123.311 97.863 155.908 185.703 155.908 173.193 123.311"/><path class="cls-2" d="M149.72192,62.14946a8.50353,8.50353,0,0,0-15.8783,0L121.24993,94.96653h41.06568Z"/><path class="cls-2" d="M206.9793,198.4257h-.00152a7.2136,7.2136,0,0,1-6.73523-4.62921l-3.66242-9.54346H86.98541L83.323,193.79649a7.21359,7.21359,0,0,1-6.73523,4.62921h-.00183a12.75577,12.75577,0,0,0-12.756,12.75574v2.83447A12.75557,12.75557,0,0,0,76.58563,226.771h130.394a12.75564,12.75564,0,0,0,12.756-12.75513v-2.83447A12.75583,12.75583,0,0,0,206.9793,198.4257Z"/></g></g></svg>