<?xml version="1.0" encoding="utf-8"?>
<!-- Generator: Adobe Illustrator 26.3.1, SVG Export Plug-In . SVG Version: 6.00 Build 0)  -->
<svg version="1.1" id="Layer_1" xmlns="http://www.w3.org/2000/svg" xmlns:xlink="http://www.w3.org/1999/xlink" x="0px" y="0px"
	 viewBox="0 0 283.5 283.5" style="enable-background:new 0 0 283.5 283.5;" xml:space="preserve">
<style type="text/css">
	.st0{fill:#00643C;}
	.st1{fill:#FFFFFF;}
</style>
<g>
	<path class="st0" d="M219.7,283.5H63.8C28.6,283.5,0,254.9,0,219.7V63.8C0,28.6,28.6,0,63.8,0h155.9c35.2,0,63.8,28.6,63.8,63.8
		v155.9C283.5,254.9,254.9,283.5,219.7,283.5"/>
	<path class="st1" d="M125.7,216.7H83.4V66.5h43.8c43.8,0,91,9.8,91,71.7C218.2,203.9,171.7,216.7,125.7,216.7 M131.9,92.7h-15.3v98
		H133c28.9,0,51-11.1,51-50.4C184,98.2,152.3,92.7,131.9,92.7"/>
</g>
</svg>
