<?xml version="1.0" encoding="utf-8"?>
<!-- Generator: Adobe Illustrator 27.5.0, SVG Export Plug-In . SVG Version: 6.00 Build 0)  -->
<svg version="1.1"
	 id="svg8" xmlns:sodipodi="http://sodipodi.sourceforge.net/DTD/sodipodi-0.dtd" xmlns:inkscape="http://www.inkscape.org/namespaces/inkscape" xmlns:svg="http://www.w3.org/2000/svg" xmlns:dc="http://purl.org/dc/elements/1.1/" xmlns:rdf="http://www.w3.org/1999/02/22-rdf-syntax-ns#" xmlns:cc="http://creativecommons.org/ns#"
	 xmlns="http://www.w3.org/2000/svg" xmlns:xlink="http://www.w3.org/1999/xlink" x="0px" y="0px" viewBox="0 0 250 250"
	 style="enable-background:new 0 0 250 250;" xml:space="preserve">
<style type="text/css">
	.st0{fill:#6E491E;}
	.st1{fill:#FFFFFF;}
</style>
<sodipodi:namedview  bordercolor="#666666" borderopacity="1" gridtolerance="10" guidetolerance="10" id="namedview10" inkscape:current-layer="svg8" inkscape:cx="323.71735" inkscape:cy="32.038532" inkscape:pageopacity="0" inkscape:pageshadow="2" inkscape:window-height="1001" inkscape:window-maximized="1" inkscape:window-width="1920" inkscape:window-x="-9" inkscape:window-y="-9" inkscape:zoom="1.3350176" objecttolerance="10" pagecolor="#ffffff" showgrid="false">
	</sodipodi:namedview>
<path id="rect4" class="st0" d="M56.3,0h137.5C224.8,0,250,25.2,250,56.3v137.5c0,31.1-25.2,56.3-56.3,56.3H56.3
	C25.2,250,0,224.8,0,193.7V56.3C0,25.2,25.2,0,56.3,0z"/>
<g>
	<path class="st1" d="M129.9,193.9c-44.2,0-65.8-28.6-65.8-67.7c0-37,20.9-70.9,68.4-70.9c19.6,0,31.8,4.1,43.2,9l-9.2,23.3
		c-10-5.5-20.9-8.5-31.8-8.5c-27.8,0-40.4,19.9-40.4,46.2c0,28.8,16.4,45.5,37.4,45.5c6.4,0,13.7-0.9,17.1-2.1v-22.6H125v-23.9h51.9
		v63.2C167.1,189.4,148.1,193.9,129.9,193.9z"/>
</g>
</svg>
