<?xml version="1.0" encoding="utf-8"?>
<!-- Generator: Adobe Illustrator 26.3.1, SVG Export Plug-In . SVG Version: 6.00 Build 0)  -->
<svg version="1.1" id="Layer_1" xmlns="http://www.w3.org/2000/svg" xmlns:xlink="http://www.w3.org/1999/xlink" x="0px" y="0px"
	 viewBox="0 0 283.5 283.5" style="enable-background:new 0 0 283.5 283.5;" xml:space="preserve">
<style type="text/css">
	.st0{fill:#3C91DC;}
	.st1{fill:#FFFFFF;}
</style>
<g>
	<path class="st0" d="M219.7,283.5H63.8C28.6,283.5,0,254.9,0,219.7V63.8C0,28.6,28.6,0,63.8,0h155.9c35.2,0,63.8,28.6,63.8,63.8
		v155.9C283.5,254.9,254.9,283.5,219.7,283.5"/>
	<path class="st1" d="M138.2,216.7H83.6V66.5h57c28.1,0,54.4,7.7,54.4,38.1c0,15.5-12.3,27.2-24,29.3v0.4
		c15.7,2.1,28.9,14.5,28.9,35.7C199.9,208,166.7,216.7,138.2,216.7 M133.1,91.6h-16.4v34.5h16.8c17.4,0,28.9-2.8,28.9-17
		C162.5,95.2,152.3,91.6,133.1,91.6 M134.6,149.9h-17.9v41.9h19.6c21,0,29.3-6.6,29.3-22.5C165.7,152.7,149.7,149.9,134.6,149.9"/>
</g>
</svg>
