<?xml version="1.0" encoding="utf-8"?>
<!-- Generator: Adobe Illustrator 26.3.1, SVG Export Plug-In . SVG Version: 6.00 Build 0)  -->
<svg version="1.1" id="Layer_1" xmlns="http://www.w3.org/2000/svg" xmlns:xlink="http://www.w3.org/1999/xlink" x="0px" y="0px"
	 viewBox="0 0 283.5 283.5" style="enable-background:new 0 0 283.5 283.5;" xml:space="preserve">
<style type="text/css">
	.st0{clip-path:url(#SVGID_00000098201985115563230220000009768346319938619311_);fill:#FFBE00;}
	.st1{clip-path:url(#SVGID_00000098201985115563230220000009768346319938619311_);}
</style>
<g>
	<defs>
		<rect id="SVGID_1_" width="283.5" height="283.5"/>
	</defs>
	<clipPath id="SVGID_00000096027452549091411710000008438175786505644190_">
		<use xlink:href="#SVGID_1_"  style="overflow:visible;"/>
	</clipPath>
	<path style="clip-path:url(#SVGID_00000096027452549091411710000008438175786505644190_);fill:#FFBE00;" d="M219.7,283.5H63.8
		C28.6,283.5,0,254.9,0,219.7V63.8C0,28.6,28.6,0,63.8,0h155.9c35.2,0,63.8,28.6,63.8,63.8v155.9
		C283.5,254.9,254.9,283.5,219.7,283.5"/>
	<path style="clip-path:url(#SVGID_00000096027452549091411710000008438175786505644190_);" d="M148.3,220.3
		c-38.1,0-74.4-25.1-74.4-77c0-44.9,26.2-80.8,74.4-80.8c18.5,0,32.1,3.8,43,8.7l-10.8,27.4c-9.8-5.5-20.8-8.1-30.4-8.1
		c-23,0-41.7,15.1-41.7,51.2c0,34.4,22.5,50.4,44.2,50.4c11.9,0,22.5-3.6,30-8.1l8.9,25.7C180,216,163.6,220.3,148.3,220.3"/>
</g>
</svg>
