<?xml version="1.0" encoding="utf-8"?>
<svg version="1.1" id="svg182" width="7.53cm" height="7.53cm" viewBox="0 0 250.00003 249.99999" xmlns="http://www.w3.org/2000/svg">
  <g id="g190" transform="matrix(1.3333333,0,0,-1.3333333,-737.30846,355.58365)">
    <g id="g6301">
      <rect width="187.5" height="28.125662" rx="9.3730164" id="rect9556" x="552.98138" y="-266.68774" transform="scale(1,-1)" style="fill-opacity: 1; stroke-width: 0.661469; fill: rgb(210, 210, 0);"/>
      <rect width="187.5" height="28.125662" rx="9.3730164" y="-107.31341" id="rect9558" x="552.98138" transform="scale(1,-1)" style="fill-opacity: 1; stroke-width: 0.661469; fill: rgb(210, 210, 0);"/>
      <path id="path9560" style="fill-opacity: 1; stroke-width: 0.661469;" d="m 693.35187,210.57586 c -23.11832,0 -34.88672,-18.00554 -34.88672,-43.07519 0,-19.12966 7.05813,-32.83594 26.80957,-32.83594 15.16086,0 24.77859,10.63685 24.75879,25.06348 0,13.50718 -9.61775,21.37939 -21.59033,21.37939 -7.77225,0 -12.4815,-2.75892 -14.93555,-4.90869 1.02528,14.52585 8.3878,22.6084 18.52149,22.6084 3.38589,0.0317 6.74823,-0.55709 9.92138,-1.73877 l 2.25,12.28271 c -3.5579,0.81808 -7.19789,1.22961 -10.84863,1.22461 z m -109.94239,-1.68164 25.49415,-72.54931 h 16.69336 l 25.49414,72.54931 H 634.0799 c -5.97889,-18.4071 -13.0703,-36.60831 -16.82959,-55.6289 -3.75927,19.02059 -10.85073,37.2218 -16.82959,55.6289 z m 100.42969,-39.13769 h 0.0205 c 7.16371,0 11.66092,-4.9353 11.64112,-11.64258 0,-6.23765 -3.67761,-12.06445 -10.84131,-12.06445 -7.382,0 -11.34961,6.64719 -11.34961,13.5 0,2.14977 -6.1e-4,5.01358 0.81299,6.2373 1.43538,2.22253 5.08603,3.96973 9.7163,3.96973 z"/>
    </g>
  </g>
</svg>