<?xml version="1.0" encoding="utf-8"?>
<svg version="1.1" id="svg182" width="7.53cm" height="7.53cm" viewBox="0 0 250.00002 250" xmlns="http://www.w3.org/2000/svg">
  <g id="g190" transform="matrix(1.3333333,0,0,-1.3333333,584.9622,-145.33679)">
    <rect width="187.5" height="28.125662" id="rect2628" x="-438.72165" y="109.00259" transform="scale(1,-1)" style="fill-opacity: 1; stroke-width: 0.661469; fill: rgb(110, 73, 30);" rx="9.3730164"/>
    <rect width="187.5" height="28.125662" y="268.37692" id="rect2630" x="-438.72165" transform="scale(1,-1)" style="fill-opacity: 1; stroke-width: 0.661469; fill: rgb(110, 73, 30);" rx="9.3730164"/>
    <path id="path9472" style="fill-opacity: 1; stroke-width: 0.661469;" d="m -283.75876,-164.93619 c -21.79536,0 -26.49903,-21.48504 -26.49903,-38.16064 0,-16.67559 4.26044,-38.15918 26.08887,-38.15918 21.78875,0 26.49756,21.48359 26.49756,38.15918 0,16.6756 -4.29205,38.16064 -26.0874,38.16064 z m -57.69727,-0.41748 c -9.75005,0 -16.19321,-2.86411 -23.15186,-8.90332 l 7.54834,-9.99463 c 1.74628,1.91826 6.14431,6.54786 12.4878,6.54786 7.87147,0 11.9663,-5.22551 11.9663,-11.45655 0,-6.95864 -5.21212,-12.18323 -10.02099,-16.37695 -9.61775,-8.41387 -17.90575,-16.08719 -19.74463,-24.47461 v -9.53906 h 46.93066 v 12.11865 h -29.76562 c 0.91944,4.17387 8.18232,10.51762 11.8667,13.89111 8.66523,7.87809 16.53662,13.71134 16.53662,26.08741 0,14.7309 -11.96636,22.10009 -24.65332,22.10009 z m -92.21924,-1.86474 25.49414,-72.54932 h 16.69336 l 25.49414,72.54932 h -17.01123 c -5.97888,-18.40708 -13.07029,-36.60832 -16.82959,-55.62891 -3.75927,19.0206 -10.85073,37.22181 -16.82959,55.62891 z m 149.71143,-9.87598 0.0264,-0.0396 c 10.30567,0 10.61573,-18.38912 10.61573,-25.94971 0,-7.16369 -0.40918,-26.0874 -10.64209,-26.0874 -10.23291,0 -10.74317,18.71866 -10.74317,26.0874 0,7.36877 0.30521,25.98926 10.74317,25.98926 z"/>
  </g>
</svg>