<?xml version="1.0" encoding="utf-8"?>
<svg version="1.1" id="svg182" width="7.53cm" height="7.53cm" viewBox="0 0 250.00003 249.99999" xmlns="http://www.w3.org/2000/svg">
  <g id="g190" transform="matrix(1.3333333,0,0,-1.3333333,697.93496,648.02786)">
    <g id="g7271">
      <rect width="187.5" height="28.125662" rx="9.3730164" id="rect9490" x="-523.45123" y="-486.0209" style="fill-opacity: 1; stroke-width: 0.661469; fill: rgb(0, 100, 60);" transform="scale(1,-1)"/>
      <rect width="187.5" height="28.125662" rx="9.3730164" y="-326.64658" id="rect9492" x="-523.45123" style="fill-opacity: 1; stroke-width: 0.661469; fill: rgb(0, 100, 60);" transform="scale(1,-1)"/>
      <path id="path9494" style="fill-opacity: 1; stroke-width: 0.661469;" d="m -393.28097,429.82929 c -9.10179,0 -15.75663,-2.36183 -21.89502,-6.44971 l 5.21924,-10.64355 c 2.3482,2.04393 6.74746,5.21923 13.40185,5.21923 7.5672,0 11.04639,-4.19257 11.04639,-8.79638 0,-5.52327 -4.40597,-9.20801 -11.46387,-9.20801 h -7.56591 V 387.9787 h 7.46777 c 7.36869,0 13.7124,-2.86512 13.7124,-11.15332 0,-6.13842 -5.21294,-11.05225 -13.60693,-11.05225 -6.1384,0 -11.15297,2.55971 -14.22217,4.70948 l -5.62793,-11.15918 c 4.8023,-2.86416 10.53598,-5.41846 20.86817,-5.41846 16.78138,0 28.13964,10.54405 28.13964,23.21777 0,10.1337 -6.03979,16.27204 -14.01709,17.80664 v 0.20508 c 7.6797,2.86416 11.66895,8.80498 11.66895,16.27295 0,9.62437 -8.388,18.42188 -23.12549,18.42188 z m -98.30713,-2.55176 25.49414,-72.54932 h 16.69336 l 25.49414,72.54932 h -17.01123 c -5.97889,-18.40706 -13.07029,-36.60687 -16.82959,-55.62744 -3.7593,19.02058 -10.8507,37.22036 -16.82959,55.62744 z"/>
    </g>
  </g>
</svg>