<?xml version="1.0" encoding="utf-8"?>
<svg version="1.1" id="svg182" width="7.53cm" height="7.53cm" viewBox="0 0 250 250.00002" xmlns="http://www.w3.org/2000/svg">
  <g id="g190" transform="matrix(1.3333333,0,0,-1.3333333,919.63064,-167.25831)">
    <rect width="187.5" height="28.125662" rx="9.3730164" id="rect9644" x="-689.72302" y="125.44374" transform="scale(1,-1)" style="fill-opacity: 1; stroke-width: 0.661469; fill: rgb(255, 130, 180);"/>
    <rect width="187.5" height="28.125662" rx="9.3730164" y="284.81808" id="rect9646" x="-689.72302" transform="scale(1,-1)" style="fill-opacity: 1; stroke-width: 0.661469; fill: rgb(255, 130, 180);"/>
    <path id="path9648" style="fill-opacity: 1; stroke-width: 0.661469;" d="m -534.7601,-181.37733 c -21.79538,0 -26.49903,-21.48502 -26.49903,-38.16064 0,-16.67561 4.26042,-38.15918 26.08887,-38.15918 21.78877,0 26.49756,21.48357 26.49756,38.15918 0,16.67562 -4.29202,38.16064 -26.0874,38.16064 z m -55.4253,-2.15039 c -7.13063,-5.45711 -16.23869,-10.22609 -23.8125,-13.39453 l 4.91455,-11.05371 c 4.80888,2.14978 11.76725,5.52361 16.16602,9.00293 v -56.78027 h 15.30029 v 72.22558 z m -94.00781,-0.13037 25.49414,-72.54932 h 16.69336 l 25.49414,72.54932 h -17.01123 c -5.97889,-18.40712 -13.07029,-36.60829 -16.82959,-55.6289 -3.75927,19.02061 -10.85072,37.22178 -16.82959,55.6289 z m 149.22803,-9.87744 0.0264,-0.0396 c 10.30568,0 10.61573,-18.38912 10.61573,-25.94971 0,-7.1637 -0.40917,-26.0874 -10.64209,-26.0874 -10.23292,0 -10.74317,18.71865 -10.74317,26.0874 0,7.36877 0.3052,25.98926 10.74317,25.98926 z"/>
  </g>
</svg>