<?xml version="1.0" encoding="utf-8"?>
<svg version="1.1" id="svg182" width="7.53cm" height="7.53cm" viewBox="0 0 250.00005 249.99999" xmlns="http://www.w3.org/2000/svg">
  <g id="g190" transform="matrix(1.3333333,0,0,-1.3333333,1305.6766,678.06041)">
    <rect width="187.5" height="28.125662" rx="9.3730164" id="rect9446" x="-979.25751" y="-508.54532" transform="scale(1,-1)" style="fill-opacity: 1; stroke-width: 0.661469; fill: rgb(255, 20, 0);"/>
    <rect width="187.5" height="28.125662" rx="9.3730164" y="-349.17099" id="rect9448" x="-979.25751" transform="scale(1,-1)" style="fill-opacity: 1; stroke-width: 0.661469; fill: rgb(255, 20, 0);"/>
    <path id="path9450" style="fill-opacity: 1; stroke-width: 0.661469;" d="m -845.26731,450.50849 c -7.13062,-5.42405 -16.23869,-10.22681 -23.8125,-13.40186 l 4.93359,-11.06689 c 4.80888,2.14315 11.76872,5.52361 16.16749,9.00293 v -56.80665 h 15.27978 v 72.27247 z m -96.74121,-0.29444 25.49414,-72.54931 h 16.69336 l 25.49414,72.54931 h -17.01123 c -5.97888,-18.40708 -13.07029,-36.60831 -16.82959,-55.6289 -3.75927,19.02059 -10.85073,37.2218 -16.82959,55.6289 z"/>
  </g>
</svg>