<?xml version="1.0" encoding="utf-8"?>
<svg version="1.1" id="svg182" width="7.53cm" height="7.53cm" viewBox="0 0 250.00003 250" xmlns="http://www.w3.org/2000/svg">
  <g id="g190" transform="matrix(1.3333333,0,0,-1.3333333,298.30407,180.52615)">
    <g id="g5569" transform="translate(-1001.8133,-129.33695)">
      <rect width="187.5" height="28.125662" rx="9.3730164" id="rect9578" x="778.08527" y="-264.73157" transform="scale(1,-1)" style="fill-opacity: 1; stroke-width: 0.661469; fill: rgb(130, 200, 230);"/>
      <rect width="187.5" height="28.125662" rx="9.3730164" y="-105.35722" id="rect9580" x="778.08527" transform="scale(1,-1)" style="fill-opacity: 1; stroke-width: 0.661469; fill: rgb(130, 200, 230);"/>
      <path id="path9582" style="fill-opacity: 1; stroke-width: 0.661469;" d="m 809.02912,206.97088 25.49414,-72.54931 h 16.69336 l 25.49414,72.54931 h -17.01123 c -5.97888,-18.4071 -13.07029,-36.60831 -16.82959,-55.6289 -3.75927,19.02059 -10.85073,37.2218 -16.82959,55.6289 z m 75.07031,-0.29004 v -12.06445 h 35.09766 l -17.60303,-32.77588 c -6.34347,-11.76091 -8.89599,-17.90703 -8.89599,-27.41894 h 16.4707 c 0,11.38386 9.61748,32.96848 25.47949,60.49218 v 11.76709 z"/>
    </g>
  </g>
</svg>