<?xml version="1.0" encoding="utf-8"?>
<svg version="1.1" id="svg182" width="7.53cm" height="7.53cm" viewBox="0 0 250.00008 249.99999" xmlns="http://www.w3.org/2000/svg">
  <g id="g190" transform="matrix(1.3333333,0,0,-1.3333333,992.92246,683.64371)">
    <g id="g4548" transform="translate(-399.922,9.3005117)">
      <rect width="187.5" height="28.125662" rx="9.3730164" id="rect2935" x="-344.76987" y="-503.43228" transform="scale(1,-1)" style="fill-opacity: 1; stroke-width: 0.661469; fill: rgb(255, 190, 0);"/>
      <rect width="187.5" height="28.125662" rx="9.3730164" y="-344.05795" id="rect2937" x="-344.76987" transform="scale(1,-1)" style="fill-opacity: 1; stroke-width: 0.661469; fill: rgb(255, 190, 0);"/>
      <path id="path2939" style="fill-opacity: 1; stroke-width: 0.661469;" d="m -215.1225,447.32057 c -9.75,0 -16.1917,-2.86558 -23.1504,-8.90479 l 7.5468,-9.99463 c 1.7463,1.91826 6.1458,6.54932 12.4893,6.54932 7.8715,0 11.9648,-5.22551 11.9648,-11.45654 0,-6.95865 -5.2121,-12.18471 -10.021,-16.37842 -9.6176,-8.41388 -17.9057,-16.08719 -19.7446,-24.47461 v -9.5376 h 46.9307 v 12.11719 h -29.7656 c 0.9194,4.17386 8.1823,10.51763 11.8667,13.89111 8.6651,7.87809 16.5366,13.7128 16.5366,26.08887 0,14.7309 -11.9664,22.1001 -24.6533,22.1001 z m -97.7315,-0.82471 25.4941,-72.54932 h 16.6934 l 25.4941,72.54932 h -17.0112 c -5.9789,-18.40708 -13.0703,-36.60831 -16.8296,-55.6289 -3.7593,19.0206 -10.8507,37.2218 -16.8296,55.6289 z"/>
    </g>
  </g>
</svg>