<?xml version="1.0" encoding="utf-8"?>
<svg version="1.1" id="svg182" width="7.53cm" height="7.53cm" viewBox="0 0 250.00002 250.00004" xmlns="http://www.w3.org/2000/svg">
  <g id="g190" transform="matrix(1.3333333,0,0,-1.3333333,-281.66857,-206.71702)">
    <path id="path9626" style="fill-opacity: 1; stroke-width: 0.661469;" d="m 339.40667,-211.37504 c -15.13439,0 -24.75879,-10.64346 -24.75879,-25.06348 0,-13.50717 9.62438,-21.39111 21.59034,-21.39111 7.77225,0 12.4815,2.77139 14.93554,4.91455 -1.02526,-14.52584 -8.3944,-22.60254 -18.52148,-22.60254 -3.38522,-0.0307 -6.747,0.55652 -9.92139,1.73291 l -2.25586,-12.27685 c 3.55761,-0.82053 7.19616,-1.23347 10.84717,-1.23047 23.11832,0 34.88558,18.00554 34.89258,43.07519 0,19.12966 -7.05666,32.8418 -26.80811,32.8418 z m -96.66797,-1.9248 25.49414,-72.54932 h 16.69336 l 25.49415,72.54932 h -17.01124 c -5.97888,-18.40709 -13.07029,-36.60833 -16.82959,-55.62891 -3.75926,19.02059 -10.85072,37.2218 -16.82959,55.62891 z m 97.27588,-9.43213 c 7.36877,0 11.35694,-6.64856 11.35694,-13.52784 0,-2.14976 -10e-5,-5.01429 -0.82031,-6.24462 -1.42877,-2.22915 -5.08603,-3.96827 -9.71631,-3.96827 -7.15709,0 -11.66162,4.91536 -11.66162,11.66895 0,6.23764 3.6776,12.07178 10.8413,12.07178 z"/>
    <rect width="187.5" height="28.125662" rx="9.3730164" id="rect1949" x="211.25145" y="155.03777" transform="scale(1,-1)" style="fill-opacity: 1; stroke-width: 0.661469; fill: rgb(255, 90, 0);"/>
    <rect width="187.5" height="28.125662" rx="9.3730164" y="314.41214" id="rect1951" x="211.25145" transform="scale(1,-1)" style="fill-opacity: 1; stroke-width: 0.661469; fill: rgb(255, 90, 0);"/>
  </g>
</svg>