<?xml version="1.0" encoding="utf-8"?>
<svg version="1.1" id="svg182" width="7.53cm" height="7.53cm" viewBox="0 0 250.00002 249.99999" xmlns="http://www.w3.org/2000/svg">
  <g id="g190" transform="matrix(1.3333333,0,0,-1.3333333,57.384425,24.189568)">
    <g id="g5563" transform="translate(-1050.0407,-247.71314)">
      <rect width="187.5" height="28.125662" rx="9.3730164" id="rect9600" x="1007.0024" y="-265.85532" transform="scale(1,-1)" style="fill-opacity: 1; stroke-width: 0.661469; fill: rgb(100, 0, 130);"/>
      <rect width="187.5" height="28.125662" rx="9.3730164" y="-106.48099" id="rect9602" x="1007.0024" transform="scale(1,-1)" style="fill-opacity: 1; stroke-width: 0.661469; fill: rgb(100, 0, 130);"/>
      <path id="path9604" style="fill-opacity: 1; stroke-width: 0.661469;" d="m 1138.1722,209.95477 c -12.3827,0 -23.2251,-8.28768 -23.2251,-20.26025 0,-7.4746 3.8837,-12.38281 10.1279,-16.26563 -6.9586,-3.58517 -12.3764,-9.6252 -12.3764,-19.23633 0,-10.94731 9.0747,-20.56494 25.1352,-20.56494 14.8301,0 25.7776,8.5921 25.8106,22.3374 0,9.51192 -5.86,15.65774 -12.4746,18.82618 6.7469,4.0548 10.226,9.78302 10.226,16.53662 0,12.38268 -10.5432,18.62695 -23.2236,18.62695 z m -100.2788,-1.06055 25.4941,-72.54931 h 16.6934 l 25.4941,72.54931 h -17.0112 c -5.9789,-18.4071 -13.0703,-36.60831 -16.8296,-55.6289 -3.7592,19.02059 -10.8507,37.2218 -16.8296,55.6289 z m 100.4502,-9.37793 c 5.9334,0 9.208,-4.09366 9.208,-9.12744 0,-4.49798 -4.0943,-9.20858 -7.8779,-10.94824 -4.5839,1.94472 -10.5381,5.61026 -10.5381,11.56348 0,5.01392 3.5789,8.49316 9.208,8.49316 z m -1.7403,-31.10888 c 6.1385,-3.09568 12.0718,-7.0643 12.0718,-13.59961 0,-5.7217 -3.7834,-10.53077 -10.6362,-10.53077 -6.9586,0 -10.8472,5.61027 -10.8472,11.56348 0,5.61588 4.7021,10.72801 9.4116,12.5669 z"/>
    </g>
  </g>
</svg>