<?xml version="1.0" encoding="utf-8"?>
<svg version="1.1" id="svg182" width="7.53cm" height="7.53cm" viewBox="0 0 250.00003 249.99999" xmlns="http://www.w3.org/2000/svg">
  <g id="g190" transform="matrix(1.3333333,0,0,-1.3333333,1331.1849,371.16529)">
    <g id="g5090" transform="translate(-2755.5346,-276.21111)">
      <rect width="187.5" height="28.125662" rx="9.3730164" id="rect9512" x="1757.1459" y="-554.58508" transform="scale(1,-1)" style="fill-opacity: 1; stroke-width: 0.661469; fill: rgb(0, 85, 200);"/>
      <rect width="187.5" height="28.125662" rx="9.3730164" y="-395.21075" id="rect9514" x="1757.1459" transform="scale(1,-1)" style="fill-opacity: 1; stroke-width: 0.661469; fill: rgb(0, 85, 200);"/>
      <path id="path9516" style="fill-opacity: 1; stroke-width: 0.661469;" d="m 1786.8592,496.67597 25.4942,-72.54932 h 16.6933 l 25.4942,72.54932 h -17.0113 c -5.9789,-18.40708 -13.0703,-36.60832 -16.8296,-55.62891 -3.7593,19.0206 -10.8507,37.22181 -16.8295,55.62891 z m 100.7549,-0.16846 -28.0268,-43.78857 v -13.38135 h 32.5312 v -15.06153 h 14.3203 v 15.06153 l 8.4932,-0.0132 v 11.24414 h -8.4932 v 45.93896 z m 4.2993,-12.65918 h 0.2051 v -33.28564 h -20.1548 l 14.7305,23.15185 c 2.8642,4.49799 4.9149,8.89685 5.2192,10.13379 z"/>
    </g>
  </g>
</svg>