<?xml version="1.0" encoding="utf-8"?>
<svg version="1.1" id="svg182" width="7.53cm" height="7.53cm" viewBox="0 0 250 250" xmlns="http://www.w3.org/2000/svg">
  <g id="g190" transform="matrix(1.3333333,0,0,-1.3333333,1034.0509,366.95617)">
    <g id="g7052">
      <rect width="187.5" height="28.125662" rx="9.3730164" id="rect9534" x="-775.53821" y="-275.21713" transform="scale(1,-1)" style="fill-opacity: 1; stroke-width: 0.661469; fill: rgb(160, 0, 110);"/>
      <rect width="187.5" height="28.125662" rx="9.3730164" y="-115.84279" id="rect9536" x="-775.53821" transform="scale(1,-1)" style="fill-opacity: 1; stroke-width: 0.661469; fill: rgb(160, 0, 110);"/>
      <path id="path9538" style="fill-opacity: 1; stroke-width: 0.661469;" d="m -660.6081,217.10072 -2.8638,-37.54541 c 2.3416,0 7.1497,-0.0996 11.2442,-0.0996 13.3021,-0.18521 16.7754,-7.34791 16.7754,-12.5669 0,-8.49325 -7.0506,-11.8667 -12.6797,-11.8667 -5.6291,0 -9.7436,1.86544 -13.7124,4.63037 l -5.8345,-11.2456 c 5.5299,-3.37349 11.9658,-5.21192 20.3599,-5.21192 16.4704,0 27.4174,11.35744 27.4174,25.18213 0,10.84147 -7.9773,21.99366 -27.7221,22.91309 -0.7276,0 -1.6407,0.10547 -2.0508,0.10547 l 1.0254,13.70508 h 26.0024 v 12 z m -83.0669,-0.64892 25.4941,-72.54933 h 16.6934 l 25.4941,72.54933 h -17.0112 c -5.9789,-18.40709 -13.0703,-36.60832 -16.8296,-55.62892 -3.7592,19.0206 -10.8507,37.22181 -16.8296,55.62892 z"/>
    </g>
  </g>
</svg>