<?xml version="1.0" encoding="utf-8"?>
<svg width="7.53cm" height="7.53cm" viewBox="0 0 20 20" version="1.1" id="svg844" xmlns="http://www.w3.org/2000/svg">
  <g id="layer1" transform="matrix(0.999519, 0, 0, 0.996301, -0.072316, 0.056626)">
    <g id="g5716" transform="matrix(0.76227715,0,0,-0.76474036,34.374713,483.85236)" style="display:inline">
      <g id="g5426" transform="translate(-45,37.500012)" style="fill:#1f262f;fill-opacity:1">
        <path id="path5422" style="fill-opacity: 1; fill-rule: nonzero; stroke: none; stroke-width: 3.34031; fill: rgb(0, 0, 0);" d="M 17.291016 -0.21484375 C 7.893442 -0.21484375 0.2734375 7.4271233 0.2734375 16.855469 L 0.2734375 58.585938 C 0.2734375 68.014283 7.893442 75.65625 17.291016 75.65625 L 58.882812 75.65625 C 68.280386 75.65625 75.900391 68.014283 75.900391 58.585938 L 75.900391 16.855469 C 75.900391 7.4271233 68.280386 -0.21484375 58.882812 -0.21484375 L 17.291016 -0.21484375 z M 17.291016 4.7167969 L 58.882812 4.7167969 C 65.565834 4.7167969 70.984375 10.150562 70.984375 16.855469 L 70.984375 58.585938 C 70.984375 65.290844 65.565834 70.724609 58.882812 70.724609 L 17.291016 70.724609 C 10.607994 70.724609 5.1894531 65.290844 5.1894531 58.585938 L 5.1894531 16.855469 C 5.1894531 10.150562 10.607994 4.7167969 17.291016 4.7167969 z " transform="matrix(0.34709598,0,0,-0.34597799,-0.09477032,595.20147)"/>
      </g>
      <path id="path5428" style="color: rgb(0, 0, 0); fill-opacity: 1; stroke-width: 0.0531925; stroke-linecap: round; stroke-miterlimit: 10;" d="m -40.984725,626.20866 v -13.11531 h 15.123358 c 2.409863,0 4.146296,1.65691 4.146296,3.60687 0,0.92251 -0.337774,1.67588 -0.97566,2.47462 l -0.0086,0.0109 -3.939039,4.3967 c -1.526039,1.80101 -3.667871,2.62625 -7.089294,2.62625 z m 1.25213,-3.52509 h 5.1026 v -3.56286 h -5.1026 z m 6.28385,0 6.159266,-5.3e-4 3.191528,-3.56244 -9.350794,1.1e-4 z"/>
    </g>
  </g>
</svg>