<?xml version="1.0" encoding="utf-8"?>
<svg version="1.1" id="Calque_1" x="0px" y="0px" viewBox="0 0 233.73 233.73" style="enable-background:new 0 0 233.73 233.73;" width="7.53cm" height="7.53cm" xmlns="http://www.w3.org/2000/svg">
  <style type="text/css">
	.st0{enable-background:new    ;}
	.st1{fill:#25303B;}
	.st2{fill:#FFFFFF;}
</style>
  <g id="g5140" transform="matrix(1.3333333,0,0,-1.3333333,859.99987,1578.2504)" class="st0">
    <g id="g1731" transform="translate(29.999994,75.000003)">
      <path class="cls-1" d="M -539.139 933.39 L -635.557 933.39 C -657.338 933.39 -674.997 951.046 -675 972.827 L -675 1069.245 C -674.993 1091.026 -657.338 1108.681 -635.557 1108.688 L -539.139 1108.688 C -517.358 1108.684 -499.703 1091.026 -499.703 1069.245 L -499.703 972.827 C -499.703 951.047 -517.359 933.39 -539.139 933.39 Z M -511.119 972.827 L -511.119 1069.245 C -511.119 1084.734 -523.675 1097.291 -539.164 1097.291 L -635.557 1097.291 C -651.046 1097.291 -663.602 1084.734 -663.602 1069.245 L -663.602 972.827 C -663.589 957.348 -651.037 944.806 -635.557 944.806 L -539.139 944.806 C -523.672 944.827 -511.138 957.36 -511.119 972.827 Z" id="path977" style="fill-opacity: 1; fill: rgb(0, 0, 0);"/>
    </g>
    <g id="g5131">
      <path id="path1733" class="st1" d="M-528.42,1126.56c-3.07,0-4.82-2.41-4.82-5.04v-51.5c0-3.07,3.06-4.6,5.91-4.6 c3.29,0,5.92,1.53,5.92,4.6v19.94h5.05l9.85-22.12c0.87-1.75,2.41-2.42,4.17-2.42c3.5,0,8.55,3.29,6.57,7.23l-9.43,19.72 c5.7,2.86,10.53,7.89,10.53,16.88c0,11.83-8.76,17.31-17.31,17.31H-528.42z M-521.41,1116.49h4.16c5.48,0,10.3-2.41,10.3-8.55 c0-7.45-6.79-9.21-10.96-9.21h-3.5V1116.49z" style="fill: rgb(0, 0, 0);"/>
      <path id="path1735" class="st1" d="M-539.16,1071.12c0,2.64-1.75,5.47-4.82,5.47h-16.66v15.12h13.81c3.07,0,4.82,2.64,4.82,5.05 c0,2.62-1.75,5.04-4.82,5.04h-13.81v13.8h15.34c3.07,0,4.82,3.07,4.82,5.48c0,2.63-1.75,5.48-4.82,5.48h-22.36 c-3.07,0-4.82-2.41-4.82-5.04v-51.28c0-3.06,3.07-4.59,5.91-4.59h22.57C-540.91,1065.65-539.16,1068.71-539.16,1071.12" style="fill: rgb(0, 0, 0);"/>
      <path id="path3579" class="st1" d="M-613.73,1126.56c-3.07,0-4.83-2.85-4.83-5.48c0-2.41,1.76-5.48,4.83-5.48h8.98v-45.59 c0-3.07,3.06-4.6,5.91-4.6c3.29,0,5.92,1.53,5.92,4.6v45.59h9.12c3.07,0,4.83,3.07,4.83,5.48c0,2.63-1.76,5.48-4.83,5.48H-613.73z " style="fill: rgb(0, 0, 0);"/>
    </g>
  </g>
</svg>