<?xml version="1.0" encoding="utf-8"?>
<svg viewBox="0 0 283.46 283.46" width="7.53cm" height="7.53cm" xmlns="http://www.w3.org/2000/svg">
  <defs>
    <style>.cls-1{fill:#64b5e5;}.cls-2{fill:#25303b;}</style>
  </defs>
  <g id="Layer_2" data-name="Layer 2">
    <g id="Layer_1-2" data-name="Layer 1">
      <g id="Layer_2-2" data-name="Layer 2">
        <g id="Layer_1-2-2" data-name="Layer 1-2">
          <path class="cls-1" d="M219.69,283.46H63.78A63.78,63.78,0,0,1,0,219.69V63.78A63.8,63.8,0,0,1,63.78,0H219.69a63.78,63.78,0,0,1,63.77,63.78V219.69A63.77,63.77,0,0,1,219.69,283.46ZM265,219.69V63.78a45.35,45.35,0,0,0-45.35-45.35H63.78A45.35,45.35,0,0,0,18.43,63.78h0V219.69A45.35,45.35,0,0,0,63.78,265H219.69A45.37,45.37,0,0,0,265,219.69Z" style="fill: rgb(0, 0, 0);"/>
          <path class="cls-2" d="M96.46,91.6H41.19c-5,0-7.79,4.6-7.79,8.86,0,3.86,2.77,8.75,7.64,8.85H59.26V183c0,5,5,7.43,9.56,7.43,5.32,0,9.57-2.47,9.57-7.43V109.31H96.61c4.87-.1,7.64-5,7.64-8.85C104.25,96.2,101.42,91.6,96.46,91.6Z" style="fill: rgb(0, 0, 0);"/>
          <path class="cls-2" d="M234.21,91.72a7,7,0,0,0-6.09,4.86l-4.69,17.31L211.07,158.4l-12.36-44.51L194,96.58a7,7,0,0,0-6.09-4.86c-5.6-.84-14.46,3.2-12.25,10l5.53,18,18.18,59.12s1.87,5.88,2.63,7.79c1.14,2.85,4.91,3.89,7.71,3.87h2.69c2.79,0,6.56-1,7.7-3.87.77-1.91,2.63-7.79,2.63-7.79l18.18-59.12,5.53-18C248.67,94.92,239.81,90.88,234.21,91.72Z" style="fill: rgb(0, 0, 0);"/>
          <path class="cls-2" d="M170,136.26c-7.05-.13-14.64-.2-22.32.1a8.57,8.57,0,0,0-5,2.31c-3,2.82-2.31,6.54-1.24,9.17,1.32,3.24,4.36,4,6.68,4.11,2,.07,8,.13,8,.13h.73v.7c0,.12-.07,2.77-.07,2.77a35.2,35.2,0,0,1-1.49,8.33c-1.54,4.33-5,7.17-10.64,8.69a19.49,19.49,0,0,1-15.77-2.19,15.59,15.59,0,0,1-6.74-11.4c-.4-3.15-1.18-15.51-.87-18.16h0V130.71c.1-4,.52-9.26,3-14a15,15,0,0,1,9.31-7.34,19.48,19.48,0,0,1,14.72,1.42,27.43,27.43,0,0,1,6.3,5.57c.5.54,1,1.08,1.5,1.6a9.62,9.62,0,0,0,12.3,1.36A8.75,8.75,0,0,0,171.11,108c-3.85-7.7-10.58-12.61-20.56-15a48.31,48.31,0,0,0-11.36-1.38A45,45,0,0,0,124.55,94a30.79,30.79,0,0,0-13.09,8.3c-5.4,5.9-8.45,13.39-9.08,22.26-.57,8-.65,15.86-.66,23.2,0,8.71,1.1,15.6,3.45,21.67,4,10.17,11.48,16.73,22.39,19.48,10.49,2.65,20.38,1.85,29.39-2.39a30.88,30.88,0,0,0,12.74-10.9c6.41-9.61,6.78-20.32,6.61-32.33C176.24,139.1,173.76,136.33,170,136.26Z" style="fill: rgb(0, 0, 0);"/>
        </g>
      </g>
    </g>
  </g>
</svg>