<?xml version="1.0" encoding="utf-8"?>
<svg viewBox="0 0 283.46 283.46" version="1.1" id="svg989" width="7.53cm" height="7.53cm" xmlns="http://www.w3.org/2000/svg">
  <defs id="defs975">
    <style id="style973">.cls-1{fill:#64b5e5;}.cls-2{fill:#000000;}</style>
  </defs>
  <g id="Layer_2" data-name="Layer 2">
    <g id="Layer_1-2" data-name="Layer 1">
      <g id="Layer_2-2" data-name="Layer 2">
        <g id="Layer_1-2-2" data-name="Layer 1-2">
          <path class="cls-1" d="M219.69,283.46H63.78A63.78,63.78,0,0,1,0,219.69V63.78A63.8,63.8,0,0,1,63.78,0H219.69a63.78,63.78,0,0,1,63.77,63.78V219.69A63.77,63.77,0,0,1,219.69,283.46ZM265,219.69V63.78a45.35,45.35,0,0,0-45.35-45.35H63.78A45.35,45.35,0,0,0,18.43,63.78h0V219.69A45.35,45.35,0,0,0,63.78,265H219.69A45.37,45.37,0,0,0,265,219.69Z" id="path977" style="fill-opacity: 1; fill: rgb(0, 0, 0);"/>
        </g>
      </g>
    </g>
  </g>
  <g aria-label="FRET" transform="scale(0.89718009,1.1146034)" id="text15362-9-3-2" style="font-size:117.031px;font-family:Dosis;-inkscape-font-specification:'sans-serif, Normal';letter-spacing:0px;word-spacing:0px;fill:#1f262f;stroke-width:0.731447;fill-opacity:1">
    <g>
      <path d="M 39.15 162.857 C 39.15 166.602 43.715 168.474 48.279 168.474 C 52.843 168.474 57.407 166.602 57.407 162.857 L 57.407 132.663 L 75.079 132.663 C 78.941 132.663 80.579 128.918 80.579 125.758 C 80.579 122.013 78.59 118.619 75.079 118.619 L 57.407 118.619 L 57.407 98.841 L 87.718 98.841 C 91.229 98.841 93.219 95.096 93.219 90.766 C 93.219 87.021 91.58 82.925 87.718 82.925 L 47.108 82.925 C 43.129 82.925 39.15 84.797 39.15 88.542 L 39.15 162.857 Z" style="fill-opacity: 1; fill: rgb(0, 0, 0);" id="path2152"/>
      <path d="M 99.421 162.857 C 99.421 166.602 103.985 168.474 108.55 168.474 C 113.114 168.474 117.678 166.602 117.678 162.857 L 117.678 134.652 L 125.402 134.652 L 141.435 165.783 C 142.723 168.24 144.946 169.177 147.287 169.177 C 152.67 169.177 158.756 164.261 158.756 159.697 C 158.756 159.112 158.639 158.293 158.171 157.59 L 143.893 131.727 C 152.085 128.567 158.054 121.077 158.054 107.969 C 158.054 88.893 145.297 82.925 129.264 82.925 L 105.039 82.925 C 101.645 82.925 99.421 85.499 99.421 88.425 L 99.421 162.857 Z M 129.264 98.841 C 135.818 98.841 139.797 101.533 139.797 109.725 C 139.797 117.917 135.818 120.609 129.264 120.609 L 117.678 120.609 L 117.678 98.841 L 129.264 98.841 Z" style="fill-opacity: 1; fill: rgb(0, 0, 0);" id="path2154"/>
      <path d="M 186.024 98.841 L 217.388 98.841 C 220.899 98.841 222.889 95.096 222.889 90.766 C 222.889 87.021 221.25 82.925 217.388 82.925 L 175.725 82.925 C 171.746 82.925 167.767 84.797 167.767 88.542 L 167.767 162.857 C 167.767 166.602 171.746 168.474 175.725 168.474 L 217.388 168.474 C 221.25 168.474 222.889 164.378 222.889 160.633 C 222.889 156.303 220.899 152.558 217.388 152.558 L 186.024 152.558 L 186.024 132.663 L 203.579 132.663 C 207.441 132.663 209.079 128.918 209.079 125.758 C 209.079 122.013 207.09 118.619 203.579 118.619 L 186.024 118.619 L 186.024 98.841 Z" style="fill-opacity: 1; fill: rgb(0, 0, 0);" id="path2156"/>
      <path d="M 230.964 82.925 C 227.102 82.925 225.463 87.138 225.463 91 C 225.463 95.447 227.453 99.309 230.964 99.309 L 247.114 99.309 L 247.114 162.857 C 247.114 166.602 251.678 168.474 256.243 168.474 C 260.807 168.474 265.371 166.602 265.371 162.857 L 265.371 99.309 L 281.521 99.309 C 285.032 99.309 287.022 95.447 287.022 91 C 287.022 87.138 285.383 82.925 281.521 82.925 L 230.964 82.925 Z" style="fill-opacity: 1; fill: rgb(0, 0, 0);" id="path2158"/>
    </g>
  </g>
</svg>