<?xml version="1.0" encoding="utf-8"?>
<svg version="1.1" id="Calque_1" x="0px" y="0px" viewBox="0 0 233.7 233.7" style="enable-background:new 0 0 233.7 233.7;" width="7.53cm" height="7.53cm" xmlns="http://www.w3.org/2000/svg">
  <style type="text/css">
	.st0{fill:#25303B;}
</style>
  <g>
    <path class="st0" d="M25.1,154.4l32.3-29.1c2.9-3,2.9-8,0-11L25.1,85.2c-2-1-3.9,0-3.9,2v65.2C21.2,154.4,23.2,155.4,25.1,154.4z" style="fill: rgb(0, 0, 0);"/>
  </g>
  <g>
    <path class="st0" d="M208,82.2c5.9-6,8.8-13,8.8-18.1c0-3-1-6-2.9-8c-2-2-4.9-3-7.8-3c-5.9,0-12.7,3-17.6,9 c-8.8,8-17.6,18.1-26.4,27.1l-68.5-14c-2,0-3.9,1-4.9,3l-2,3c-1,3,0,5,2,6l49.9,25.1l-30.3,36.1c-6.8-2-17.6-5-17.6,4c0,2,0,3,2,5 l21.5,22.1c2,1,3.9,2,4.9,2c8.8,0,5.9-11,3.9-18.1l35.2-31.1l24.4,51.2c1,2,3.9,3,5.9,2l3.9-2c2-1,2.9-3,2-5l-13.7-70.2 C190.4,100.2,199.2,91.2,208,82.2z M205.1,58.1c2,0,3.9,1,4.9,2s2,3,2,5c0,3-7.8,13-10.8,16.1l-11.7-12 C192.4,66.1,202.1,58.1,205.1,58.1z" style="fill: rgb(0, 0, 0);"/>
  </g>
  <g>
    <path class="st0" d="M226.6,16H7.5c-3.9,0-7.8-4-7.8-8s3.9-8,7.8-8h218.1c4.9,0,7.8,4,7.8,8S230.5,16,226.6,16z" style="fill: rgb(0, 0, 0);"/>
  </g>
  <g>
    <path class="st0" d="M226.6,233.7H7.5c-4.9,0-7.8-4-7.8-8s3.9-9,7.8-9h218.1c4.9,0,7.8,4,7.8,8S230.5,233.7,226.6,233.7z" style="fill: rgb(0, 0, 0);"/>
  </g>
</svg>