<?xml version="1.0" encoding="utf-8"?>
<svg width="7.53cm" height="7.53cm" viewBox="0 0 9.260417 9.260417" version="1.1" id="svg887" xmlns="http://www.w3.org/2000/svg">
  <g id="layer1">
    <g id="g21215" transform="matrix(0.26458333,0,0,0.26458333,-210.3701,-154.20709)" style="display:inline;enable-background:new">
      <g id="g21207">
        <g id="g19579">
          <path style="fill-opacity: 1; fill-rule: nonzero; stroke: none; stroke-width: 1.54341;" d="M 828.96211,585.10342 H 796.2371 c -0.62817,0 -1.13749,-0.50933 -1.13749,-1.13596 0,-0.62817 0.50932,-1.13749 1.13749,-1.13749 h 32.72501 c 0.62818,0 1.1375,0.50932 1.1375,1.13749 0,0.62663 -0.50932,1.13596 -1.1375,1.13596" id="path1927"/>
          <path style="fill-opacity: 1; fill-rule: nonzero; stroke: none; stroke-width: 1.54341;" d="m 830.09961,616.69402 v 0 c 0,-0.62817 -0.50932,-1.13751 -1.1375,-1.13751 H 796.2371 c -0.62817,0 -1.13749,0.50934 -1.13749,1.13751 0,0.62663 0.50932,1.13595 1.13749,1.13595 h 32.72501 c 0.62818,0 1.1375,-0.50932 1.1375,-1.13595" id="path1925"/>
        </g>
      </g>
      <path id="path1923" style="fill-opacity: 1; fill-rule: nonzero; stroke: none; stroke-width: 1.95591;" d="m 805.75959,590.90467 c -1.75249,0 -3.31904,1.04766 -3.98992,2.66324 -0.8919,2.1476 -1.34647,4.42031 -1.34647,6.75959 0,2.34513 0.45457,4.62031 1.34647,6.76205 0.67088,1.6195 2.23743,2.66572 3.98992,2.66572 h 13.68253 c 1.75249,0 3.31707,-1.04622 3.9899,-2.66572 0.89191,-2.14174 1.344,-4.41692 1.344,-6.76205 0,-2.33928 -0.45209,-4.61396 -1.344,-6.75959 -0.67283,-1.61754 -2.23741,-2.66324 -3.9899,-2.66324 z m -4e-5,1.99743 h 2.20782 c 0.17013,0 0.30692,0.13975 0.30692,0.31187 v 8.559 c 0,0.17209 -0.13675,0.31187 -0.30692,0.31187 h -5.1656 c -0.16043,0 -0.29667,-0.12368 -0.31187,-0.28217 -0.045,-0.48702 -0.0693,-0.98033 -0.0693,-1.47517 0,-2.07523 0.40086,-4.09115 1.193,-5.9923 0.3599,-0.87037 1.2032,-1.4331 2.14594,-1.4331 z m 4.82403,0 h 4.03447 c 0.17211,0 0.31186,0.13975 0.31186,0.31187 v 14.23695 c 0,0.1721 -0.13974,0.30939 -0.31186,0.30939 h -4.03447 c -0.17211,0 -0.31186,-0.13728 -0.31186,-0.30939 v -14.23695 c 0,-0.17209 0.13974,-0.31187 0.31186,-0.31187 z m 6.65068,0 h 2.20782 c 0.94275,0 1.78409,0.56273 2.14594,1.4331 0.79215,1.90115 1.19301,3.91707 1.19301,5.9923 0,0.49484 -0.0243,0.98815 -0.0693,1.47517 -0.0156,0.15847 -0.15152,0.28217 -0.31186,0.28217 h -5.1656 c -0.17023,0 -0.30939,-0.13975 -0.30939,-0.31187 v -8.559 c 0,-0.17209 0.13922,-0.31187 0.30939,-0.31187 z"/>
    </g>
  </g>
</svg>