<?xml version="1.0" encoding="utf-8"?>
<svg version="1.1" id="Calque_1" x="0px" y="0px" width="7.53cm" height="7.53cm" viewBox="0 0 160 160" style="enable-background:new 0 0 160 160;" xmlns="http://www.w3.org/2000/svg">
  <path d="M102,123.9l-1.9-2.5c-11.3-15.2-21.9-29.1-31.7-41.4c-4.3-5.3-7.8-9.7-10.5-13.1c0,7.9,0.1,16.7,0.2,26.5  c0.1,14.6,0.2,23.1,0.3,25.3l0.1,3.8H41.9l0.2-3.9c0-0.9,0.1-4.2,0.2-9.9c0.1-5.7,0.1-13.8,0.1-23.9c0-4,0-9.4-0.1-16.3  c0-6.8-0.1-14-0.2-21.5l0-2.4l13.5-6.4l1.9,2.4c0.7,0.9,7.2,9.1,17.3,21.9C82.9,73,91,83.1,98.6,92.6c0-5-0.1-11.2-0.2-18.7  c-0.1-13.6-0.2-23.9-0.2-30.5v-3.8h16.3l0,3.8c-0.1,5.8-0.1,12.6-0.2,20.2c-0.1,7.6-0.1,13.1-0.1,16.4c0,10.6,0,19.2,0.1,25.4  c0.1,6.8,0.1,9.7,0.1,10.1v2.3L102,123.9z" id="path2" style="fill-opacity: 1;"/>
  <path d="M132,56.4c-0.3,0-0.6-0.2-0.7-0.5l-2.6-7.2l-6.9,3.3c-0.3,0.1-0.6,0.1-0.9-0.2c-0.2-0.2-0.3-0.6-0.2-0.9L124,44  l-7.2-2.6c-0.3-0.1-0.5-0.4-0.5-0.7c0-0.3,0.2-0.6,0.5-0.7l7.2-2.6l-3.3-6.9c-0.1-0.3-0.1-0.6,0.2-0.9c0.2-0.2,0.6-0.3,0.9-0.2  l6.9,3.3l2.6-7.2c0.1-0.3,0.4-0.5,0.7-0.5h0c0.3,0,0.6,0.2,0.7,0.5l2.6,7.2l6.9-3.3c0.3-0.1,0.6-0.1,0.9,0.2  c0.2,0.2,0.3,0.6,0.2,0.9l-3.3,6.9l7.2,2.6c0.3,0.1,0.5,0.4,0.5,0.7c0,0.3-0.2,0.6-0.5,0.7l-7.2,2.6l3.3,6.9  c0.1,0.3,0.1,0.6-0.2,0.9c-0.2,0.2-0.6,0.3-0.9,0.2l-6.9-3.3l-2.6,7.2C132.6,56.2,132.3,56.4,132,56.4L132,56.4z" id="path4" style="fill-opacity: 1;"/>
  <path d="M154.8,10.2H5.2C2.3,10.2,0,7.9,0,5c0-2.9,2.3-5.2,5.2-5.2h149.6c2.9,0,5.2,2.3,5.2,5.2  C160,7.9,157.7,10.2,154.8,10.2z" id="path6" style="fill-opacity: 1;"/>
  <path d="M154.8,159.8H5.2c-2.9,0-5.2-2.3-5.2-5.2c0-2.9,2.3-5.2,5.2-5.2h149.6c2.9,0,5.2,2.3,5.2,5.2  C160,157.5,157.7,159.8,154.8,159.8z" id="path8" style="fill-opacity: 1;"/>
</svg>