<?xml version="1.0" encoding="utf-8"?>
<!-- Generator: Adobe Illustrator 26.3.1, SVG Export Plug-In . SVG Version: 6.00 Build 0)  -->
<svg version="1.1" id="Layer_1" xmlns="http://www.w3.org/2000/svg" xmlns:xlink="http://www.w3.org/1999/xlink" x="0px" y="0px"
	 viewBox="0 0 283.5 283.5" style="enable-background:new 0 0 283.5 283.5;" xml:space="preserve">
<style type="text/css">
	.st0{clip-path:url(#SVGID_00000158750393870806677200000001523794685332821924_);fill:#D2D200;}
	.st1{clip-path:url(#SVGID_00000158750393870806677200000001523794685332821924_);}
</style>
<g>
	<defs>
		<rect id="SVGID_1_" width="283.5" height="283.5"/>
	</defs>
	<clipPath id="SVGID_00000008107930259922024670000008725292157661145523_">
		<use xlink:href="#SVGID_1_"  style="overflow:visible;"/>
	</clipPath>
	<path style="clip-path:url(#SVGID_00000008107930259922024670000008725292157661145523_);fill:#D2D200;" d="M219.7,283.5H63.8
		C28.6,283.5,0,254.9,0,219.7V63.8C0,28.6,28.6,0,63.8,0h155.9c35.2,0,63.8,28.6,63.8,63.8v155.9
		C283.5,254.9,254.9,283.5,219.7,283.5"/>
	<path style="clip-path:url(#SVGID_00000008107930259922024670000008725292157661145523_);" d="M116.7,218.4c-2.5,0-5.1,0-7.7-0.2
		l0.9-24.7c1.1,0,2.3,0.2,3.4,0.2c17.6,0,27.9-10.2,27.9-33.2v-94h33.2v96.8C174.4,190.7,159.7,218.4,116.7,218.4"/>
</g>
</svg>
