<?xml version="1.0" encoding="utf-8"?>
<!-- Generator: Adobe Illustrator 26.3.1, SVG Export Plug-In . SVG Version: 6.00 Build 0)  -->
<svg version="1.1" id="Layer_1" xmlns="http://www.w3.org/2000/svg" xmlns:xlink="http://www.w3.org/1999/xlink" x="0px" y="0px"
	 viewBox="0 0 283.5 283.5" style="enable-background:new 0 0 283.5 283.5;" xml:space="preserve">
<style type="text/css">
	.st0{clip-path:url(#SVGID_00000069359515620490378300000001852806374125402012_);fill:#FF5A00;}
	.st1{clip-path:url(#SVGID_00000069359515620490378300000001852806374125402012_);}
</style>
<g>
	<defs>
		<rect id="SVGID_1_" width="283.5" height="283.5"/>
	</defs>
	<clipPath id="SVGID_00000135691296135118220300000007282337375253646227_">
		<use xlink:href="#SVGID_1_"  style="overflow:visible;"/>
	</clipPath>
	<path style="clip-path:url(#SVGID_00000135691296135118220300000007282337375253646227_);fill:#FF5A00;" d="M219.7,283.5H63.8
		C28.6,283.5,0,254.9,0,219.7V63.8C0,28.6,28.6,0,63.8,0h155.9c35.2,0,63.8,28.6,63.8,63.8v155.9
		C283.5,254.9,254.9,283.5,219.7,283.5"/>
	<path style="clip-path:url(#SVGID_00000135691296135118220300000007282337375253646227_);" d="M144,163.9h-15.3v52.7H95.5V66.5
		h46.1c34.7,0,64.4,9.4,64.4,46.6C206.1,156.7,169.8,163.9,144,163.9 M143.6,92.3h-14.9v46.1H144c12.3,0,28.5-3.8,28.5-23.2
		C172.5,94.8,154.7,92.3,143.6,92.3"/>
</g>
</svg>
