<?xml version="1.0" encoding="utf-8"?>
<!-- Generator: Adobe Illustrator 26.3.1, SVG Export Plug-In . SVG Version: 6.00 Build 0)  -->
<svg version="1.1" id="Layer_1" xmlns="http://www.w3.org/2000/svg" xmlns:xlink="http://www.w3.org/1999/xlink" x="0px" y="0px"
	 viewBox="0 0 283.5 283.5" style="enable-background:new 0 0 283.5 283.5;" xml:space="preserve">
<style type="text/css">
	.st0{clip-path:url(#SVGID_00000166649342556954638810000014838129240428119200_);fill:#FF82B4;}
	.st1{clip-path:url(#SVGID_00000166649342556954638810000014838129240428119200_);}
</style>
<g>
	<defs>
		<rect id="SVGID_1_" width="283.5" height="283.5"/>
	</defs>
	<clipPath id="SVGID_00000089534749514817415660000015962867294597467581_">
		<use xlink:href="#SVGID_1_"  style="overflow:visible;"/>
	</clipPath>
	<path style="clip-path:url(#SVGID_00000089534749514817415660000015962867294597467581_);fill:#FF82B4;" d="M219.7,283.5H63.8
		C28.6,283.5,0,254.9,0,219.7V63.8C0,28.6,28.6,0,63.8,0h155.9c35.2,0,63.8,28.6,63.8,63.8v155.9
		C283.5,254.9,254.9,283.5,219.7,283.5"/>
	<path style="clip-path:url(#SVGID_00000089534749514817415660000015962867294597467581_);" d="M173.7,216.7l-30-51
		c-4.9-8.3-9.6-8.9-13-8.9H121v60H87.8V66.5h48.7c33.8,0,64.6,7.7,64.6,43.2c0,25.1-19.6,36.4-32.8,38.5
		c6.2,10.8,31.7,48.9,45.5,68.5H173.7z M137.1,92.3H121V132H139c12.8,0,27.6-3.8,27.6-20.4C166.7,94.4,150.3,92.3,137.1,92.3"/>
</g>
</svg>
