<?xml version="1.0" encoding="utf-8"?>
<!-- Generator: Adobe Illustrator 26.3.1, SVG Export Plug-In . SVG Version: 6.00 Build 0)  -->
<svg version="1.1" id="Layer_1" xmlns="http://www.w3.org/2000/svg" xmlns:xlink="http://www.w3.org/1999/xlink" x="0px" y="0px"
	 viewBox="0 0 283.5 283.5" style="enable-background:new 0 0 283.5 283.5;" xml:space="preserve">
<style type="text/css">
	.st0{clip-path:url(#SVGID_00000109730458086215336440000004554931868854888342_);}
	.st1{clip-path:url(#SVGID_00000109730458086215336440000004554931868854888342_);fill:#A50034;}
</style>
<g>
	<defs>
		<rect id="SVGID_1_" width="283.5" height="283.5"/>
	</defs>
	<clipPath id="SVGID_00000129888476219721827950000011053941370519129220_">
		<use xlink:href="#SVGID_1_"  style="overflow:visible;"/>
	</clipPath>
	<path style="clip-path:url(#SVGID_00000129888476219721827950000011053941370519129220_);" d="M70.4,107.5V197H46.3v-89.6H12.7
		V87.8h91.3v19.6H70.4z M158.4,197v-85.8c-6.6,5.3-17.2,10.4-24.4,13.6l-7.4-16.7c11.4-4.8,25.2-12.1,36-20.3h19V197H158.4z
		 M199.9,197v-14.4c2.8-12.7,15.3-24.3,29.8-37c7.3-6.3,15.2-14.2,15.2-24.8c0-9.4-6.2-17.3-18.1-17.3c-9.6,0-16.2,7-18.9,9.9
		l-11.4-15.2c10.5-9.1,20.3-13.5,35-13.5c19.2,0,37.3,11.1,37.3,33.4c0,18.7-11.9,27.5-25.1,39.4c-5.6,5.1-16.5,14.7-17.9,21h45V197
		H199.9z"/>
	<path style="clip-path:url(#SVGID_00000129888476219721827950000011053941370519129220_);fill:#A50034;" d="M269.3,42.5H14.2
		C6.3,42.5,0,36.2,0,28.3V14.2C0,6.3,6.3,0,14.2,0h255.1c7.8,0,14.2,6.3,14.2,14.2v14.2C283.5,36.2,277.1,42.5,269.3,42.5
		 M283.5,269.3v-14.2c0-7.8-6.3-14.2-14.2-14.2H14.2c-7.8,0-14.2,6.3-14.2,14.2v14.2c0,7.8,6.3,14.2,14.2,14.2h255.1
		C277.1,283.5,283.5,277.1,283.5,269.3"/>
</g>
</svg>
