<?xml version="1.0" encoding="utf-8"?>
<!-- Generator: Adobe Illustrator 26.3.1, SVG Export Plug-In . SVG Version: 6.00 Build 0)  -->
<svg version="1.1" id="Layer_1" xmlns="http://www.w3.org/2000/svg" xmlns:xlink="http://www.w3.org/1999/xlink" x="0px" y="0px"
	 viewBox="0 0 283.5 283.5" style="enable-background:new 0 0 283.5 283.5;" xml:space="preserve">
<style type="text/css">
	.st0{clip-path:url(#SVGID_00000097480364729866419580000014661454532146249117_);}
	.st1{clip-path:url(#SVGID_00000097480364729866419580000014661454532146249117_);fill:#6E491E;}
</style>
<g>
	<defs>
		<rect id="SVGID_1_" width="283.5" height="283.5"/>
	</defs>
	<clipPath id="SVGID_00000076575012964202097770000007851824799138045861_">
		<use xlink:href="#SVGID_1_"  style="overflow:visible;"/>
	</clipPath>
	<path style="clip-path:url(#SVGID_00000076575012964202097770000007851824799138045861_);" d="M70.3,107.5V197H46.2v-89.6H12.6
		V87.8h91.3v19.6H70.3z M158.3,197v-85.8c-6.6,5.3-17.2,10.4-24.4,13.6l-7.4-16.7c11.4-4.8,25.2-12.1,36-20.3h19V197H158.3z
		 M228.3,199.6c-15.6,0-24.3-3.9-31.6-8.2l8.5-16.9c4.6,3.2,12.2,7.1,21.5,7.1c12.7,0,20.6-7.4,20.6-16.7c0-12.5-9.6-16.9-20.7-16.9
		h-11.3V130h11.4c10.7,0,17.3-5.6,17.3-13.9c0-7-5.3-13.3-16.7-13.3c-10.1,0-16.7,4.8-20.3,7.9l-7.9-16.1c9.3-6.2,19.3-9.7,33.1-9.7
		c22.3,0,35,13.3,35,27.8c0,11.3-6,20.3-17.6,24.6v0.3c12.1,2.3,21.2,11.6,21.2,26.9C270.9,183.7,253.7,199.6,228.3,199.6"/>
	<path style="clip-path:url(#SVGID_00000076575012964202097770000007851824799138045861_);fill:#6E491E;" d="M269.3,42.5H14.2
		C6.3,42.5,0,36.2,0,28.3V14.2C0,6.3,6.3,0,14.2,0h255.1c7.8,0,14.2,6.3,14.2,14.2v14.2C283.5,36.2,277.1,42.5,269.3,42.5
		 M283.5,269.3v-14.2c0-7.8-6.3-14.2-14.2-14.2H14.2c-7.8,0-14.2,6.3-14.2,14.2v14.2c0,7.8,6.3,14.2,14.2,14.2h255.1
		C277.1,283.5,283.5,277.1,283.5,269.3"/>
</g>
</svg>
