<?xml version="1.0" encoding="utf-8"?>
<!-- Generator: Adobe Illustrator 26.3.1, SVG Export Plug-In . SVG Version: 6.00 Build 0)  -->
<svg version="1.1" id="Layer_1" xmlns="http://www.w3.org/2000/svg" xmlns:xlink="http://www.w3.org/1999/xlink" x="0px" y="0px"
	 viewBox="0 0 283.5 283.5" style="enable-background:new 0 0 283.5 283.5;" xml:space="preserve">
<style type="text/css">
	.st0{clip-path:url(#SVGID_00000043441787533654765510000013586801757463423110_);}
	.st1{clip-path:url(#SVGID_00000043441787533654765510000013586801757463423110_);fill:#DC9600;}
</style>
<g>
	<defs>
		<rect id="SVGID_1_" width="283.5" height="283.5"/>
	</defs>
	<clipPath id="SVGID_00000175319755289153777270000014566746070130000829_">
		<use xlink:href="#SVGID_1_"  style="overflow:visible;"/>
	</clipPath>
	<path style="clip-path:url(#SVGID_00000175319755289153777270000014566746070130000829_);" d="M102.6,107.4V197H78.5v-89.5H44.9
		V87.8h91.3v19.6H102.6z M225.7,174.2V197H204v-22.7h-49.2V154l42.4-66.2h28.5v69.5h12.8v17H225.7z M204,106.9h-0.3
		c-0.5,1.9-3.6,8.5-7.9,15.3l-22.3,35H204V106.9z"/>
	<path style="clip-path:url(#SVGID_00000175319755289153777270000014566746070130000829_);fill:#DC9600;" d="M269.3,42.5H14.2
		C6.3,42.5,0,36.2,0,28.3V14.2C0,6.3,6.3,0,14.2,0h255.1c7.8,0,14.2,6.3,14.2,14.2v14.2C283.5,36.2,277.1,42.5,269.3,42.5
		 M283.5,269.3v-14.2c0-7.8-6.3-14.2-14.2-14.2H14.2c-7.8,0-14.2,6.3-14.2,14.2v14.2c0,7.8,6.3,14.2,14.2,14.2h255.1
		C277.1,283.5,283.5,277.1,283.5,269.3"/>
</g>
</svg>
