<?xml version="1.0" encoding="utf-8"?>
<svg width="250px" height="250px" viewBox="0 0 283.46 283.46" xmlns="http://www.w3.org/2000/svg">
  <title>Paris transit icons - Tram T3</title>
  <rect width="283.46" height="42.52" rx="14.17" style="fill: rgb(255, 90, 0);"/>
  <rect width="283.46" height="42.52" rx="14.17" y="240.94" style="fill: rgb(255, 90, 0);"/>
  <path d="M192.76,199.73c-15.62,0-24.29-3.86-31.55-8.19l8.51-16.87c4.64,3.25,12.22,7.12,21.5,7.12c12.69,0,20.57-7.43,20.57-16.71c0-12.53-9.59-16.86-20.73-16.86h-11.29v-18.1h11.44c10.67,0,17.33-5.57,17.33-13.92c0-6.96-5.26-13.3-16.7-13.3c-10.06,0-16.71,4.8-20.26,7.89l-7.89-16.09c9.28-6.18,19.34-9.75,33.1-9.75c22.28,0,34.96,13.3,34.96,27.85c0,11.29-6.03,20.27-17.64,24.6v0.31c12.06,2.32,21.19,11.6,21.19,26.92C235.3,183.79,218.13,199.73,192.76,199.73z M105.87,107.53v89.55H81.74v-89.55H48.17V87.89h91.26v19.65H105.87z" style=""/>
</svg>