<?xml version="1.0" encoding="utf-8"?>
<!-- Generator: Adobe Illustrator 26.3.1, SVG Export Plug-In . SVG Version: 6.00 Build 0)  -->
<svg version="1.1" id="Layer_1" xmlns="http://www.w3.org/2000/svg" xmlns:xlink="http://www.w3.org/1999/xlink" x="0px" y="0px"
	 viewBox="0 0 283.5 283.5" style="enable-background:new 0 0 283.5 283.5;" xml:space="preserve">
<style type="text/css">
	.st0{clip-path:url(#SVGID_00000088814427968601579530000015504940859561209520_);}
	.st1{clip-path:url(#SVGID_00000088814427968601579530000015504940859561209520_);fill:#6E491E;}
</style>
<g>
	<defs>
		<rect id="SVGID_1_" width="283.5" height="283.5"/>
	</defs>
	<clipPath id="SVGID_00000178917300958986754620000004070265057212445316_">
		<use xlink:href="#SVGID_1_"  style="overflow:visible;"/>
	</clipPath>
	<path style="clip-path:url(#SVGID_00000178917300958986754620000004070265057212445316_);" d="M104.5,107.4V197H80.3v-89.6H46.8
		V87.8H138v19.6H104.5z M198.2,197h-24.9c0-14.4,3.9-23.7,13.4-41.4l26.6-49.5h-53.1V87.8h76.4v17.8
		C212.7,147.2,198.2,179.8,198.2,197"/>
	<path style="clip-path:url(#SVGID_00000178917300958986754620000004070265057212445316_);fill:#6E491E;" d="M269.3,42.5H14.2
		C6.3,42.5,0,36.2,0,28.3V14.2C0,6.3,6.3,0,14.2,0h255.1c7.8,0,14.2,6.3,14.2,14.2v14.2C283.5,36.2,277.1,42.5,269.3,42.5
		 M283.5,269.3v-14.2c0-7.8-6.3-14.2-14.2-14.2H14.2c-7.8,0-14.2,6.3-14.2,14.2v14.2c0,7.8,6.3,14.2,14.2,14.2h255.1
		C277.1,283.5,283.5,277.1,283.5,269.3"/>
</g>
</svg>
