<?xml version="1.0" encoding="utf-8"?>
<!-- Generator: Adobe Illustrator 26.3.1, SVG Export Plug-In . SVG Version: 6.00 Build 0)  -->
<svg version="1.1" id="Layer_1" xmlns="http://www.w3.org/2000/svg" xmlns:xlink="http://www.w3.org/1999/xlink" x="0px" y="0px"
	 viewBox="0 0 283.5 283.5" style="enable-background:new 0 0 283.5 283.5;" xml:space="preserve">
<style type="text/css">
	.st0{clip-path:url(#SVGID_00000163768187711672257180000008667317082056967563_);}
	.st1{clip-path:url(#SVGID_00000163768187711672257180000008667317082056967563_);fill:#FF5A00;}
</style>
<g>
	<defs>
		<rect id="SVGID_1_" width="283.5" height="283.5"/>
	</defs>
	<clipPath id="SVGID_00000131350927939289745970000003203673322947402127_">
		<use xlink:href="#SVGID_1_"  style="overflow:visible;"/>
	</clipPath>
	<path style="clip-path:url(#SVGID_00000131350927939289745970000003203673322947402127_);" d="M156.8,199.7
		c-15.6,0-24.3-3.9-31.6-8.2l8.5-16.9c4.6,3.2,12.2,7.1,21.5,7.1c12.7,0,20.6-7.4,20.6-16.7c0-12.5-9.6-16.9-20.7-16.9h-11.3v-18.1
		h11.4c10.7,0,17.3-5.6,17.3-13.9c0-7-5.3-13.3-16.7-13.3c-10.1,0-16.7,4.8-20.3,7.9l-7.9-16.1c9.3-6.2,19.3-9.7,33.1-9.7
		c22.3,0,35,13.3,35,27.8c0,11.3-6,20.3-17.6,24.6v0.3c12.1,2.3,21.2,11.6,21.2,26.9C199.4,183.8,182.2,199.7,156.8,199.7
		 M258.6,175.6c-5.8,0-8.7-3.6-9.7-8.5c-5.1,6.1-9.9,9.1-18.4,9.1c-11,0-18.4-7.9-18.4-18.5c0-16.9,17.7-20.2,31.5-20.2
		c2.6,0,4.1-0.1,4.1-2.2v-4.1c0-4.4-2.8-8.6-11.4-8.6c-7.2,0-12.7,3.4-15.4,5.7l-5.7-11.7c6.9-4.4,14.5-6.4,25.2-6.4
		c8.7,0,22.9,3.1,22.9,21.1V160c0,2.2,0.2,4.1,2.2,4.1c0.7,0,2-0.4,2.7-0.6l0.9,10.6C266.5,174.7,262.4,175.6,258.6,175.6
		 M247.5,147.7c-1.8-0.1-3.5-0.1-4.9-0.1c-5.7,0-14.3,1.4-14.3,8.9c0,4.5,3.3,7.8,7.8,7.8c3.6,0,6.6-1.2,8.7-3.4
		c1.9-2,2.7-4.3,2.7-7.3V147.7z M69.9,107.5v89.6H45.8v-89.6H12.2V87.9h91.3v19.6H69.9z"/>
	<path style="clip-path:url(#SVGID_00000131350927939289745970000003203673322947402127_);fill:#FF5A00;" d="M269.3,42.5H14.2
		C6.3,42.5,0,36.2,0,28.3V14.2C0,6.3,6.3,0,14.2,0h255.1c7.8,0,14.2,6.3,14.2,14.2v14.2C283.5,36.2,277.1,42.5,269.3,42.5
		 M283.5,269.3v-14.2c0-7.8-6.3-14.2-14.2-14.2H14.2c-7.8,0-14.2,6.3-14.2,14.2v14.2c0,7.8,6.3,14.2,14.2,14.2h255.1
		C277.1,283.5,283.5,277.1,283.5,269.3"/>
</g>
</svg>
