<?xml version="1.0" encoding="utf-8"?>
<!-- Generator: Adobe Illustrator 26.3.1, SVG Export Plug-In . SVG Version: 6.00 Build 0)  -->
<svg version="1.1" id="Layer_1" xmlns="http://www.w3.org/2000/svg" xmlns:xlink="http://www.w3.org/1999/xlink" x="0px" y="0px"
	 viewBox="0 0 283.5 283.5" style="enable-background:new 0 0 283.5 283.5;" xml:space="preserve">
<style type="text/css">
	.st0{clip-path:url(#SVGID_00000105417992365061550300000007930096919922625168_);}
	.st1{clip-path:url(#SVGID_00000105417992365061550300000007930096919922625168_);fill:#FF1400;}
</style>
<g>
	<defs>
		<rect id="SVGID_1_" width="283.5" height="283.5"/>
	</defs>
	<clipPath id="SVGID_00000006682861121176299590000017211548813598713984_">
		<use xlink:href="#SVGID_1_"  style="overflow:visible;"/>
	</clipPath>
	<path style="clip-path:url(#SVGID_00000006682861121176299590000017211548813598713984_);" d="M103.7,107.4V197H79.6v-89.6H46V87.8
		h91.3v19.6H103.7z M200,199.6c-29.9,0-40.5-20.7-40.5-49.6c0-37.9,17.8-65.1,52.7-65.1c6.2,0,11.8,0.8,16.4,1.9l-3.4,18.6
		c-2.9-1.2-8.7-2.6-15-2.6c-15.3,0-26.4,12.2-28,34.2c3.7-3.2,10.8-7.4,22.6-7.4c18.1,0,32.6,11.9,32.6,32.3
		C237.5,183.5,222.9,199.6,200,199.6 M197.9,146.5c-7,0-12.5,2.6-14.7,6c-1.2,1.9-1.2,6.2-1.2,9.4c0,10.4,6,20.4,17.2,20.4
		c10.8,0,16.4-8.8,16.4-18.2C215.5,154,208.7,146.5,197.9,146.5"/>
	<path style="clip-path:url(#SVGID_00000006682861121176299590000017211548813598713984_);fill:#FF1400;" d="M269.3,42.5H14.2
		C6.3,42.5,0,36.2,0,28.3V14.2C0,6.3,6.3,0,14.2,0h255.1c7.8,0,14.2,6.3,14.2,14.2v14.2C283.5,36.2,277.1,42.5,269.3,42.5
		 M283.5,269.3v-14.2c0-7.8-6.3-14.2-14.2-14.2H14.2c-7.8,0-14.2,6.3-14.2,14.2v14.2c0,7.8,6.3,14.2,14.2,14.2h255.1
		C277.1,283.5,283.5,277.1,283.5,269.3"/>
</g>
</svg>
