<?xml version="1.0" encoding="utf-8"?>
<!-- Generator: Adobe Illustrator 26.3.1, SVG Export Plug-In . SVG Version: 6.00 Build 0)  -->
<svg version="1.1" id="Layer_1" xmlns="http://www.w3.org/2000/svg" xmlns:xlink="http://www.w3.org/1999/xlink" x="0px" y="0px"
	 viewBox="0 0 283.5 283.5" style="enable-background:new 0 0 283.5 283.5;" xml:space="preserve">
<style type="text/css">
	.st0{clip-path:url(#SVGID_00000054247900654135775150000010629443897215032736_);}
	.st1{clip-path:url(#SVGID_00000054247900654135775150000010629443897215032736_);fill:#6E6E00;}
</style>
<g>
	<defs>
		<rect id="SVGID_1_" width="283.5" height="283.5"/>
	</defs>
	<clipPath id="SVGID_00000178163587188410358230000006183876827708797583_">
		<use xlink:href="#SVGID_1_"  style="overflow:visible;"/>
	</clipPath>
	<path style="clip-path:url(#SVGID_00000178163587188410358230000006183876827708797583_);" d="M67.4,107.6v89.6H43.3v-89.6H9.8
		V87.9H101v19.6H67.4z M155.4,197.1v-85.8c-6.6,5.3-17.2,10.4-24.4,13.6l-7.4-16.7c11.4-4.8,25.2-12.1,36-20.3h19v109.2H155.4z
		 M233.6,200.1c-32.9,0-39.4-32.5-39.4-57.7c0-25.2,7.1-57.7,40.1-57.7c32.9,0,39.4,32.5,39.4,57.7
		C273.7,167.6,266.6,200.1,233.6,200.1 M234,103.1c-15.8,0-16.2,28.2-16.2,39.3c0,11,0.8,39.4,16.2,39.4s16.1-28.6,16.1-39.4
		C250,130.9,249.6,103.1,234,103.1"/>
	<path style="clip-path:url(#SVGID_00000178163587188410358230000006183876827708797583_);fill:#6E6E00;" d="M269.3,42.5H14.2
		C6.3,42.5,0,36.2,0,28.3V14.2C0,6.3,6.3,0,14.2,0h255.1c7.8,0,14.2,6.3,14.2,14.2v14.2C283.5,36.2,277.1,42.5,269.3,42.5
		 M283.5,269.3v-14.2c0-7.8-6.3-14.2-14.2-14.2H14.2c-7.8,0-14.2,6.3-14.2,14.2v14.2c0,7.8,6.3,14.2,14.2,14.2h255.1
		C277.1,283.5,283.5,277.1,283.5,269.3"/>
</g>
</svg>
