<?xml version="1.0" encoding="utf-8"?>
<!-- Generator: Adobe Illustrator 26.3.1, SVG Export Plug-In . SVG Version: 6.00 Build 0)  -->
<svg version="1.1" id="Layer_1" xmlns="http://www.w3.org/2000/svg" xmlns:xlink="http://www.w3.org/1999/xlink" x="0px" y="0px"
	 viewBox="0 0 283.5 283.5" style="enable-background:new 0 0 283.5 283.5;" xml:space="preserve">
<style type="text/css">
	.st0{clip-path:url(#SVGID_00000025404496065702432990000006626170728600441738_);}
	.st1{clip-path:url(#SVGID_00000025404496065702432990000006626170728600441738_);fill:#640082;}
</style>
<g>
	<defs>
		<rect id="SVGID_1_" width="283.5" height="283.5"/>
	</defs>
	<clipPath id="SVGID_00000130629549220261289460000010813274376726921864_">
		<use xlink:href="#SVGID_1_"  style="overflow:visible;"/>
	</clipPath>
	<path style="clip-path:url(#SVGID_00000130629549220261289460000010813274376726921864_);" d="M105.9,107.4V197H81.7v-89.6H48.2
		V87.8h91.3v19.6H105.9z M193.8,199.6c-12.7,0-22.4-2.8-30.8-7.9l8.8-17c6,4.2,12.2,7,20.7,7s19.2-5.1,19.2-17.9
		c0-7.9-5.3-18.7-25.4-19c-6.2,0-13.5-0.2-17-0.2l4.3-56.8h57.4V106h-39.3l-1.6,20.7c0.6,0,2,0.2,3.1,0.2
		c29.8,1.4,41.9,18.3,41.9,34.6C235.3,182.4,218.7,199.6,193.8,199.6"/>
	<path style="clip-path:url(#SVGID_00000130629549220261289460000010813274376726921864_);fill:#640082;" d="M269.3,42.5H14.2
		C6.3,42.5,0,36.2,0,28.3V14.2C0,6.3,6.3,0,14.2,0h255.1c7.8,0,14.2,6.3,14.2,14.2v14.2C283.5,36.2,277.1,42.5,269.3,42.5
		 M283.5,269.3v-14.2c0-7.8-6.3-14.2-14.2-14.2H14.2c-7.8,0-14.2,6.3-14.2,14.2v14.2c0,7.8,6.3,14.2,14.2,14.2h255.1
		C277.1,283.5,283.5,277.1,283.5,269.3"/>
</g>
</svg>
