<?xml version="1.0" encoding="utf-8"?>
<!-- Generator: Adobe Illustrator 26.3.1, SVG Export Plug-In . SVG Version: 6.00 Build 0)  -->
<svg version="1.1" id="Layer_1" xmlns="http://www.w3.org/2000/svg" xmlns:xlink="http://www.w3.org/1999/xlink" x="0px" y="0px"
	 viewBox="0 0 283.5 283.5" style="enable-background:new 0 0 283.5 283.5;" xml:space="preserve">
<style type="text/css">
	.st0{clip-path:url(#SVGID_00000183928663309176120780000013104923171821238933_);}
	.st1{clip-path:url(#SVGID_00000183928663309176120780000013104923171821238933_);fill:#00643C;}
</style>
<g>
	<defs>
		<rect id="SVGID_1_" width="283.5" height="283.5"/>
	</defs>
	<clipPath id="SVGID_00000085972433664928841230000013839026464737200560_">
		<use xlink:href="#SVGID_1_"  style="overflow:visible;"/>
	</clipPath>
	<path style="clip-path:url(#SVGID_00000085972433664928841230000013839026464737200560_);" d="M156.8,199.7
		c-15.6,0-24.3-3.9-31.6-8.2l8.5-16.9c4.6,3.2,12.2,7.1,21.5,7.1c12.7,0,20.6-7.4,20.6-16.7c0-12.5-9.6-16.9-20.7-16.9h-11.3v-18.1
		h11.4c10.7,0,17.3-5.6,17.3-13.9c0-7-5.3-13.3-16.7-13.3c-10.1,0-16.7,4.8-20.3,7.9l-7.9-16.1c9.3-6.2,19.3-9.7,33.1-9.7
		c22.3,0,35,13.3,35,27.8c0,11.3-6,20.3-17.6,24.6v0.3c12.1,2.3,21.2,11.6,21.2,26.9C199.4,183.8,182.2,199.7,156.8,199.7
		 M243.3,176.5c-4.7,0-10.1-1.9-13.3-4.8v2.8h-15.9V88.2h16.4v32.2c4.2-6.1,9-10.1,16.9-10.1c16.3,0,23.1,17.4,23.1,32.4
		C270.6,156.7,263.3,176.5,243.3,176.5 M241.2,124.5c-3.3,0-5.8,1.4-7.6,3.1c-2.8,2.7-3.1,4.4-3.1,8v21.1c0,4.3,2.6,8.2,10,8.2
		c10.5,0,13.1-11.3,13.1-19.8C253.6,136.7,251.6,124.5,241.2,124.5 M69.9,107.5v89.6H45.8v-89.6H12.2V87.9h91.3v19.6H69.9z"/>
	<path style="clip-path:url(#SVGID_00000085972433664928841230000013839026464737200560_);fill:#00643C;" d="M269.3,42.5H14.2
		C6.3,42.5,0,36.2,0,28.3V14.2C0,6.3,6.3,0,14.2,0h255.1c7.8,0,14.2,6.3,14.2,14.2v14.2C283.5,36.2,277.1,42.5,269.3,42.5
		 M283.5,269.3v-14.2c0-7.8-6.3-14.2-14.2-14.2H14.2c-7.8,0-14.2,6.3-14.2,14.2v14.2c0,7.8,6.3,14.2,14.2,14.2h255.1
		C277.1,283.5,283.5,277.1,283.5,269.3"/>
</g>
</svg>
