<?xml version="1.0" encoding="UTF-8" standalone="no"?>
<!-- Generator: Adobe Illustrator 26.3.1, SVG Export Plug-In . SVG Version: 6.00 Build 0)  -->

<svg
   version="1.1"
   id="Layer_1"
   x="0px"
   y="0px"
   viewBox="0 0 283.5 283.5"
   style="enable-background:new 0 0 283.5 283.5;"
   xml:space="preserve"
   sodipodi:docname="tram_T1a_couleur_RVB.svg"
   inkscape:version="1.2.2 (b0a8486541, 2022-12-01)"
   xmlns:inkscape="http://www.inkscape.org/namespaces/inkscape"
   xmlns:sodipodi="http://sodipodi.sourceforge.net/DTD/sodipodi-0.dtd"
   xmlns:xlink="http://www.w3.org/1999/xlink"
   xmlns="http://www.w3.org/2000/svg"
   xmlns:svg="http://www.w3.org/2000/svg"><defs
   id="defs49107">
	<defs
   id="defs49093">
		<rect
   id="SVGID_1_"
   width="283.5"
   height="283.5" />
	</defs>
	<clipPath
   id="SVGID_00000131350927939289745970000003203673322947402127_">
		<use
   xlink:href="#SVGID_1_"
   style="overflow:visible;"
   id="use49095" />
	</clipPath>
	
	
</defs><sodipodi:namedview
   id="namedview49105"
   pagecolor="#505050"
   bordercolor="#eeeeee"
   borderopacity="1"
   inkscape:showpageshadow="0"
   inkscape:pageopacity="0"
   inkscape:pagecheckerboard="0"
   inkscape:deskcolor="#d1d1d1"
   showgrid="false"
   inkscape:zoom="0.94268415"
   inkscape:cx="-119.87048"
   inkscape:cy="65.769643"
   inkscape:window-width="1920"
   inkscape:window-height="1024"
   inkscape:window-x="0"
   inkscape:window-y="28"
   inkscape:window-maximized="1"
   inkscape:current-layer="Layer_1" />
<style
   type="text/css"
   id="style49090">
	.st0{clip-path:url(#SVGID_00000163768187711672257180000008667317082056967563_);}
	.st1{clip-path:url(#SVGID_00000163768187711672257180000008667317082056967563_);fill:#FF5A00;}
</style>
<path
   style="fill:#82dc73;fill-opacity:1"
   d="M 269.3,42.5 H 14.2 C 6.3,42.5 0,36.2 0,28.3 V 14.2 C 0,6.3 6.3,0 14.2,0 h 255.1 c 7.8,0 14.2,6.3 14.2,14.2 v 14.2 c 0,7.8 -6.4,14.1 -14.2,14.1 m 14.2,226.8 v -14.2 c 0,-7.8 -6.3,-14.2 -14.2,-14.2 H 14.2 C 6.4,240.9 0,247.2 0,255.1 v 14.2 c 0,7.8 6.3,14.2 14.2,14.2 h 255.1 c 7.8,0 14.2,-6.4 14.2,-14.2"
   clip-path="url(#SVGID_00000131350927939289745970000003203673322947402127_)"
   id="path49100" /><path
   d="m 258.6,175.6 c -5.8,0 -8.7,-3.6 -9.7,-8.5 -5.1,6.1 -9.9,9.1 -18.4,9.1 -11,0 -18.4,-7.9 -18.4,-18.5 0,-16.9 17.7,-20.2 31.5,-20.2 2.6,0 4.1,-0.1 4.1,-2.2 v -4.1 c 0,-4.4 -2.8,-8.6 -11.4,-8.6 -7.2,0 -12.7,3.4 -15.4,5.7 l -5.7,-11.7 c 6.9,-4.4 14.5,-6.4 25.2,-6.4 8.7,0 22.9,3.1 22.9,21.1 V 160 c 0,2.2 0.2,4.1 2.2,4.1 0.7,0 2,-0.4 2.7,-0.6 l 0.9,10.6 c -2.6,0.6 -6.7,1.5 -10.5,1.5 m -11.1,-27.9 c -1.8,-0.1 -3.5,-0.1 -4.9,-0.1 -5.7,0 -14.3,1.4 -14.3,8.9 0,4.5 3.3,7.8 7.8,7.8 3.6,0 6.6,-1.2 8.7,-3.4 1.9,-2 2.7,-4.3 2.7,-7.3 z M 69.9,107.5 v 89.6 H 45.8 V 107.5 H 12.2 V 87.9 h 91.3 v 19.6 z"
   clip-path="url(#SVGID_00000131350927939289745970000003203673322947402127_)"
   id="path49408"
   sodipodi:nodetypes="ccssssssccssssccccssscscccccccccc" />
<path
   d="m 166.28766,197.1 v -85.8 c -6.6,5.3 -17.2,10.4 -24.4,13.6 l -7.4,-16.7 c 11.4,-4.8 25.2,-12.1 36,-20.3 h 19 v 109.2 z"
   id="path49485" /></svg>
